<svg width="40" height="40" viewBox="0 0 40 40" fill="none" xmlns="http://www.w3.org/2000/svg">
<path d="M32.3645 13.9531V12.3644C32.3645 5.54664 26.818 0 20.0002 0C13.1823 0 7.63586 5.54664 7.63586 12.3644V13.9531C7.63586 18.5963 6.57758 23.2383 4.57141 27.4257H1.06055V35.5338H15.7632V35.7631C15.7633 38.0994 17.6639 40 20.0002 40C22.3364 40 24.237 38.0994 24.237 35.7631V35.5338H38.9397V27.4257H35.4289C33.4228 23.2383 32.3645 18.5963 32.3645 13.9531ZM9.97961 13.9531V12.3644C9.97961 6.83898 14.4748 2.34375 20.0002 2.34375C25.5255 2.34375 30.0207 6.83898 30.0207 12.3644V13.9531C30.0207 18.5738 30.9952 23.1936 32.8505 27.4257H7.14984C9.00516 23.1936 9.97961 18.5738 9.97961 13.9531ZM21.8934 35.7631H21.8934C21.8934 36.807 21.0441 37.6562 20.0002 37.6562C18.9563 37.6562 18.1071 36.807 18.1071 35.7631V35.5338H21.8934V35.7631ZM36.596 33.1901H3.4043V29.7695H36.596V33.1901Z" fill="#B28357"/>
</svg>
