<svg width="40" height="40" viewBox="0 0 40 40" fill="none" xmlns="http://www.w3.org/2000/svg">
<path d="M36.1468 5.39906C34.9577 4.20984 33.0226 4.20977 31.8333 5.39906L27.8048 9.42758V0H2.96094V34.2578H5.97109V40L9.30758 38.8173L12.644 40V34.2578H27.8048V18.0548L36.147 9.71273C37.3361 8.52344 37.336 6.58836 36.1468 5.39906ZM10.295 36.675L9.30758 36.3251L8.32023 36.675V34.2578H10.295V36.675ZM25.4557 31.9087H5.31008V2.34914H25.4558V11.7767L20.5198 16.7128L19.1678 22.3783L24.8333 21.0263L25.4558 20.4038V31.9087H25.4557ZM23.6417 18.8956L22.3396 19.2063L22.6503 17.9042L31.1436 9.41094L32.1351 10.4024L23.6417 18.8956ZM34.4859 8.05164L33.7962 8.74133L32.8047 7.74984L33.4944 7.06016C33.7677 6.7868 34.2125 6.78672 34.4858 7.06008C34.7591 7.33352 34.7591 7.77836 34.4859 8.05164Z" fill="#B28357"/>
<path d="M20.7534 6.02332H10.0117V8.37246H20.7534V6.02332Z" fill="#B28357"/>
<path d="M20.7534 10.9626H10.0117V13.3118H20.7534V10.9626Z" fill="#B28357"/>
</svg>
