<svg width="60" height="60" viewBox="0 0 60 60" fill="none" xmlns="http://www.w3.org/2000/svg">
<path d="M47.4861 23.8992C47.0916 23.6561 46.5949 23.6511 46.1956 23.8862C45.0243 24.5761 43.6848 24.9407 42.3216 24.9407C39.6853 24.9407 37.2677 23.6074 35.8545 21.3739C35.6325 21.023 35.2509 20.8052 34.8359 20.7929C31.6956 20.698 28.5585 20.2639 25.5116 19.5021C25.124 19.4049 24.7134 19.4995 24.4069 19.7556C24.1003 20.0119 23.9348 20.3991 23.9613 20.7979L24.6929 31.7713C25.094 37.7876 30.1314 42.5002 36.161 42.5002C42.1906 42.5002 47.2279 37.7876 47.6291 31.7713L48.0774 25.0465C48.1081 24.584 47.8804 24.1425 47.4861 23.8992ZM45.1343 31.605C44.8206 36.3125 40.8788 40.0001 36.1607 40.0001C31.4426 40.0001 27.501 36.3125 27.1871 31.605L26.5674 22.3104C29.0521 22.835 31.5834 23.1561 34.1201 23.2679C36.0301 25.893 39.0483 27.4407 42.3213 27.4407C43.3862 27.4407 44.4403 27.273 45.4446 26.9482L45.1343 31.605Z" fill="#D2B5B6"/>
<path d="M36.1571 0C26.6952 0 18.7166 6.47761 16.4178 15.2332C16.4008 15.2847 16.3871 15.3378 16.3768 15.3921C15.9687 16.9998 15.7517 18.684 15.7517 20.4168V33.3646C15.7517 39.4694 10.7884 44.436 4.6875 44.436C3.99712 44.436 3.4375 44.9958 3.4375 45.686C3.4375 48.3062 7.15299 50.2311 9.36761 51.1455C12.6571 52.5035 16.6838 53.3898 20.8285 53.678C20.3268 55.4921 20.4346 57.3891 21.1691 59.2163C21.3595 59.6898 21.8186 60 22.3288 60H50.8079C51.3661 60 51.8566 59.6299 52.0099 59.0931L52.2288 58.3263C53.0001 55.6246 52.4389 52.8295 50.6483 50.456C50.1769 49.8313 49.6373 49.2524 49.0388 48.7239C53.4886 43.0387 56.0179 35.3885 56.5601 25.9649C56.5615 25.9411 56.5623 25.9171 56.5623 25.8932V20.417C56.5624 9.15886 47.4087 0 36.1571 0ZM36.1571 2.49999C43.9125 2.49999 50.5322 7.45936 53.015 14.3753H46.1825C46.2268 14.1215 46.2499 13.8605 46.2499 13.5941C46.2499 11.0956 44.2172 9.06286 41.7187 9.06286C41.2804 9.06286 40.849 9.12561 40.4355 9.24773C39.3978 7.77586 37.7054 6.87536 35.8459 6.87536C34.0592 6.87536 32.4184 7.70836 31.3666 9.10148C31.1727 9.07586 30.9773 9.06286 30.7812 9.06286C28.2827 9.06286 26.25 11.0956 26.25 13.5941C26.25 13.8605 26.2731 14.1215 26.3173 14.3753H19.2991C21.7818 7.45936 28.4016 2.49999 36.1571 2.49999ZM43.7499 13.5941C43.7499 14.7141 42.8387 15.6253 41.7187 15.6253C41.0619 15.6253 40.4418 15.3028 40.06 14.7627C39.843 14.4557 39.4994 14.2627 39.1244 14.2371C39.0959 14.2351 39.0674 14.2342 39.0391 14.2342C38.6943 14.2342 38.3632 14.377 38.1261 14.6306C37.5264 15.2722 36.7166 15.6255 35.8458 15.6255C35.1276 15.6255 34.4513 15.3867 33.8899 14.9351C33.3921 14.5345 32.6716 14.5741 32.2206 15.027C31.8363 15.413 31.3251 15.6255 30.7812 15.6255C29.6612 15.6255 28.7499 14.7142 28.7499 13.5942C28.7499 12.4742 29.6612 11.563 30.7812 11.563C31.0232 11.563 31.2652 11.6082 31.5006 11.6976C32.0977 11.9241 32.7704 11.6637 33.0592 11.0936C33.5958 10.0337 34.6636 9.37548 35.8458 9.37548C37.1249 9.37548 38.2618 10.1434 38.7421 11.3315C38.8829 11.68 39.1732 11.9466 39.5324 12.0575C39.8915 12.1682 40.2817 12.1116 40.5944 11.903C40.9279 11.6806 41.3167 11.563 41.7185 11.563C42.8387 11.5629 43.7499 12.4741 43.7499 13.5941ZM49.8634 57.4999H23.2265C22.6375 55.297 23.3988 53.4835 24.1963 52.3036C24.6517 51.6298 25.2132 51.0143 25.8628 50.4649C28.8097 52.5888 32.5162 53.7499 36.3998 53.7499C38.0552 53.7499 39.6897 53.5389 41.258 53.1224C41.9253 52.9453 42.3227 52.2608 42.1455 51.5936C41.9684 50.9264 41.2838 50.5285 40.6168 50.7061C39.2575 51.0669 37.8388 51.2499 36.3999 51.2499C33.4278 51.2499 30.5869 50.472 28.2247 49.0336C30.1852 48.037 32.5187 47.5 34.9653 47.5H38.2997C42.6095 47.5 46.5767 49.2096 48.6528 51.9615C49.5598 53.164 50.495 55.0921 49.8634 57.4999ZM54.0624 25.8568C53.5454 34.7514 51.1907 41.9243 47.0602 47.1957C44.603 45.7749 41.5899 45 38.4714 45H34.7932C29.4398 45 24.5856 47.2623 22.1248 50.9038C22.0502 51.0141 21.9783 51.1251 21.909 51.2368C17.7633 51.0408 13.5574 50.1705 10.3216 48.8346C8.53574 48.0975 7.40124 47.3669 6.73487 46.7817C13.2464 45.7912 18.2517 40.1517 18.2517 33.3644V20.4168C18.2517 19.2048 18.3726 18.0205 18.603 16.8753H27.5C27.5507 16.8753 27.6007 16.8723 27.65 16.8665C28.4642 17.6458 29.5678 18.1253 30.7812 18.1253C31.6391 18.1253 32.4602 17.8885 33.1706 17.4458C33.9884 17.8881 34.9106 18.1253 35.8459 18.1253C36.9558 18.1253 38.0396 17.7902 38.9554 17.1817C39.739 17.7855 40.7089 18.1253 41.7187 18.1253C42.9322 18.1253 44.0358 17.6458 44.8499 16.8665C44.8992 16.8723 44.949 16.8753 44.9999 16.8753H53.7111C53.9415 18.0205 54.0624 19.2048 54.0624 20.4168V25.8568Z" fill="#D2B5B6"/>
<path d="M33.5068 24.9002C32.8874 24.6034 32.1446 24.8619 31.8434 25.4784C31.8036 25.5286 31.6091 25.6548 31.2881 25.6548C30.9671 25.6548 30.7727 25.5286 30.7327 25.4784C30.4314 24.8621 29.6887 24.6032 29.0693 24.9002C28.4468 25.1986 28.1841 25.9452 28.4825 26.5677C28.9446 27.5318 30.0458 28.1548 31.2881 28.1548C32.5303 28.1548 33.6316 27.5318 34.0937 26.5677C34.3922 25.9452 34.1294 25.1986 33.5068 24.9002Z" fill="#D2B5B6"/>
</svg>
