<svg width="60" height="60" viewBox="0 0 60 60" fill="none" xmlns="http://www.w3.org/2000/svg">
<path d="M30.4646 11.875C30.4646 8.08413 27.3805 5 23.5896 5C22.2749 5 21.0454 5.37088 19.9999 6.0135C18.9544 5.37088 17.7249 5 16.4102 5C12.6193 5 9.53516 8.08413 9.53516 11.875C9.53516 15.6659 12.6193 18.75 16.4102 18.75C17.7249 18.75 18.9544 18.3791 19.9999 17.7365C21.0454 18.3792 22.2749 18.75 23.5896 18.75C27.3805 18.75 30.4646 15.6659 30.4646 11.875ZM18.0437 15.9338C17.5388 16.1378 16.9874 16.25 16.4103 16.25C13.9979 16.25 12.0353 14.2874 12.0353 11.875C12.0353 9.46263 13.9979 7.5 16.4103 7.5C16.9874 7.5 17.5388 7.61225 18.0437 7.81625C17.2083 8.9545 16.7147 10.358 16.7147 11.875C16.7147 13.392 17.2083 14.7954 18.0437 15.9338ZM19.9999 14.3734C19.5051 13.6645 19.2147 12.803 19.2147 11.875C19.2147 10.947 19.5051 10.0855 19.9999 9.37663C20.4946 10.0855 20.7851 10.947 20.7851 11.875C20.7851 12.803 20.4946 13.6645 19.9999 14.3734ZM21.9561 15.9338C22.7915 14.7955 23.2851 13.392 23.2851 11.875C23.2851 10.358 22.7915 8.95462 21.9561 7.81625C22.461 7.61225 23.0124 7.5 23.5895 7.5C26.0019 7.5 27.9645 9.46263 27.9645 11.875C27.9645 14.2874 26.0019 16.25 23.5895 16.25C23.0124 16.25 22.461 16.1378 21.9561 15.9338Z" fill="#D2B5B6"/>
<path d="M20 23.75H8.75C8.05975 23.75 7.5 24.3098 7.5 25C7.5 25.6902 8.05975 26.25 8.75 26.25H20C20.6903 26.25 21.25 25.6902 21.25 25C21.25 24.3098 20.6903 23.75 20 23.75Z" fill="#D2B5B6"/>
<path d="M38.75 51.25C38.0598 51.25 37.5 51.8098 37.5 52.5V53.75C37.5 54.4402 38.0598 55 38.75 55C39.4402 55 40 54.4402 40 53.75V52.5C40 51.8098 39.4402 51.25 38.75 51.25Z" fill="#D2B5B6"/>
<path d="M8.75 46.25C8.05975 46.25 7.5 46.8098 7.5 47.5C7.5 48.1902 8.05975 48.75 8.75 48.75H12.5C13.1902 48.75 13.75 48.1902 13.75 47.5C13.75 46.8098 13.1902 46.25 12.5 46.25H8.75Z" fill="#D2B5B6"/>
<path d="M21.25 40C21.25 39.3098 20.6903 38.75 20 38.75H8.75C8.05975 38.75 7.5 39.3098 7.5 40C7.5 40.6902 8.05975 41.25 8.75 41.25H20C20.6903 41.25 21.25 40.6902 21.25 40Z" fill="#D2B5B6"/>
<path d="M8.75 33.75H12.5C13.1902 33.75 13.75 33.1902 13.75 32.5C13.75 31.8097 13.1902 31.25 12.5 31.25H8.75C8.05975 31.25 7.5 31.8097 7.5 32.5C7.5 33.1902 8.05975 33.75 8.75 33.75Z" fill="#D2B5B6"/>
<path d="M45.625 45C44.9348 45 44.375 45.5598 44.375 46.25V47.5C44.375 48.1902 44.9348 48.75 45.625 48.75C46.3152 48.75 46.875 48.1902 46.875 47.5V46.25C46.875 45.5598 46.3152 45 45.625 45Z" fill="#D2B5B6"/>
<path d="M52.5 45C51.8098 45 51.25 45.5598 51.25 46.25V47.5C51.25 48.1902 51.8098 48.75 52.5 48.75C53.1902 48.75 53.75 48.1902 53.75 47.5V46.25C53.75 45.5598 53.1902 45 52.5 45Z" fill="#D2B5B6"/>
<path d="M51.25 27.5H40C37.9323 27.5 36.25 29.1823 36.25 31.25C36.25 33.3177 37.9323 35 40 35H51.25C53.3177 35 55 33.3177 55 31.25C55 29.1823 53.3177 27.5 51.25 27.5ZM51.25 32.5H40C39.3108 32.5 38.75 31.9392 38.75 31.25C38.75 30.5608 39.3108 30 40 30H51.25C51.9392 30 52.5 30.5608 52.5 31.25C52.5 31.9392 51.9392 32.5 51.25 32.5Z" fill="#D2B5B6"/>
<path d="M52.5 38.75C51.8098 38.75 51.25 39.3098 51.25 40V41.25C51.25 41.9402 51.8098 42.5 52.5 42.5C53.1902 42.5 53.75 41.9402 53.75 41.25V40C53.75 39.3098 53.1902 38.75 52.5 38.75Z" fill="#D2B5B6"/>
<path d="M38.75 45C38.0598 45 37.5 45.5598 37.5 46.25V47.5C37.5 48.1902 38.0598 48.75 38.75 48.75C39.4402 48.75 40 48.1902 40 47.5V46.25C40 45.5598 39.4402 45 38.75 45Z" fill="#D2B5B6"/>
<path d="M56.25 22.5H40V3.75C40 1.68225 38.3177 0 36.25 0H3.75C1.68225 0 0 1.68225 0 3.75V52.5C0 54.5677 1.68225 56.25 3.75 56.25H27.5C28.1903 56.25 28.75 55.6903 28.75 55C28.75 54.3097 28.1903 53.75 27.5 53.75H3.75C3.06075 53.75 2.5 53.1893 2.5 52.5V3.75C2.5 3.06075 3.06075 2.5 3.75 2.5H36.25C36.9393 2.5 37.5 3.06075 37.5 3.75V22.5H35C32.9323 22.5 31.25 24.1823 31.25 26.25V56.25C31.25 58.3177 32.9323 60 35 60H56.25C58.3177 60 60 58.3177 60 56.25V26.25C60 24.1823 58.3177 22.5 56.25 22.5ZM57.5 56.25C57.5 56.9393 56.9393 57.5 56.25 57.5H35C34.3107 57.5 33.75 56.9393 33.75 56.25V26.25C33.75 25.5607 34.3107 25 35 25H56.25C56.9393 25 57.5 25.5607 57.5 26.25V56.25Z" fill="#D2B5B6"/>
<path d="M38.75 38.75C38.0598 38.75 37.5 39.3098 37.5 40V41.25C37.5 41.9402 38.0598 42.5 38.75 42.5C39.4402 42.5 40 41.9402 40 41.25V40C40 39.3098 39.4402 38.75 38.75 38.75Z" fill="#D2B5B6"/>
<path d="M45.625 51.25C44.9348 51.25 44.375 51.8098 44.375 52.5V53.75C44.375 54.4402 44.9348 55 45.625 55C46.3152 55 46.875 54.4402 46.875 53.75V52.5C46.875 51.8098 46.3152 51.25 45.625 51.25Z" fill="#D2B5B6"/>
<path d="M45.625 38.75C44.9348 38.75 44.375 39.3098 44.375 40V41.25C44.375 41.9402 44.9348 42.5 45.625 42.5C46.3152 42.5 46.875 41.9402 46.875 41.25V40C46.875 39.3098 46.3152 38.75 45.625 38.75Z" fill="#D2B5B6"/>
<path d="M52.5 51.25C51.8098 51.25 51.25 51.8098 51.25 52.5V53.75C51.25 54.4402 51.8098 55 52.5 55C53.1902 55 53.75 54.4402 53.75 53.75V52.5C53.75 51.8098 53.1902 51.25 52.5 51.25Z" fill="#D2B5B6"/>
</svg>
