<svg width="60" height="60" viewBox="0 0 60 60" fill="none" xmlns="http://www.w3.org/2000/svg">
<path d="M58.75 57.4997H57.5V33.7499H58.75C59.4403 33.7499 60 33.1903 60 32.4999C60 31.8095 59.4403 31.2499 58.75 31.2499H57.5V28.7729C57.5003 28.7579 57.5003 28.7428 57.5 28.7279V16.25C57.5 8.66813 51.3317 2.5 43.75 2.5H38.425C37.4147 0.993375 35.6963 0 33.75 0C32.3565 0 31.02 0.52775 30 1.43675C28.98 0.52775 27.6435 0 26.25 0C24.3037 0 22.5853 0.993375 21.575 2.5H16.25C8.66825 2.5 2.5 8.66812 2.5 16.2499V28.7278C2.49975 28.7428 2.49975 28.7578 2.5 28.7728V31.2498H1.25C0.55975 31.2498 0 31.8094 0 32.4997C0 33.1901 0.55975 33.7497 1.25 33.7497H2.5V57.4996H1.25C0.55975 57.4996 0 58.0592 0 58.7496C0 59.44 0.55975 59.9996 1.25 59.9996H19.9715C19.9906 60 20.0096 60 20.029 59.9996H25C25.6903 59.9996 26.25 59.44 26.25 58.7496C26.25 58.0592 25.6903 57.4996 25 57.4996H20.8531L11.9511 34.75C11.6669 34.0238 11.2562 33.3644 10.7434 32.7981C14.2389 31.8311 17.5239 30.146 20.3564 27.8293C24.4795 24.4568 27.491 19.886 28.9644 14.8135C29.6229 15.0579 30.377 15.0579 31.0354 14.8135C32.5088 19.886 35.5202 24.4568 39.6434 27.8293C42.4759 30.146 45.7609 31.831 49.2564 32.7981C48.7434 33.3644 48.3328 34.0239 48.0486 34.7501L39.1466 57.4997H35C34.3097 57.4997 33.75 58.0594 33.75 58.7497C33.75 59.4401 34.3097 59.9997 35 59.9997H39.971C39.9806 60 39.9901 60 39.9996 60C40.0093 60 40.0187 60 40.0284 59.9997H58.75C59.4403 59.9997 60 59.4401 60 58.7497C60 58.0594 59.4403 57.4997 58.75 57.4997ZM18.1686 57.4997H5V33.7199C5.84975 33.679 6.69525 33.5969 7.53312 33.4744C7.6015 33.5291 7.67663 33.5776 7.75825 33.6183C8.612 34.0445 9.27437 34.77 9.62313 35.6611L18.1686 57.4997ZM5 31.2166V29.5745C8.46663 28.0145 11.5828 25.5777 14.0516 22.4881C16.7164 19.1534 18.5724 15.1225 19.419 10.831C19.5526 10.1538 19.112 9.49638 18.4346 9.36263C17.7574 9.22925 17.0999 9.66975 16.9664 10.347C15.5516 17.5177 11.0398 23.6599 5 26.7974V16.25C5 10.0468 10.0468 5 16.25 5H20.6595C20.6366 5.20525 20.625 5.41375 20.625 5.625C20.625 7.18875 21.314 8.65963 22.5152 9.66063L26.8018 13.2327C24.3013 23.3134 15.3521 30.665 5 31.2166ZM31.026 11.7886C31.0136 11.7985 31.0016 11.8086 30.9896 11.819L30.3049 12.3896C30.134 12.532 29.8659 12.532 29.695 12.3896L29.0103 11.819C28.9983 11.8086 28.9862 11.7985 28.9739 11.7886L24.1155 7.74C23.4861 7.21537 23.125 6.4445 23.125 5.625C23.125 3.90188 24.5269 2.5 26.25 2.5C27.3559 2.5 28.3574 3.06675 28.9294 4.01587C29.1555 4.39138 29.5618 4.62087 30 4.62087C30.4382 4.62087 30.8446 4.39138 31.0706 4.01587C31.6426 3.06675 32.6441 2.5 33.75 2.5C35.4731 2.5 36.875 3.90188 36.875 5.625C36.875 6.44462 36.5139 7.2155 35.8844 7.74013L31.026 11.7886ZM55 57.4997H41.8314L50.3769 35.6613C50.7256 34.77 51.388 34.0445 52.2417 33.6183C52.3232 33.5775 52.3985 33.5291 52.4669 33.4744C53.3047 33.5969 54.1502 33.6791 55 33.7199V57.4997ZM55 26.7974C48.9603 23.6599 44.4484 17.5177 43.0336 10.3471C42.9001 9.66975 42.2428 9.22913 41.5654 9.36275C40.888 9.49638 40.4474 10.1538 40.581 10.8311C41.4276 15.1226 43.2836 19.1535 45.9484 22.4883C48.4173 25.5779 51.5334 28.0145 55 29.5746V31.2167C44.6479 30.6652 35.6987 23.3135 33.1982 13.2329L37.4847 9.66075C38.686 8.65963 39.375 7.18862 39.375 5.625C39.375 5.41375 39.3633 5.20525 39.3405 5H43.75C49.9533 5 55 10.0468 55 16.25V26.7974Z" fill="#D2B5B6"/>
</svg>
