<svg width="60" height="60" viewBox="0 0 60 60" fill="none" xmlns="http://www.w3.org/2000/svg">
<path d="M35 41.25H25C24.3098 41.25 23.75 41.8096 23.75 42.5C23.75 43.1904 24.3098 43.75 25 43.75H35C35.6903 43.75 36.25 43.1904 36.25 42.5C36.25 41.8096 35.6903 41.25 35 41.25Z" fill="#D2B5B6"/>
<path d="M32.5 45H27.5C26.8098 45 26.25 45.5596 26.25 46.25C26.25 46.9404 26.8098 47.5 27.5 47.5H32.5C33.1902 47.5 33.75 46.9404 33.75 46.25C33.75 45.5596 33.1902 45 32.5 45Z" fill="#D2B5B6"/>
<path d="M50 2.5H46.25V1.25C46.25 0.559625 45.6903 0 45 0C44.3097 0 43.75 0.559625 43.75 1.25V2.5H38.75V1.25C38.75 0.559625 38.1903 0 37.5 0C36.8097 0 36.25 0.559625 36.25 1.25V2.5H31.25V1.25C31.25 0.559625 30.6903 0 30 0C29.3097 0 28.75 0.559625 28.75 1.25V2.5H23.75V1.25C23.75 0.559625 23.1903 0 22.5 0C21.8097 0 21.25 0.559625 21.25 1.25V2.5H16.25V1.25C16.25 0.559625 15.6903 0 15 0C14.3097 0 13.75 0.559625 13.75 1.25V2.5H10C7.93225 2.5 6.25 4.18225 6.25 6.25V50C6.25 51.6297 7.29488 53.0199 8.75 53.5359V56.25C8.75 58.3177 10.4323 60 12.5 60H47.5C49.5677 60 51.25 58.3177 51.25 56.25V53.5359C52.7051 53.0199 53.75 51.6297 53.75 50V6.25C53.75 4.18225 52.0677 2.5 50 2.5ZM48.75 56.25C48.75 56.9393 48.1893 57.5 47.5 57.5H12.5C11.8108 57.5 11.25 56.9393 11.25 56.25V53.75H48.75V56.25ZM51.25 50C51.25 50.6893 50.6893 51.25 50 51.25H10C9.31075 51.25 8.75 50.6893 8.75 50V6.25C8.75 5.56075 9.31075 5 10 5H13.75V7.5C13.75 8.19038 14.3097 8.75 15 8.75C15.6903 8.75 16.25 8.19038 16.25 7.5V5H21.25V7.5C21.25 8.19038 21.8097 8.75 22.5 8.75C23.1903 8.75 23.75 8.19038 23.75 7.5V5H28.75V7.5C28.75 8.19038 29.3097 8.75 30 8.75C30.6903 8.75 31.25 8.19038 31.25 7.5V5H36.25V7.5C36.25 8.19038 36.8097 8.75 37.5 8.75C38.1903 8.75 38.75 8.19038 38.75 7.5V5H43.75V7.5C43.75 8.19038 44.3097 8.75 45 8.75C45.6903 8.75 46.25 8.19038 46.25 7.5V5H50C50.6893 5 51.25 5.56075 51.25 6.25V50Z" fill="#D2B5B6"/>
<path d="M37.5 16.867V16.25C37.5 15.5596 36.9403 15 36.25 15C35.5597 15 35 15.5596 35 16.25V16.7752C33.1553 16.929 31.4457 17.5674 30 18.562C28.5542 17.5674 26.8448 16.9289 25 16.7752V16.25C25 15.5596 24.4403 15 23.75 15C23.0597 15 22.5 15.5596 22.5 16.25V16.867C17.5483 17.6518 13.75 21.9506 13.75 27.1196C13.75 32.8434 18.4066 37.5 24.1305 37.5C26.3069 37.5 28.3295 36.8264 30 35.6771C31.6705 36.8264 33.6931 37.5 35.8695 37.5C41.5934 37.5 46.25 32.8434 46.25 27.1196C46.25 21.9505 42.4517 17.6518 37.5 16.867ZM24.1305 35C19.7851 35 16.25 31.4646 16.25 27.1194C16.25 22.7741 19.7851 19.239 24.1305 19.239C25.56 19.239 26.9015 19.6215 28.0586 20.2896C26.4594 22.1164 25.4891 24.5066 25.4891 27.1195C25.4891 29.7324 26.4594 32.1227 28.0586 33.9494C26.9015 34.6175 25.5599 35 24.1305 35ZM27.9891 27.1196C27.9891 25.1035 28.7501 23.2619 30 21.8668C31.2499 23.2619 32.0109 25.1035 32.0109 27.1196C32.0109 29.1357 31.2499 30.9774 30 32.3725C28.7501 30.9774 27.9891 29.1357 27.9891 27.1196ZM35.8695 35.0003C34.44 35.0003 33.0985 34.6177 31.9414 33.9496C33.5406 32.1229 34.5109 29.7326 34.5109 27.1197C34.5109 24.5069 33.5406 22.1165 31.9414 20.2899C33.0985 19.6217 34.44 19.2393 35.8695 19.2393C40.2149 19.2393 43.75 22.7744 43.75 27.1196C43.75 31.4649 40.2149 35 35.8695 35.0003Z" fill="#D2B5B6"/>
</svg>
