<svg width="40" height="40" viewBox="0 0 40 40" fill="none" xmlns="http://www.w3.org/2000/svg">
<g clip-path="url(#clip0)">
<path d="M33.8628 7.64099H8.36939L2.23242 18.301L21.1161 39.7463L39.9999 18.301L33.8628 7.64099ZM36.5294 16.9822H29.3072L33.1258 11.0703L36.5294 16.9822ZM31.0261 9.99061L27.1498 15.9918L23.2736 9.99061H31.0261ZM24.9925 16.9822H17.2399L21.1161 10.981L24.9925 16.9822ZM18.9587 9.99061L15.0824 15.9917L11.2062 9.99061H18.9587ZM9.10634 11.0704L12.9249 16.9823H5.7029L9.10634 11.0704ZM6.27079 19.3319H14.2121L18.411 33.1189L6.27079 19.3319ZM16.6684 19.3319H25.564L21.1161 33.9361L16.6684 19.3319ZM23.8213 33.1188L28.0202 19.3319H35.9616L23.8213 33.1188Z" fill="#B28357"/>
<path d="M33.4324 34.9758V33.3441H31.0828V34.9758H29.4512V37.3255H31.0828V38.9572H33.4324V37.3255H35.0642V34.9758H33.4324Z" fill="#B28357"/>
<path d="M4.84552 1.88531V0.253662H2.4959V1.88531H0.864258V4.23492H2.4959V5.86672H4.84552V4.23492H6.47731V1.88531H4.84552Z" fill="#B28357"/>
<path d="M1.17485 13.1446C1.8237 13.1446 2.34969 12.6186 2.34969 11.9698C2.34969 11.3209 1.8237 10.7949 1.17485 10.7949C0.525997 10.7949 0 11.3209 0 11.9698C0 12.6186 0.525997 13.1446 1.17485 13.1446Z" fill="#B28357"/>
<path d="M36.7959 31.6904C37.4448 31.6904 37.9708 31.1644 37.9708 30.5155C37.9708 29.8667 37.4448 29.3407 36.7959 29.3407C36.1471 29.3407 35.6211 29.8667 35.6211 30.5155C35.6211 31.1644 36.1471 31.6904 36.7959 31.6904Z" fill="#B28357"/>
<path d="M12.6006 4.23483C13.2495 4.23483 13.7755 3.70883 13.7755 3.05998C13.7755 2.41113 13.2495 1.88513 12.6006 1.88513C11.9518 1.88513 11.4258 2.41113 11.4258 3.05998C11.4258 3.70883 11.9518 4.23483 12.6006 4.23483Z" fill="#B28357"/>
</g>
<defs>
<clipPath id="clip0">
<rect width="40" height="40" fill="white"/>
</clipPath>
</defs>
</svg>
