<svg width="60" height="60" viewBox="0 0 60 60" fill="none" xmlns="http://www.w3.org/2000/svg">
<path d="M59.8521 33.1599C59.6346 32.7536 59.211 32.4998 58.75 32.4998H50C49.8786 32.4998 49.7614 32.5171 49.6505 32.5493C46.0174 32.7356 42.3952 33.4476 38.8412 34.6717L46.1297 19.285C46.313 18.8977 46.2854 18.4436 46.0563 18.0815C45.8272 17.7195 45.4285 17.5 45 17.5H36.25C30.2134 17.5 24.9349 20.8088 22.1331 25.708C21.1016 22.4045 18.0137 20 14.375 20C10.0706 20 6.53736 23.3641 6.26661 27.6013C2.71612 28.1912 0 31.2843 0 34.9998C0 35.6902 0.559624 36.2498 1.25 36.2498H6.38086C7.62498 48.1594 17.625 57.348 29.7012 57.4979L34.4409 59.8678C34.6204 59.9575 34.8111 60 34.9989 60C35.4574 60 35.8989 59.7468 36.1179 59.3088C36.4267 58.6913 36.1764 57.9404 35.5589 57.6318L34.4518 57.0781C42.3453 55.5678 49.0685 50.1108 52.0841 42.4999H53.7499C54.1678 42.4999 54.5581 42.291 54.7899 41.9433L59.7899 34.4433C60.0457 34.0596 60.0695 33.5664 59.8521 33.1599ZM6.24999 33.7498H2.65824C3.11137 31.9953 4.49549 30.6112 6.24999 30.1581V33.7498ZM22.5001 33.7498C22.5001 26.1681 28.6683 19.9998 36.25 19.9998H43.0248L41.2484 23.7498H39.3422C32.1232 23.7498 26.2501 29.6229 26.2501 36.8419C26.2501 37.5323 26.8097 38.0919 27.5001 38.0919C28.1904 38.0919 28.7501 37.5323 28.7501 36.8419C28.7501 31.0014 33.5017 26.25 39.3422 26.25H40.0643L36.0068 34.8159C35.7616 35.3336 35.1332 36.3372 35.1204 36.3558C33.0224 39.4203 29.5529 41.2499 25.8397 41.2499H22.5001V33.7498ZM53.0809 39.9998H51.2178C50.688 39.9998 50.2158 40.3337 50.0393 40.8332C47.047 49.2983 39.0064 54.9885 30.0262 54.9996C30.0093 54.9993 29.9924 54.9993 29.9756 54.9996C18.7058 54.9866 9.39911 46.1764 8.78323 34.9314C8.77898 34.8537 8.76773 34.7779 8.74998 34.7049V28.1249C8.74998 25.0233 11.2734 22.5 14.375 22.5C17.4766 22.5 20 25.0233 20 28.1249V42.4999C20 43.1903 20.5596 43.7499 21.25 43.7499H25.8396C29.6109 43.7499 33.1766 42.2058 35.7455 39.5348C35.7592 39.5218 35.7726 39.5084 35.7857 39.4945C36.2147 39.0453 36.6114 38.5691 36.974 38.0684C41.2488 36.2453 45.6475 35.2244 50.054 35.0332C50.1356 35.0297 50.2151 35.0183 50.2918 34.9999H56.4141L53.0809 39.9998Z" fill="#D2B5B6"/>
<path d="M13.75 25.4998C13.0596 25.4998 12.5 26.0594 12.5 26.7498V26.9998C12.5 27.6902 13.0596 28.2498 13.75 28.2498C14.4404 28.2498 15 27.6902 15 26.9998V26.7498C15 26.0594 14.4405 25.4998 13.75 25.4998Z" fill="#D2B5B6"/>
<path d="M1.99387 10.8394L8.08673 16.2398C8.65373 16.7423 9.37673 17.0191 10.1227 17.0191C10.8687 17.0191 11.5917 16.7423 12.1587 16.2398L14.6045 14.0718L17.2157 16.3865C17.676 16.7945 18.2636 17.0191 18.8707 17.0191C19.4778 17.0191 20.0655 16.7945 20.5256 16.3865L24.6942 12.6913C25.6457 11.8481 26.1913 10.6162 26.1913 9.31186C26.1913 6.70549 24.1642 4.58487 21.6726 4.58487C21.1245 4.58487 20.5881 4.69062 20.0872 4.88799C19.4636 2.09012 17.0686 0 14.2175 0C12.6871 0 11.2241 0.621749 10.1225 1.68925C9.02086 0.621499 7.55798 0 6.02761 0C2.70387 0 0 2.84037 0 6.33174C0 8.07311 0.726624 9.7161 1.99387 10.8394ZM18.8705 8.77061C19.3208 8.77061 19.7362 8.52848 19.9582 8.13661C20.3311 7.47811 20.972 7.08499 21.6723 7.08499C22.7855 7.08499 23.6911 8.08398 23.6911 9.31198C23.6911 9.90161 23.4522 10.4515 23.0357 10.8206L18.8698 14.5122L14.7051 10.8206C14.2886 10.4515 14.0497 9.90148 14.0497 9.31198C14.0497 8.08398 14.9553 7.08499 16.0686 7.08499C16.7691 7.08499 17.4098 7.47811 17.7827 8.13661C18.0048 8.52836 18.4203 8.77061 18.8705 8.77061ZM6.02761 2.49999C7.26198 2.49999 8.38623 3.18399 9.03498 4.32962C9.25686 4.72149 9.67235 4.96361 10.1227 4.96361C10.5731 4.96361 10.9886 4.72149 11.2105 4.32949C11.8591 3.18399 12.9833 2.49999 14.2177 2.49999C15.6673 2.49999 16.9156 3.45487 17.4573 4.81599C17.0138 4.66512 16.5458 4.58499 16.0687 4.58499C13.577 4.58499 11.55 6.70549 11.55 9.31198C11.55 10.4671 11.9778 11.5651 12.7363 12.387L10.5002 14.3691C10.2819 14.5627 9.96335 14.5626 9.74498 14.3691L3.65212 8.96848C2.91999 8.31948 2.49999 7.35836 2.49999 6.33174C2.49999 4.21887 4.08249 2.49999 6.02761 2.49999Z" fill="#D2B5B6"/>
</svg>
