<svg width="64" height="64" viewBox="0 0 64 64" fill="none" xmlns="http://www.w3.org/2000/svg">
<path d="M48.1352 30.2203C47.4209 29.2256 47.119 27.9776 47.3346 26.7206L47.7643 24.2151L45.9442 22.4409C45.9165 22.414 45.8914 22.3852 45.8646 22.3577C31.9359 33.9772 30.3516 52.6028 30.5033 61.7466C30.509 62.0797 30.7648 62.3551 31.0967 62.386C31.4284 62.4169 31.7303 62.1932 31.7974 61.8667C35.6396 43.1543 42.9059 34.3101 48.1352 30.2203Z" fill="#B28357"/>
<path d="M20.8193 17.725L16.6161 18.6659L15.0082 22.6619C14.979 22.7345 14.9461 22.8047 14.9136 22.8752C21.4738 32.1559 24.8904 51.1041 26.2562 60.6488C26.2883 60.8727 26.4878 61.0336 26.7134 61.0184C26.939 61.0032 27.1148 60.8166 27.1166 60.5906C27.2828 40.0035 24.1334 26.2674 20.9549 17.6899C20.9096 17.7012 20.8652 17.7148 20.8193 17.725Z" fill="#B28357"/>
<path d="M49.5657 51.0588L48.9701 50.2394C48.488 49.5764 48.2007 48.8215 48.1084 48.0461C43.5234 49.2689 36.6263 52.3979 34.4226 60.312C34.3035 60.7394 34.5108 61.1903 34.9125 61.3784C35.3145 61.5664 35.7936 61.4368 36.0454 61.0715C38.4501 57.5841 42.7726 52.9789 49.219 52.0439C49.2225 52.0338 49.225 52.0236 49.2286 52.0134L49.5657 51.0588Z" fill="#B28357"/>
<path d="M16.7789 43.0669C16.3597 43.6534 15.802 44.1462 15.1311 44.4952L14.2327 44.9624L14.1082 45.9673C14.0707 46.2701 14.0031 46.563 13.9116 46.8451C17.7613 51.1934 20.5982 57.1665 22.3125 61.4553C22.4274 61.7428 22.7412 61.8969 23.0393 61.8131C23.3372 61.729 23.5243 61.434 23.4723 61.1286C21.9544 52.1652 19.2993 46.5517 16.7789 43.0669Z" fill="#B28357"/>
<path d="M52.2445 22.7595L51.4441 27.4256C51.4122 27.6112 51.4885 27.7988 51.6409 27.9095C51.727 27.9721 51.8292 28.004 51.9318 28.004C52.0106 28.004 52.0896 27.9852 52.1619 27.947L56.3525 25.744L60.5428 27.947C60.6152 27.9852 60.6942 28.004 60.773 28.004C60.8756 28.004 60.9777 27.9721 61.0638 27.9095C61.2162 27.7988 61.2925 27.6112 61.2606 27.4256L60.4603 22.7595L63.8505 19.4548C63.9853 19.3233 64.0339 19.1266 63.9758 18.9476C63.9176 18.7685 63.7627 18.638 63.5763 18.6109L58.8912 17.9302L56.7959 13.6848C56.7125 13.5159 56.5405 13.4089 56.3523 13.4089C56.164 13.4089 55.992 13.5159 55.9086 13.6848L53.8133 17.9302L49.1283 18.6109C48.9419 18.638 48.787 18.7685 48.7288 18.9476C48.6706 19.1266 48.7192 19.3233 48.8539 19.4548L52.2445 22.7595Z" fill="#B28357"/>
<path d="M19.9093 13.656C20.0932 13.6149 20.2377 13.4729 20.2821 13.2899C20.3265 13.1068 20.2633 12.9146 20.1188 12.7937L15.1339 8.62295L15.7438 2.15219C15.7615 1.96476 15.671 1.78338 15.5109 1.68456C15.4312 1.63556 15.3412 1.61096 15.2513 1.61096C15.16 1.61096 15.0689 1.63619 14.9886 1.68643L9.48148 5.13854L3.51567 2.55915C3.4525 2.53184 3.38578 2.5185 3.31949 2.5185C3.20419 2.5185 3.09015 2.55874 2.99904 2.63608C2.8554 2.75805 2.79369 2.9509 2.83955 3.13353L4.42091 9.43771L0.124031 14.3142C-0.000434774 14.4555 -0.0340009 14.6553 0.0377181 14.8294C0.109437 15.0036 0.273723 15.1221 0.461569 15.1348L6.94588 15.5791L10.256 21.1725C10.3454 21.3237 10.5079 21.4154 10.6817 21.4154C10.6942 21.4154 10.7067 21.415 10.7195 21.414C10.9073 21.3998 11.0706 21.2801 11.141 21.1054L13.5672 15.0758L19.9093 13.656Z" fill="#B28357"/>
<path d="M63.0151 49.1005C62.9879 48.9141 62.8572 48.7594 62.6781 48.7013L59.6301 47.712L58.7171 44.6402C58.6635 44.4596 58.512 44.3252 58.3264 44.2935C58.2985 44.2887 58.2706 44.2864 58.2428 44.2864C58.086 44.2864 57.9366 44.361 57.8425 44.4905L55.9597 47.0838L52.7561 47.0029C52.752 47.0029 52.7478 47.0027 52.7436 47.0027C52.5601 47.0027 52.3913 47.1045 52.3058 47.2673C52.2182 47.4341 52.2328 47.6361 52.3435 47.7883L54.228 50.3804L53.161 53.4024C53.0982 53.58 53.1418 53.7777 53.2734 53.9126C53.368 54.0095 53.4962 54.0618 53.6276 54.0618C53.6787 54.0618 53.7304 54.0539 53.7806 54.0377L56.8283 53.0463L59.3726 54.9948C59.4606 55.0622 59.5667 55.0968 59.6734 55.0968C59.7481 55.0968 59.8229 55.0799 59.8926 55.0457C60.0614 54.9623 60.1684 54.7903 60.1682 54.6018L60.1671 51.3972L62.8066 49.5796C62.9613 49.4727 63.0422 49.2869 63.0151 49.1005Z" fill="#B28357"/>
<path d="M13.2071 40.7959C13.3741 40.709 13.4775 40.5349 13.4736 40.3464C13.4696 40.1582 13.3591 39.9885 13.1884 39.9086L10.2852 38.5514L9.75753 35.3905C9.72646 35.2048 9.59282 35.0528 9.41248 34.9984C9.36536 34.9842 9.3172 34.9773 9.26967 34.9773C9.13478 34.9773 9.00302 35.0325 8.90816 35.1343L6.72031 37.476L3.55092 37.0011C3.52632 36.9973 3.50193 36.9956 3.47753 36.9956C3.317 36.9956 3.1646 37.0738 3.0714 37.2081C2.96382 37.3628 2.95361 37.565 3.04472 37.7299L4.59564 40.5345L3.1646 43.402C3.08058 43.5704 3.09934 43.7721 3.21317 43.9222C3.30783 44.0468 3.45418 44.1177 3.60721 44.1177C3.63848 44.1177 3.66996 44.1148 3.70124 44.1088L6.8477 43.5004L9.1327 45.7475C9.22672 45.84 9.35202 45.8894 9.47982 45.8894C9.53445 45.8894 9.58928 45.8805 9.64244 45.8619C9.82028 45.8 9.94746 45.6424 9.9706 45.4556L10.3644 42.2751L13.2071 40.7959Z" fill="#B28357"/>
<path d="M34.2384 13.9738L33.8537 13.0371L32.8638 12.823C32.1247 12.6631 31.4572 12.3345 30.8984 11.8794C29.3033 16.1221 28.1864 22.6846 29.361 32.5553C29.4242 33.0865 30.1992 33.0803 30.2496 32.5478C30.6839 27.969 31.803 20.5653 34.6603 14.7703C34.4971 14.5219 34.3545 14.2565 34.2384 13.9738Z" fill="#B28357"/>
<path d="M35.6495 2.6244L35.9731 5.81276L33.5301 7.88678C33.3864 8.00874 33.3245 8.20138 33.3704 8.38422C33.416 8.56686 33.5615 8.70779 33.7456 8.74761L36.8779 9.42519L38.0955 12.3896C38.167 12.5639 38.3313 12.6824 38.5191 12.6953C38.5306 12.6961 38.5418 12.6965 38.5531 12.6965C38.7282 12.6965 38.8917 12.6035 38.9807 12.4507L40.5931 9.68121L43.7888 9.43937C43.9767 9.42519 44.1401 9.30552 44.2104 9.13081C44.2806 8.9561 44.2458 8.75658 44.1203 8.61627L41.9846 6.22702L42.742 3.11309C42.7866 2.93004 42.7232 2.73761 42.5788 2.61668C42.4881 2.5408 42.3751 2.50118 42.261 2.50118C42.1935 2.50118 42.1255 2.51494 42.0615 2.5433L39.1292 3.83611L36.4015 2.15343C36.3219 2.10423 36.2318 2.07983 36.1418 2.07983C36.0507 2.07983 35.9593 2.10506 35.8791 2.15531C35.7196 2.25517 35.6306 2.43697 35.6495 2.6244Z" fill="#B28357"/>
</svg>
