<svg width="60" height="60" viewBox="0 0 60 60" fill="none" xmlns="http://www.w3.org/2000/svg">
<path d="M23.2612 19.9986C23.8812 20.2942 24.6235 20.034 24.9235 19.4169C24.9628 19.3674 25.1538 19.2429 25.4693 19.2429C25.7848 19.2429 25.9759 19.3675 26.015 19.417C26.2309 19.8612 26.676 20.1206 27.14 20.1206C27.3204 20.1206 27.5037 20.0814 27.6773 19.9986C28.3004 19.7014 28.5647 18.9552 28.2674 18.3322C27.8069 17.3667 26.7085 16.7429 25.4692 16.7429C24.2298 16.7429 23.1314 17.3667 22.6709 18.3322C22.3737 18.9554 22.6379 19.7014 23.2612 19.9986Z" fill="#D2B5B6"/>
<path d="M31.1147 19.9986C31.2883 20.0814 31.4715 20.1207 31.6518 20.1206C32.1158 20.1206 32.5611 19.8612 32.777 19.4169C32.8162 19.3674 33.0072 19.2429 33.3226 19.2429C33.6381 19.2429 33.8291 19.3674 33.8683 19.4169C34.1682 20.034 34.9105 20.2944 35.5307 19.9986C36.1539 19.7014 36.4181 18.9552 36.1208 18.3322C35.6603 17.3667 34.562 16.7429 33.3226 16.7429C32.0831 16.7429 30.9847 17.3667 30.5243 18.3324C30.2272 18.9556 30.4915 19.7015 31.1147 19.9986Z" fill="#D2B5B6"/>
<path d="M31.25 46.25V46C31.25 45.3098 30.6904 44.75 30 44.75C29.3096 44.75 28.75 45.3098 28.75 46V46.25C28.75 46.9402 29.3096 47.5 30 47.5C30.6904 47.5 31.25 46.9402 31.25 46.25Z" fill="#D2B5B6"/>
<path d="M44.8279 39.7755C43.6411 38.3294 41.8903 37.5 40.0239 37.5H37.4913C37.4723 37.4995 37.4533 37.4995 37.4343 37.5H22.5658C22.5468 37.4995 22.5279 37.4995 22.5088 37.5H19.9761C18.1099 37.5 16.3588 38.3294 15.172 39.7755C13.9779 41.2308 13.504 43.1256 13.8719 44.9745C13.8773 45.002 13.8836 45.0293 13.891 45.0564L17.6758 59.0758C17.823 59.6211 18.3178 60 18.8826 60H41.1174C41.6824 60 42.177 59.621 42.3243 59.0758L46.109 45.0564C46.1163 45.0293 46.1228 45.0021 46.1281 44.9745C46.496 43.1256 46.0221 41.2306 44.8279 39.7755ZM35.5908 40L30.4086 52.5H29.5913L24.4091 40H35.5908ZM43.6835 44.4483L40.16 57.5H19.84L16.3164 44.4483C16.1091 43.3485 16.3955 42.2256 17.1046 41.3615C17.8148 40.4963 18.8613 40 19.9761 40H21.7028L27.6015 54.2286C27.7951 54.6955 28.2508 55 28.7563 55H31.2436C31.7491 55 32.2048 54.6955 32.3984 54.2286L34.1515 50H37.4623C38.1526 50 38.7123 49.4403 38.7123 48.75C38.7123 48.0598 38.1526 47.5 37.4623 47.5H35.188L38.2973 40H40.0239C41.1388 40 42.1854 40.4963 42.8954 41.3614C43.6045 42.2256 43.8908 43.3486 43.6835 44.4483Z" fill="#D2B5B6"/>
<path d="M30 43.5C30.6904 43.5 31.25 42.9402 31.25 42.25V42C31.25 41.3098 30.6904 40.75 30 40.75C29.3096 40.75 28.75 41.3098 28.75 42V42.25C28.75 42.9402 29.3096 43.5 30 43.5Z" fill="#D2B5B6"/>
<path d="M18.2011 23.7361C18.6002 29.7526 23.6149 34.4655 29.6178 34.4655C35.6207 34.4655 40.6354 29.7526 41.0344 23.7361L41.4184 17.9466C41.4616 17.6167 41.4833 17.2879 41.4833 16.9685C41.4833 16.9616 41.4832 16.955 41.4832 16.9482C41.4837 16.9201 41.4832 16.8923 41.4817 16.8644C41.4258 12.781 38.0881 9.4685 34.0147 9.4685H33.7309C31.1969 9.4685 28.8854 10.7511 27.7157 12.7341C25.3114 12.6119 22.2801 12.1832 20.0123 11.7419C20.469 6.69487 24.6307 2.63325 29.6809 2.50413C29.7869 2.50138 29.8933 2.5 29.9999 2.5C33.6308 2.5 38.9383 3.99238 41.4358 6.19763L40.2244 8.81938C39.9348 9.446 40.2081 10.1889 40.8348 10.4784C41.4616 10.7674 42.2043 10.4946 42.4938 9.86788L44.0692 6.4585C44.2753 6.0125 44.2009 5.487 43.8792 5.11562C41.1409 1.95575 34.5428 0 29.9999 0C29.8714 0 29.7434 0.001625 29.6163 0.004875C26.3401 0.08875 23.2767 1.45588 20.9907 3.8545C18.7208 6.23612 17.4707 9.365 17.4707 12.6645C17.4707 12.6921 17.4788 12.8547 17.4828 12.8921L18.2011 23.7361ZM28.2241 15.2571C28.2703 15.2586 28.3166 15.2575 28.3628 15.2537L28.5874 15.2355C29.0597 15.1973 29.4697 14.8952 29.6464 14.4556C30.2441 12.9681 31.8854 11.9688 33.7308 11.9688H34.0146C36.7368 11.9688 38.9652 14.1975 38.9821 16.9371C38.9822 16.9475 38.9824 16.9579 38.9827 16.9683C38.9828 16.9739 38.9829 16.9794 38.9831 16.985C38.9823 17.2014 38.9662 17.4264 38.9352 17.6542C38.9313 17.6829 38.9284 17.7115 38.9266 17.7401L38.5398 23.5709C38.2277 28.2782 34.3086 31.9657 29.6178 31.9657C24.9272 31.9657 21.0081 28.2782 20.6958 23.571L20.0817 14.299C22.5866 14.7597 25.7951 15.1832 28.2241 15.2571Z" fill="#D2B5B6"/>
</svg>
