<svg width="40" height="40" viewBox="0 0 40 40" fill="none" xmlns="http://www.w3.org/2000/svg">
<path d="M15.9043 9.13732C15.708 8.91232 13.9167 6.93927 11.5189 6.93927C9.12109 6.93927 7.32984 8.91232 7.13344 9.13732L6.46094 9.90786L7.13344 10.6784C7.32984 10.9034 9.12109 12.8765 11.5189 12.8765C13.9167 12.8765 15.708 10.9034 15.9043 10.6784L16.5768 9.90786L15.9043 9.13732ZM11.5189 10.5327C10.9079 10.5327 10.2936 10.239 9.80351 9.90794C10.2939 9.57654 10.908 9.28302 11.5189 9.28302C12.1298 9.28302 12.744 9.57661 13.2344 9.9081C12.7455 10.2379 12.13 10.5327 11.5189 10.5327Z" fill="#B28357"/>
<path d="M32.8701 9.13732C32.6737 8.91232 30.8825 6.93927 28.4846 6.93927C26.0869 6.93927 24.2956 8.91232 24.0993 9.13732L23.4268 9.90786L24.0993 10.6784C24.2956 10.9034 26.0868 12.8765 28.4846 12.8765C30.8825 12.8765 32.6737 10.9034 32.8701 10.6784L33.5425 9.90786L32.8701 9.13732ZM28.4846 10.5327C27.8738 10.5327 27.2596 10.2391 26.7691 9.90763C27.2581 9.57779 27.8736 9.28302 28.4846 9.28302C29.0958 9.28302 29.7103 9.57685 30.2004 9.90802C29.7114 10.2378 29.0958 10.5327 28.4846 10.5327Z" fill="#B28357"/>
<path d="M39.9994 0.113184L38.4341 0.671074C38.3991 0.683574 34.8983 1.91795 31.0516 2.13154C29.9959 2.19014 29.0309 2.19443 28.0977 2.19857C25.005 2.21232 22.2808 2.22436 20 4.57998C17.7192 2.22436 14.995 2.21225 11.9023 2.19857C10.9691 2.19436 10.0041 2.19014 8.94844 2.13154C5.10172 1.91787 1.60086 0.683574 1.56656 0.67123L0 0.11084V7.21092V10.3601V39.8893H2.34375V16.1095C3.84109 17.6445 5.93055 18.5994 8.23922 18.5994H13.7145C15.1716 18.5994 16.6141 18.2236 17.8861 17.513C18.6755 17.0719 19.3894 16.5073 20 15.8458C20.6106 16.5073 21.3245 17.0719 22.1139 17.513C23.3859 18.2237 24.8285 18.5994 26.2855 18.5994H31.7608C36.3039 18.5994 40 14.9033 40 10.3601L39.9994 0.113184ZM37.6562 10.3601C37.6562 13.6109 35.0115 16.2556 31.7608 16.2556H26.2855C24.1457 16.2556 22.1197 15.1236 20.998 13.3013L20 11.6798L19.002 13.3012C17.8804 15.1235 15.8542 16.2555 13.7145 16.2555H8.23922C4.98844 16.2555 2.34375 13.6108 2.34375 10.3601V7.21084V3.36225C3.83602 3.77678 6.2307 4.32795 8.81852 4.47162C9.93391 4.53357 10.9741 4.53826 11.8919 4.54225C15.3616 4.55764 17.2728 4.56623 19.0391 7.0967L20 8.47357L20.961 7.0967C22.7271 4.56615 24.6384 4.55764 28.1081 4.54225C29.0259 4.53818 30.0662 4.53357 31.1816 4.47162C33.7693 4.32795 36.164 3.7767 37.6562 3.36225V10.3601Z" fill="#B28357"/>
</svg>
