<svg width="64" height="64" viewBox="0 0 64 64" fill="none" xmlns="http://www.w3.org/2000/svg">
<g clip-path="url(#clip0)">
<path d="M29.8323 57.0068L26.0824 42.0076C25.854 41.0953 25.411 40.2838 24.8164 39.6197C25.7071 38.6243 26.2501 37.3113 26.2501 35.8733C26.2501 32.7719 23.727 30.2488 20.6256 30.2488H16.6028L14.4078 25.859C14.3997 25.8429 14.3907 25.8275 14.3826 25.8114C16.958 24.6228 18.7507 22.0174 18.7507 18.9996C18.7507 14.8645 15.3865 11.5002 11.2513 11.5002C7.1162 11.5002 3.75195 14.8645 3.75195 18.9996C3.75195 20.9603 4.5092 22.7468 5.74533 24.0844C4.8757 24.8193 4.21832 25.8223 3.91957 27.0093L0.169815 42.0079C-0.25306 43.6993 0.12019 45.4581 1.19369 46.8333C1.77407 47.5767 2.5137 48.1468 3.34557 48.5154L0.0580651 61.6665C-0.19306 62.671 0.417691 63.689 1.42232 63.94C2.42682 64.1911 3.44482 63.5802 3.69595 62.5758L5.2157 56.4966H18.1087L18.9186 59.7371C19.6791 62.773 22.7432 64.582 25.7396 63.8285C28.7475 63.0772 30.5834 60.0175 29.8323 57.0068ZM11.2512 15.2499C13.3188 15.2499 15.001 16.932 15.001 18.9995C15.001 21.067 13.3188 22.7493 11.2512 22.7493C9.18358 22.7493 7.50146 21.0671 7.50146 18.9995C7.50146 16.9319 9.18358 15.2499 11.2512 15.2499ZM6.15295 52.7468L7.09033 48.9972H16.234L17.1712 52.7468H6.15295ZM24.828 60.1912C23.8434 60.4391 22.8127 59.851 22.5561 58.8267L19.5169 46.6677C19.3082 45.8331 18.5584 45.2474 17.698 45.2474H5.6267C5.04595 45.2474 4.50745 44.9844 4.14945 44.5258C3.79132 44.0669 3.6667 43.4807 3.80757 42.9172L7.55671 27.9212C7.98108 26.2345 10.2801 25.9888 11.0538 27.5354C11.0545 27.5366 11.0552 27.5376 11.0558 27.5389L13.7672 32.9617C14.0848 33.5969 14.734 33.998 15.4442 33.998H20.6257C21.6595 33.998 22.5006 34.839 22.5006 35.8729C22.5006 36.9068 21.6596 37.7478 20.6257 37.7478C19.6985 37.7478 13.9393 37.7478 13.1263 37.7478C12.4112 37.7478 11.7686 37.3507 11.4491 36.7117C10.986 35.7857 9.85971 35.4102 8.93371 35.8733C8.00758 36.3364 7.63221 37.4625 8.09533 38.3887C9.05408 40.3064 10.982 41.4977 13.1265 41.4977C13.9396 41.4977 19.7001 41.4977 20.6259 41.4977C21.4877 41.4977 22.2359 42.0817 22.445 42.9173L26.1946 57.9153C26.4449 58.9196 25.8332 59.9402 24.828 60.1912Z" fill="#B28357"/>
<path d="M60.654 48.5152C63.0728 47.4433 64.514 44.7462 63.8295 42.0078L60.0791 27.0063C59.7807 25.8204 59.1237 24.8182 58.2545 24.0838C59.4903 22.7463 60.2475 20.9599 60.2475 18.9994C60.2475 14.8643 56.8832 11.5 52.7481 11.5C48.6129 11.5 45.2487 14.8643 45.2487 18.9994C45.2487 22.017 47.0413 24.6224 49.6167 25.8112C49.6086 25.827 49.5997 25.8422 49.5917 25.858L47.3964 30.2484H43.3738C40.2724 30.2484 37.7493 32.7715 37.7493 35.8729C37.7493 37.3108 38.2923 38.6237 39.1832 39.6193C38.5883 40.2837 38.1454 41.0952 37.917 42.0077L34.1672 57.0072C33.4162 60.017 35.252 63.0769 38.2569 63.8274C41.2335 64.5761 44.3152 62.7926 45.0812 59.7357L45.8908 56.4962H58.7838L60.3036 62.5755C60.5548 63.5802 61.5728 64.1907 62.5771 63.9396C63.5816 63.6885 64.1925 62.6706 63.9413 61.666L60.654 48.5152ZM48.9983 18.9995C48.9983 16.9319 50.6804 15.2499 52.7479 15.2499C54.8156 15.2499 56.4977 16.932 56.4977 18.9995C56.4977 21.067 54.8156 22.7493 52.7479 22.7493C50.6804 22.7493 48.9983 21.0671 48.9983 18.9995ZM46.8279 52.7468L47.7652 48.9972H56.9088L57.8462 52.7468H46.8279ZM58.3726 45.2474H46.3014C45.4412 45.2474 44.6912 45.8331 44.4826 46.6677L41.4435 58.8257C41.1857 59.8546 40.1534 60.4382 39.1684 60.1905C38.1662 59.9401 37.5545 58.9196 37.8049 57.9161L41.5545 42.9178C41.7638 42.0818 42.5119 41.4977 43.3738 41.4977C44.3011 41.4977 50.0602 41.4977 50.8732 41.4977C53.0177 41.4977 54.9454 40.3064 55.9043 38.3887C56.3674 37.4626 55.992 36.3363 55.066 35.8733C54.1399 35.4103 53.0136 35.7857 52.5506 36.7117C52.2309 37.3509 51.5883 37.7478 50.8733 37.7478C50.0602 37.7478 44.2997 37.7478 43.3739 37.7478C42.3402 37.7478 41.499 36.9068 41.499 35.8729C41.499 34.839 42.34 33.998 43.3739 33.998H48.5554C49.2657 33.998 49.9147 33.5968 50.2324 32.9617C50.3116 32.8033 52.8987 27.6287 52.9458 27.5353C53.7309 25.9658 56.0241 26.2559 56.4423 27.9183L60.1921 42.9171C60.4871 44.0991 59.5922 45.2474 58.3726 45.2474Z" fill="#B28357"/>
<path d="M39.6243 0.000976562H24.3755C21.2741 0.000976562 18.751 2.52411 18.751 5.62549V9.62512C18.751 12.7265 21.2741 15.2496 24.3755 15.2496H31.2324L38.3095 22.2108C38.8481 22.7405 39.6519 22.8953 40.3489 22.6033C41.0458 22.3113 41.4991 21.6296 41.4991 20.8741V14.9284C43.6816 14.1546 45.2489 12.0695 45.2489 9.62499V5.62549C45.2489 2.52411 42.7256 0.000976562 39.6243 0.000976562ZM41.4991 9.62524C41.4991 10.659 40.6581 11.5001 39.6243 11.5001C38.5888 11.5001 37.7494 12.3394 37.7494 13.375V16.4005L33.3146 12.0384C32.9639 11.6934 32.4919 11.5001 31.9999 11.5001H24.3755C23.3417 11.5001 22.5006 10.6591 22.5006 9.62524V5.62549C22.5006 4.59174 23.3416 3.75061 24.3755 3.75061H39.6243C40.658 3.75061 41.4991 4.59161 41.4991 5.62549V9.62524Z" fill="#B28357"/>
</g>
<defs>
<clipPath id="clip0">
<rect width="64" height="64" fill="white"/>
</clipPath>
</defs>
</svg>
