<svg width="40" height="40" viewBox="0 0 40 40" fill="none" xmlns="http://www.w3.org/2000/svg">
<g clip-path="url(#clip0)">
<path d="M21.8594 12.0726H6.34375V14.4164H21.8594V12.0726Z" fill="#B28357"/>
<path d="M21.8594 18.4687H6.34375V20.8124H21.8594V18.4687Z" fill="#B28357"/>
<path d="M21.8594 24.8641H6.34375V27.2078H21.8594V24.8641Z" fill="#B28357"/>
<path d="M21.8594 31.2601H6.34375V33.6039H21.8594V31.2601Z" fill="#B28357"/>
<path d="M23.0309 1.67914V0H20.6872V1.67914H17.8591V0H15.5154V1.67914H12.6873V0H10.3436V1.67914H7.51555V0H5.1718V1.67914H0V40H28.2027V1.67914H23.0309ZM25.8589 37.6562H2.34375V4.02289H5.1718V6.84828H7.51555V4.02289H10.3435V6.84828H12.6873V4.02289H15.5153V6.84828H17.8591V4.02289H20.6871V6.84828H23.0309V4.02289H25.8589V37.6562Z" fill="#B28357"/>
<path d="M35.9361 0C33.6952 0 31.8721 1.82313 31.8721 4.06406V28.3194L33.3978 37.5832H34.7642V40H37.1079V37.5831H38.4743L40.0002 28.3193V4.06406C40.0002 1.82313 38.1771 0 35.9361 0ZM36.4851 35.2394H35.3871L34.4246 29.3953H37.4476L36.4851 35.2394ZM37.6564 27.0516H34.2159V6.515H37.6564V27.0516ZM37.6564 4.17125H34.2159V4.06406C34.2159 3.11547 34.9876 2.34375 35.9361 2.34375C36.8847 2.34375 37.6564 3.11547 37.6564 4.06406V4.17125Z" fill="#B28357"/>
</g>
<defs>
<clipPath id="clip0">
<rect width="40" height="40" fill="white"/>
</clipPath>
</defs>
</svg>
