<svg width="40" height="40" viewBox="0 0 40 40" fill="none" xmlns="http://www.w3.org/2000/svg">
<path d="M38.4276 27.4295L39.9998 23.2416H26.3729L24.5106 20.7268L25.4517 19.456C26.7208 19.6622 28.02 19.5555 29.2528 19.1387C30.7828 18.6216 32.101 17.6599 33.0653 16.358C35.6576 12.8576 34.9188 7.90074 31.4183 5.3084C27.9179 2.71622 22.961 3.45489 20.3687 6.95551C20.2375 7.13262 20.1151 7.31449 20 7.50004C19.8849 7.31449 19.7624 7.13262 19.6312 6.95551C17.039 3.45497 12.0822 2.71622 8.58162 5.3084C5.08124 7.90082 4.34241 12.8576 6.93475 16.3581C7.89897 17.66 9.21725 18.6216 10.7472 19.1387C11.9799 19.5554 13.2791 19.662 14.5483 19.456L15.4894 20.7268L13.6271 23.2416H0L1.57226 27.4295L0 31.6173H9.69912C9.94123 33.1326 10.7512 34.5582 12.0788 35.5414L13.0221 36.24L16.4455 31.6174H40L38.4276 27.4295ZM14.0993 17.1345C12.6364 17.3527 11.1757 16.9878 9.98686 16.1074C7.53272 14.2899 7.01475 10.8147 8.83217 8.36066C9.91725 6.89551 11.593 6.12051 13.2899 6.12051C14.4351 6.12051 15.59 6.47379 16.579 7.20606C18.0247 8.27676 18.7978 9.92277 18.8179 11.5964C18.8177 11.6325 18.8175 11.6686 18.8178 11.7046C18.8095 12.8365 18.4572 13.9757 17.7336 14.9528C16.8532 16.1417 15.5625 16.9164 14.0993 17.1345ZM17.088 18.5682L16.95 18.7545L16.89 18.6735C16.9565 18.6393 17.0225 18.6042 17.088 18.5682ZM10.8121 27.0427C10.3042 27.7284 9.9635 28.4871 9.78084 29.2697H3.38913L4.08007 27.4295L3.38913 25.5892H11.8884L10.8121 27.0427ZM12.6454 32.804C11.7475 31.5256 11.7193 29.7625 12.6987 28.4398L22.4388 15.2875L22.0132 14.6089C21.5157 13.8158 21.2364 12.9391 21.1721 12.0535C21.1827 11.8409 21.1857 11.6275 21.1793 11.413C21.1778 11.3635 21.1744 11.3143 21.172 11.2648C21.2454 10.237 21.6077 9.22707 22.2553 8.35246C23.3431 6.88364 25.023 6.10684 26.724 6.10684C27.8721 6.10684 29.0298 6.46082 30.0211 7.19496C32.4813 9.01683 33.0006 12.5006 31.1787 14.9607C29.8084 16.8111 27.4869 17.6181 25.2649 17.0167L24.4917 16.8075L12.6454 32.804ZM23.4516 23.2416H22.6482L23.05 22.6992L23.4516 23.2416ZM36.6108 29.2697H18.1841L20.9096 25.5894H36.6109L35.9199 27.4296L36.6108 29.2697Z" fill="#B28357"/>
<path d="M16.4374 11.1865C16.3117 10.343 15.8657 9.59938 15.1815 9.09267C14.4817 8.57447 13.7656 8.46564 13.2879 8.46564C12.2632 8.46564 11.3267 8.93665 10.7186 9.75774C9.67167 11.1715 9.96996 13.1736 11.3838 14.2208C12.0832 14.7387 12.7996 14.8476 13.2775 14.8477H13.2779C14.3022 14.8477 15.2385 14.3766 15.8466 13.5555C16.3533 12.8714 16.5632 12.0301 16.4374 11.1865ZM13.96 12.1583C13.7968 12.3787 13.5546 12.5 13.278 12.5C13.0968 12.4999 12.9296 12.4441 12.781 12.3341C12.4075 12.0574 12.3285 11.5284 12.6052 11.1549C12.7683 10.9347 13.0108 10.8134 13.2878 10.8134C13.4685 10.8134 13.6355 10.8692 13.7842 10.9794C13.9645 11.1128 14.0821 11.3093 14.1153 11.5326C14.1486 11.7559 14.0935 11.9781 13.96 12.1583Z" fill="#B28357"/>
<path d="M29.872 11.1864C29.7463 10.343 29.3003 9.59938 28.6161 9.09259C27.9163 8.57439 27.2001 8.46564 26.7225 8.46564C25.6977 8.46564 24.7612 8.93665 24.1532 9.75774C23.1062 11.1715 23.4045 13.1736 24.8184 14.2208C25.518 14.7387 26.2343 14.8476 26.7121 14.8477H26.7126C27.7369 14.8477 28.6732 14.3766 29.2812 13.5555C29.7879 12.8713 29.9977 12.03 29.872 11.1864ZM27.3946 12.1582C27.2315 12.3786 26.9892 12.4999 26.7126 12.4999C26.5314 12.4998 26.3642 12.444 26.2155 12.334C25.842 12.0573 25.7632 11.5284 26.0398 11.1548C26.203 10.9346 26.4455 10.8133 26.7225 10.8133C26.9032 10.8133 27.0702 10.8691 27.2189 10.9793C27.3991 11.1127 27.5167 11.3092 27.55 11.5325C27.5833 11.7558 27.5281 11.9779 27.3946 12.1582Z" fill="#B28357"/>
</svg>
