<svg width="64" height="64" viewBox="0 0 64 64" fill="none" xmlns="http://www.w3.org/2000/svg">
<g clip-path="url(#clip0)">
<path d="M32.0065 7.72163L18.2449 2.02113C17.7855 1.83101 17.2693 1.83101 16.8099 2.02113C16.3505 2.21138 15.9854 2.57638 15.7951 3.03588L10.2034 16.5356L0.431764 28.3174C0.0373887 28.793 -0.0973613 29.4323 0.0712637 30.0265L5.37576 48.7086C5.53226 49.26 5.93239 49.7095 6.46189 49.9289C6.69226 50.0244 6.93614 50.0716 7.17939 50.0716C7.49514 50.0716 7.80989 49.9919 8.09276 49.8343L25.0538 40.375C25.5933 40.0741 25.95 39.5268 26.0074 38.9116L27.4294 23.6709L33.0213 10.1715C33.4175 9.21488 32.9633 8.11801 32.0065 7.72163ZM22.3651 37.5805L10.9751 43.9326L15.8286 32.2151C16.2249 31.2585 15.7706 30.1615 14.8139 29.7653C13.8573 29.369 12.7603 29.8233 12.364 30.78L7.51039 42.4978L3.94826 29.9516L12.3875 19.7765L17.9904 22.0971L23.5933 24.4179L22.3651 37.5805ZM24.5739 20.765L17.2456 17.7298L14.2769 16.5001L18.542 6.20326L28.839 10.4685L24.5739 20.765Z" fill="#B28357"/>
<path d="M62.125 34.2715H42.0418C37.6856 34.2715 34.1416 37.8155 34.1416 42.1716C34.1416 46.5276 37.6856 50.0715 42.0418 50.0715C44.33 50.0715 46.1916 51.9331 46.1916 54.2214C46.1916 56.5099 44.33 58.3715 42.0418 58.3715H1.875C0.8395 58.3715 0 59.211 0 60.2465C0 61.282 0.8395 62.1215 1.875 62.1215H42.0418C46.3978 62.1215 49.9416 58.5775 49.9416 54.2214C49.9416 49.8654 46.3978 46.3215 42.0418 46.3215C39.7534 46.3215 37.8916 44.4597 37.8916 42.1716C37.8916 39.8831 39.7534 38.0215 42.0418 38.0215H62.125C63.1605 38.0215 64 37.182 64 36.1465C64 35.111 63.1605 34.2715 62.125 34.2715Z" fill="#B28357"/>
</g>
<defs>
<clipPath id="clip0">
<rect width="64" height="64" fill="white"/>
</clipPath>
</defs>
</svg>
