<?xml version="1.0" encoding="utf-8"?>
<!DOCTYPE html>
<svg xmlns="http://www.w3.org/2000/svg" xmlns:xlink="http://www.w3.org/1999/xlink" version="1.1">
  <symbol id="icon-phone-call" viewBox="0 0 32 32">
    <title>Мобільний</title>
    <path d="M25.29 19.823c-0.655-0.682-1.445-1.047-2.283-1.047-0.831 0-1.628 0.358-2.31 1.040l-2.134 2.127c-0.176-0.095-0.351-0.182-0.52-0.27-0.243-0.122-0.473-0.236-0.669-0.358-1.999-1.27-3.816-2.924-5.558-5.065-0.844-1.067-1.412-1.965-1.824-2.877 0.554-0.507 1.067-1.033 1.567-1.54 0.189-0.189 0.378-0.385 0.567-0.574 1.418-1.418 1.418-3.255 0-4.674l-1.844-1.844c-0.209-0.209-0.425-0.425-0.628-0.642-0.405-0.419-0.831-0.851-1.27-1.256-0.655-0.648-1.439-0.993-2.263-0.993s-1.621 0.344-2.296 0.993c-0.007 0.007-0.007 0.007-0.014 0.014l-2.296 2.317c-0.865 0.865-1.358 1.918-1.466 3.141-0.162 1.972 0.419 3.809 0.865 5.011 1.094 2.951 2.729 5.687 5.167 8.618 2.958 3.532 6.517 6.322 10.583 8.287 1.553 0.736 3.627 1.607 5.943 1.756 0.142 0.007 0.29 0.014 0.425 0.014 1.56 0 2.87-0.561 3.897-1.675 0.007-0.014 0.020-0.020 0.027-0.034 0.351-0.425 0.756-0.81 1.182-1.222 0.29-0.277 0.588-0.567 0.878-0.871 0.669-0.696 1.020-1.506 1.020-2.337 0-0.837-0.358-1.641-1.040-2.317l-3.708-3.721zM27.708 26.935c-0.007 0-0.007 0.007 0 0-0.263 0.284-0.534 0.54-0.824 0.824-0.439 0.419-0.885 0.858-1.303 1.351-0.682 0.729-1.486 1.074-2.539 1.074-0.101 0-0.209 0-0.311-0.007-2.006-0.128-3.87-0.912-5.268-1.58-3.823-1.851-7.179-4.478-9.969-7.807-2.303-2.776-3.843-5.342-4.863-8.098-0.628-1.682-0.858-2.992-0.756-4.228 0.068-0.79 0.371-1.445 0.932-2.006l2.303-2.303c0.331-0.311 0.682-0.48 1.027-0.48 0.425 0 0.77 0.257 0.986 0.473 0.007 0.007 0.013 0.013 0.020 0.020 0.412 0.385 0.804 0.783 1.216 1.209 0.209 0.216 0.425 0.432 0.642 0.655l1.844 1.844c0.716 0.716 0.716 1.378 0 2.094-0.196 0.196-0.385 0.392-0.581 0.581-0.567 0.581-1.108 1.121-1.695 1.648-0.014 0.014-0.027 0.020-0.034 0.034-0.581 0.581-0.473 1.148-0.351 1.533 0.007 0.020 0.014 0.041 0.020 0.061 0.48 1.162 1.155 2.256 2.181 3.559l0.007 0.007c1.864 2.296 3.829 4.086 5.997 5.457 0.277 0.176 0.561 0.317 0.831 0.453 0.243 0.122 0.473 0.236 0.669 0.358 0.027 0.014 0.054 0.034 0.081 0.047 0.23 0.115 0.446 0.169 0.669 0.169 0.561 0 0.912-0.351 1.027-0.466l2.31-2.31c0.23-0.23 0.594-0.507 1.020-0.507 0.419 0 0.763 0.263 0.973 0.493 0.007 0.007 0.007 0.007 0.014 0.014l3.721 3.721c0.696 0.689 0.696 1.398 0.007 2.114z"></path>
    <path d="M17.294 7.612c1.77 0.297 3.377 1.135 4.66 2.418s2.114 2.891 2.418 4.66c0.074 0.446 0.459 0.756 0.898 0.756 0.054 0 0.101-0.007 0.155-0.014 0.5-0.081 0.831-0.554 0.75-1.054-0.365-2.141-1.378-4.093-2.924-5.639s-3.498-2.56-5.639-2.924c-0.5-0.081-0.966 0.25-1.054 0.743s0.236 0.973 0.736 1.054z"></path>
    <path d="M31.963 14.116c-0.601-3.525-2.263-6.734-4.815-9.287s-5.761-4.214-9.287-4.815c-0.493-0.088-0.959 0.25-1.047 0.743-0.081 0.5 0.25 0.966 0.75 1.054 3.147 0.534 6.018 2.026 8.3 4.302 2.283 2.283 3.769 5.153 4.302 8.3 0.074 0.446 0.459 0.756 0.898 0.756 0.054 0 0.101-0.007 0.155-0.014 0.493-0.074 0.831-0.547 0.743-1.040z"></path>
  </symbol>
  <symbol id="icon-email" viewBox="0 0 32 32">
    <title>E-mail</title>
    <path d="M29.188 3.813h-26.375c-1.549 0-2.813 1.262-2.813 2.813v18.75c0 1.545 1.258 2.813 2.813 2.813h26.375c1.545 0 2.813-1.258 2.813-2.813v-18.75c0-1.545-1.258-2.813-2.813-2.813zM28.799 5.688l-12.739 12.74-12.85-12.74h25.589zM1.875 24.987v-17.982l9.030 8.953-9.030 9.030zM3.201 26.313l9.036-9.036 3.166 3.139c0.367 0.363 0.958 0.362 1.323-0.003l3.087-3.087 8.987 8.987h-25.598zM30.125 24.987l-8.987-8.987 8.987-8.987v17.973z"></path>
  </symbol>
  <symbol id="icon-facebook" viewBox="0 0 32 32">
    <title>Facebook</title>
    <path d="M23.999 0.007l-4.15-0.007c-4.662 0-7.675 3.091-7.675 7.875v3.631h-4.172c-0.361 0-0.652 0.292-0.652 0.653v5.261c0 0.361 0.292 0.652 0.652 0.652h4.172v13.275c0 0.361 0.292 0.653 0.652 0.653h5.444c0.361 0 0.652-0.292 0.652-0.652v-13.275h4.878c0.361 0 0.652-0.292 0.652-0.652l0.002-5.261c0-0.173-0.069-0.339-0.191-0.461s-0.289-0.191-0.462-0.191h-4.88v-3.078c0-1.479 0.353-2.23 2.28-2.23l2.795-0.001c0.36 0 0.652-0.292 0.652-0.652v-4.885c0-0.36-0.292-0.652-0.651-0.652z"></path>
  </symbol>
  <symbol id="icon-instagram" viewBox="0 0 32 32">
    <title>Instagram</title>
    <path d="M23.169 0h-14.338c-4.869 0-8.831 3.962-8.831 8.831v14.338c0 4.869 3.961 8.831 8.831 8.831h14.338c4.87 0 8.831-3.962 8.831-8.831v-14.338c0-4.869-3.961-8.831-8.831-8.831zM29.161 23.169c0 3.304-2.688 5.992-5.992 5.992h-14.338c-3.304 0-5.991-2.688-5.991-5.992v-14.338c0-3.304 2.688-5.992 5.991-5.992h14.338c3.304 0 5.992 2.688 5.992 5.992v14.338z"></path>
    <path d="M16 7.755c-4.547 0-8.246 3.699-8.246 8.246s3.699 8.245 8.246 8.245 8.246-3.699 8.246-8.245c0-4.547-3.699-8.246-8.246-8.246zM16 21.406c-2.981 0-5.406-2.425-5.406-5.406s2.425-5.406 5.406-5.406 5.406 2.425 5.406 5.406c0 2.981-2.425 5.406-5.406 5.406z"></path>
    <path d="M24.591 5.347c-0.547 0-1.084 0.221-1.471 0.609-0.388 0.386-0.611 0.924-0.611 1.473 0 0.547 0.223 1.085 0.611 1.473 0.386 0.386 0.924 0.609 1.471 0.609 0.549 0 1.085-0.223 1.473-0.609 0.388-0.388 0.609-0.926 0.609-1.473 0-0.549-0.221-1.086-0.609-1.473-0.386-0.388-0.924-0.609-1.473-0.609z"></path>
  </symbol>
  <symbol id="icon-diamond" viewBox="0 0 32 32">
    <title>Diamond</title>
    <path d="M27.090 6.113h-20.395l-4.91 8.528 15.107 17.156 15.107-17.156-4.91-8.528zM29.224 13.586h-5.778l3.055-4.73 2.723 4.73zM24.821 7.992l-3.101 4.801-3.101-4.801h6.202zM19.994 13.586h-6.202l3.101-4.801 3.101 4.801zM15.167 7.992l-3.101 4.801-3.101-4.801h6.202zM7.285 8.856l3.055 4.73h-5.778l2.723-4.73zM5.017 15.466h6.353l3.359 11.030-9.712-11.030zM13.335 15.466h7.116l-3.558 11.683-3.558-11.683zM19.057 26.495l3.359-11.030h6.353l-9.712 11.030z"></path>
    <path d="M26.746 27.981v-1.305h-1.88v1.305h-1.305v1.88h1.305v1.305h1.88v-1.305h1.305v-1.88h-1.305z"></path>
    <path d="M3.876 1.508v-1.305h-1.88v1.305h-1.305v1.88h1.305v1.305h1.88v-1.305h1.305v-1.88h-1.305z"></path>
    <path d="M0.94 10.516c0.519 0 0.94-0.421 0.94-0.94s-0.421-0.94-0.94-0.94-0.94 0.421-0.94 0.94c0 0.519 0.421 0.94 0.94 0.94z"></path>
    <path d="M29.437 25.352c0.519 0 0.94-0.421 0.94-0.94s-0.421-0.94-0.94-0.94c-0.519 0-0.94 0.421-0.94 0.94s0.421 0.94 0.94 0.94z"></path>
    <path d="M10.080 3.388c0.519 0 0.94-0.421 0.94-0.94s-0.421-0.94-0.94-0.94c-0.519 0-0.94 0.421-0.94 0.94s0.421 0.94 0.94 0.94z"></path>
  </symbol>
  <symbol id="icon-mask" viewBox="0 0 32 32">
    <title>Mask</title>
    <path d="M12.723 7.31c-0.157-0.18-1.59-1.758-3.508-1.758s-3.351 1.578-3.508 1.758l-0.538 0.616 0.538 0.616c0.157 0.18 1.59 1.758 3.508 1.758s3.351-1.578 3.508-1.758l0.538-0.616-0.538-0.616zM9.215 8.426c-0.489 0-0.98-0.235-1.372-0.5 0.392-0.265 0.884-0.5 1.372-0.5s0.98 0.235 1.372 0.5c-0.391 0.264-0.884 0.5-1.372 0.5z"></path>
    <path d="M26.296 7.31c-0.157-0.18-1.59-1.758-3.508-1.758s-3.351 1.578-3.508 1.758l-0.538 0.616 0.538 0.616c0.157 0.18 1.59 1.758 3.508 1.758s3.351-1.578 3.508-1.758l0.538-0.616-0.538-0.616zM22.788 8.426c-0.489 0-0.98-0.235-1.372-0.5 0.391-0.264 0.884-0.5 1.372-0.5s0.981 0.235 1.373 0.5c-0.391 0.264-0.884 0.5-1.373 0.5z"></path>
    <path d="M32 0.091l-1.252 0.446c-0.028 0.010-2.829 0.998-5.906 1.168-0.845 0.047-1.617 0.050-2.363 0.054-2.474 0.011-4.654 0.021-6.478 1.905-1.825-1.885-4.004-1.894-6.478-1.905-0.747-0.003-1.519-0.007-2.363-0.054-3.077-0.171-5.878-1.158-5.905-1.168l-1.253-0.448v31.823h1.875v-19.024c1.198 1.228 2.869 1.992 4.716 1.992h4.38c1.166 0 2.32-0.301 3.337-0.869 0.632-0.353 1.203-0.805 1.691-1.334 0.488 0.529 1.060 0.981 1.691 1.334 1.018 0.569 2.172 0.869 3.337 0.869h4.38c3.634 0 6.591-2.957 6.591-6.591l-0-8.198zM30.125 8.288c0 2.601-2.116 4.716-4.716 4.716h-4.38c-1.712 0-3.333-0.906-4.23-2.363l-0.798-1.297-0.798 1.297c-0.897 1.458-2.518 2.363-4.23 2.363h-4.38c-2.601 0-4.716-2.116-4.716-4.716v-5.598c1.194 0.332 3.11 0.773 5.18 0.888 0.892 0.050 1.724 0.053 2.459 0.057 2.776 0.012 4.305 0.019 5.718 2.044l0.769 1.101 0.769-1.101c1.413-2.024 2.942-2.031 5.718-2.044 0.734-0.003 1.566-0.007 2.459-0.057 2.070-0.115 3.986-0.556 5.18-0.887v5.598z"></path>
  </symbol>
  <symbol id="icon-book" viewBox="0 0 32 32">
    <title>Book</title>
    <path d="M28.917 4.319c-0.951-0.951-2.499-0.951-3.451 0l-3.223 3.223v-7.542h-19.875v27.406h2.408v4.594l2.669-0.946 2.669 0.946v-4.594h12.129v-12.962l6.674-6.674c0.951-0.951 0.951-2.5-0-3.451zM8.236 29.34l-0.79-0.28-0.79 0.28v-1.934h1.58v1.934zM20.365 25.527h-16.116v-23.648h16.117v7.542l-3.949 3.949-1.082 4.532 4.532-1.082 0.498-0.498v9.204h-0zM18.913 15.116l-1.042 0.249 0.249-1.042 6.795-6.795 0.793 0.793-6.795 6.795zM27.589 6.441l-0.552 0.552-0.793-0.793 0.552-0.552c0.219-0.219 0.574-0.219 0.793-0s0.219 0.575 0 0.793z"></path>
    <path d="M16.603 4.819h-8.593v1.879h8.593v-1.879z"></path>
    <path d="M16.603 8.77h-8.593v1.879h8.593v-1.879z"></path>
  </symbol>
  <symbol id="icon-ribbon" viewBox="0 0 32 32">
    <title>Ribbon</title>
    <path d="M30.742 21.944l1.258-3.35h-10.902l-1.49-2.012 0.753-1.017c1.015 0.165 2.055 0.080 3.041-0.254 1.224-0.414 2.279-1.183 3.050-2.225 2.074-2.8 1.483-6.766-1.318-8.84s-6.766-1.483-8.84 1.318c-0.105 0.142-0.203 0.287-0.295 0.436-0.092-0.148-0.19-0.294-0.295-0.436-2.074-2.8-6.039-3.391-8.84-1.318s-3.391 6.039-1.317 8.84c0.771 1.042 1.826 1.811 3.050 2.224 0.986 0.333 2.026 0.419 3.041 0.254l0.753 1.017-1.49 2.012h-10.902l1.258 3.35-1.258 3.35h7.759c0.194 1.212 0.842 2.353 1.904 3.139l0.755 0.559 2.739-3.698h18.844l-1.258-3.35zM11.279 13.708c-1.17 0.175-2.339-0.117-3.29-0.822-1.963-1.454-2.378-4.234-0.924-6.197 0.868-1.172 2.209-1.792 3.566-1.792 0.916 0 1.84 0.283 2.631 0.868 1.157 0.857 1.775 2.173 1.791 3.512-0 0.029-0 0.058-0 0.087-0.007 0.906-0.288 1.817-0.867 2.599-0.704 0.951-1.737 1.571-2.907 1.745zM13.67 14.855l-0.11 0.149-0.048-0.065c0.053-0.027 0.106-0.055 0.158-0.084zM8.65 21.634c-0.406 0.549-0.679 1.156-0.825 1.782h-5.113l0.553-1.472-0.553-1.472h6.799l-0.861 1.163zM10.116 26.243c-0.718-1.023-0.741-2.433 0.043-3.491l7.792-10.522-0.34-0.543c-0.398-0.634-0.621-1.336-0.673-2.044 0.008-0.17 0.011-0.341 0.006-0.512-0.001-0.040-0.004-0.079-0.006-0.119 0.059-0.822 0.349-1.63 0.867-2.33 0.87-1.175 2.214-1.796 3.575-1.796 0.918 0 1.845 0.283 2.638 0.87 1.968 1.457 2.384 4.245 0.926 6.213-1.096 1.48-2.953 2.126-4.731 1.645l-0.619-0.167-9.477 12.797zM18.761 18.593h-0.643l0.321-0.434 0.321 0.434zM29.289 23.416h-14.741l2.18-2.944h12.561l-0.553 1.472 0.553 1.472z"></path>
    <path d="M13.15 8.949c-0.101-0.675-0.457-1.27-1.005-1.675-0.56-0.415-1.133-0.502-1.515-0.502-0.82 0-1.569 0.377-2.055 1.034-0.838 1.131-0.599 2.733 0.532 3.57 0.56 0.414 1.133 0.501 1.515 0.502h0c0.819 0 1.568-0.377 2.055-1.034 0.405-0.547 0.573-1.22 0.473-1.895zM11.168 9.727c-0.131 0.176-0.324 0.273-0.546 0.273-0.145-0-0.279-0.045-0.398-0.133-0.299-0.221-0.362-0.645-0.141-0.943 0.13-0.176 0.324-0.273 0.546-0.273 0.145 0 0.278 0.045 0.397 0.133 0.144 0.107 0.238 0.264 0.265 0.443s-0.017 0.356-0.124 0.501z"></path>
    <path d="M23.898 8.949c-0.101-0.675-0.457-1.27-1.005-1.675-0.56-0.415-1.133-0.502-1.515-0.502-0.82 0-1.569 0.377-2.055 1.034-0.838 1.131-0.599 2.733 0.532 3.57 0.56 0.414 1.133 0.501 1.515 0.502h0c0.819 0 1.568-0.377 2.055-1.034 0.405-0.547 0.573-1.22 0.473-1.895zM21.916 9.727c-0.13 0.176-0.324 0.273-0.546 0.273-0.145-0-0.279-0.045-0.398-0.133-0.299-0.221-0.362-0.644-0.141-0.943 0.131-0.176 0.325-0.273 0.546-0.273 0.145 0 0.278 0.045 0.397 0.133 0.144 0.107 0.238 0.264 0.265 0.443s-0.018 0.356-0.124 0.501z"></path>
  </symbol>
  <symbol id="icon-bell" viewBox="0 0 32 32">
    <title>Bell</title>
    <path d="M25.892 11.162v-1.271c0-5.454-4.437-9.892-9.891-9.892s-9.891 4.437-9.891 9.892v1.271c0 3.715-0.847 7.428-2.452 10.778h-2.809v6.486h11.762v0.183c0 1.869 1.521 3.39 3.39 3.39s3.389-1.52 3.389-3.39v-0.183h11.762v-6.486h-2.809c-1.605-3.35-2.452-7.064-2.452-10.778zM7.984 11.162v-1.271c0-4.42 3.596-8.017 8.016-8.017s8.016 3.596 8.016 8.017v1.271c0 3.697 0.78 7.392 2.264 10.778h-20.561c1.484-3.386 2.264-7.082 2.264-10.778zM17.515 28.61v0c0 0.835-0.679 1.514-1.515 1.514s-1.514-0.679-1.514-1.514v-0.183h3.029v0.183zM29.277 26.552h-26.553v-2.736h26.553v2.736z"></path>
  </symbol>
  <symbol id="icon-notepad" viewBox="0 0 32 32">
  <title>Notepad</title>
    <path d="M17.488 9.658h-12.413v1.875h12.413v-1.875z"></path>
    <path d="M17.488 14.775h-12.413v1.875h12.413v-1.875z"></path>
    <path d="M17.488 19.891h-12.413v1.875h12.413v-1.875z"></path>
    <path d="M17.488 25.008h-12.413v1.875h12.413v-1.875z"></path>
    <path d="M18.425 1.343v-1.343h-1.875v1.343h-2.262v-1.343h-1.875v1.343h-2.262v-1.343h-1.875v1.343h-2.262v-1.343h-1.875v1.343h-4.137v30.657h22.562v-30.657h-4.137zM20.687 30.125h-18.812v-26.907h2.262v2.26h1.875v-2.26h2.262v2.26h1.875v-2.26h2.262v2.26h1.875v-2.26h2.262v2.26h1.875v-2.26h2.262v26.907z"></path>
    <path d="M28.749 0c-1.793 0-3.251 1.458-3.251 3.251v19.404l1.221 7.411h1.093v1.933h1.875v-1.934h1.093l1.221-7.411v-19.404c0-1.793-1.458-3.251-3.251-3.251zM29.188 28.192h-0.878l-0.77-4.675h2.418l-0.77 4.675zM30.125 21.641h-2.752v-16.429h2.752v16.429zM30.125 3.337h-2.752v-0.086c0-0.759 0.617-1.376 1.376-1.376s1.376 0.617 1.376 1.376v0.086z"></path>
  </symbol>
  <symbol id="icon-meeting" viewBox="0 0 32 32">
    <title>Meeting</title>
    <path d="M14.916 28.503l-1.875-7.5c-0.114-0.456-0.336-0.862-0.633-1.194 0.445-0.498 0.717-1.154 0.717-1.873 0-1.551-1.262-2.812-2.812-2.812h-2.011l-1.098-2.195c-0.004-0.008-0.009-0.016-0.013-0.024 1.288-0.594 2.184-1.897 2.184-3.406 0-2.068-1.682-3.75-3.75-3.75s-3.75 1.682-3.75 3.75c0 0.98 0.379 1.874 0.997 2.542-0.435 0.367-0.764 0.869-0.913 1.462l-1.875 7.499c-0.211 0.846-0.025 1.725 0.512 2.413 0.29 0.372 0.66 0.657 1.076 0.841l-1.644 6.576c-0.126 0.502 0.18 1.011 0.682 1.137s1.011-0.18 1.137-0.682l0.76-3.040h6.447l0.405 1.62c0.38 1.518 1.912 2.422 3.411 2.046 1.504-0.376 2.422-1.905 2.046-3.411zM5.626 7.625c1.034 0 1.875 0.841 1.875 1.875s-0.841 1.875-1.875 1.875c-1.034 0-1.875-0.841-1.875-1.875s0.841-1.875 1.875-1.875zM3.076 26.373l0.469-1.875h4.572l0.469 1.875h-5.509zM12.414 30.096c-0.492 0.124-1.008-0.17-1.136-0.682l-1.52-6.079c-0.104-0.417-0.479-0.71-0.909-0.71h-6.036c-0.29 0-0.56-0.131-0.739-0.361s-0.241-0.523-0.171-0.804l1.875-7.498c0.212-0.843 1.362-0.966 1.749-0.193 0 0.001 0.001 0.001 0.001 0.002l1.356 2.711c0.159 0.318 0.483 0.518 0.838 0.518h2.591c0.517 0 0.937 0.421 0.937 0.937s-0.421 0.937-0.937 0.937c-0.464 0-3.343 0-3.75 0-0.358 0-0.679-0.199-0.839-0.518-0.232-0.463-0.795-0.651-1.258-0.419s-0.651 0.795-0.419 1.258c0.479 0.959 1.443 1.555 2.516 1.555 0.407 0 3.287 0 3.75 0 0.431 0 0.805 0.292 0.91 0.71l1.875 7.499c0.125 0.502-0.181 1.012-0.683 1.138z"></path>
    <path d="M30.327 24.258c1.209-0.536 1.93-1.884 1.588-3.254l-1.875-7.501c-0.149-0.593-0.478-1.094-0.912-1.461 0.618-0.669 0.997-1.562 0.997-2.542 0-2.068-1.682-3.75-3.75-3.75s-3.75 1.682-3.75 3.75c0 1.509 0.896 2.812 2.184 3.406-0.004 0.008-0.009 0.015-0.012 0.023l-1.098 2.195h-2.011c-1.551 0-2.812 1.262-2.812 2.812 0 0.719 0.271 1.375 0.717 1.873-0.297 0.332-0.519 0.738-0.633 1.194l-1.875 7.5c-0.375 1.505 0.542 3.035 2.045 3.41 1.488 0.374 3.029-0.517 3.412-2.046l0.405-1.62h6.447l0.76 3.040c0.126 0.502 0.635 0.808 1.137 0.682s0.808-0.634 0.682-1.137l-1.644-6.575zM24.499 9.5c0-1.034 0.841-1.875 1.875-1.875s1.875 0.841 1.875 1.875-0.841 1.875-1.875 1.875c-1.034 0-1.875-0.841-1.875-1.875zM23.414 26.373l0.469-1.875h4.572l0.469 1.875h-5.509zM29.186 22.624h-6.036c-0.43 0-0.805 0.293-0.909 0.71l-1.52 6.079c-0.129 0.514-0.645 0.806-1.138 0.682-0.501-0.125-0.807-0.635-0.682-1.137l1.875-7.499c0.105-0.418 0.479-0.71 0.91-0.71 0.464 0 3.343 0 3.75 0 1.072 0 2.036-0.596 2.516-1.555 0.232-0.463 0.044-1.026-0.419-1.258s-1.026-0.044-1.258 0.419c-0.16 0.32-0.481 0.518-0.839 0.518-0.407 0-3.287 0-3.75 0-0.517 0-0.937-0.421-0.937-0.937s0.421-0.937 0.937-0.937h2.591c0.355 0 0.68-0.201 0.838-0.518 0.040-0.079 1.333-2.666 1.357-2.713 0.393-0.785 1.539-0.64 1.748 0.191l1.875 7.499c0.148 0.591-0.3 1.165-0.91 1.165z"></path>
    <path d="M19.812 0.001h-7.624c-1.551 0-2.812 1.262-2.812 2.812v2c0 1.551 1.262 2.812 2.812 2.812h3.428l3.539 3.481c0.269 0.265 0.671 0.342 1.020 0.196s0.575-0.487 0.575-0.865v-2.973c1.091-0.387 1.875-1.429 1.875-2.652v-2c0-1.551-1.262-2.812-2.812-2.812zM20.75 4.813c0 0.517-0.421 0.937-0.937 0.937s-0.937 0.42-0.937 0.937v1.513l-2.217-2.181c-0.175-0.173-0.411-0.269-0.657-0.269h-3.812c-0.517 0-0.937-0.42-0.937-0.937v-2c0-0.517 0.421-0.937 0.937-0.937h7.624c0.517 0 0.937 0.421 0.937 0.937v2z"></path>
  </symbol>
  <symbol id="icon-wishlist" viewBox="0 0 32 32">
    <title>Wishlist</title>
    <path d="M26.783 0h-17.391c-2.877 0-5.217 2.341-5.217 5.217v20.522h-3.13c-0.576 0-1.044 0.467-1.044 1.044 0 2.877 2.34 5.217 5.217 5.217h13.217c2.877 0 5.217-2.34 5.217-5.217v-20.522h7.304c0.576 0 1.044-0.467 1.044-1.044 0-2.877-2.34-5.217-5.217-5.217zM5.217 29.913c-1.36 0-2.521-0.872-2.952-2.087h11.057c0.157 0.771 0.485 1.48 0.941 2.087h-9.046zM21.565 5.217v21.565c0 1.726-1.404 3.13-3.13 3.13s-3.13-1.404-3.13-3.13c0-0.576-0.467-1.044-1.043-1.044h-8v-20.522c0-1.726 1.404-3.13 3.13-3.13h13.22c-0.657 0.873-1.046 1.957-1.046 3.13zM23.831 4.174c0.431-1.215 1.591-2.087 2.952-2.087s2.521 0.872 2.952 2.087h-5.903z"></path>
    <path d="M9.391 8.348c0.576 0 1.043-0.467 1.043-1.043s-0.467-1.043-1.043-1.043c-0.576 0-1.043 0.467-1.043 1.043s0.467 1.043 1.043 1.043z"></path>
    <path d="M18.435 6.261h-4.87c-0.576 0-1.043 0.467-1.043 1.043s0.467 1.044 1.043 1.044h4.87c0.576 0 1.044-0.467 1.044-1.043s-0.467-1.043-1.044-1.043z"></path>
    <path d="M9.391 12.522c0.576 0 1.043-0.467 1.043-1.043s-0.467-1.043-1.043-1.043c-0.576 0-1.043 0.467-1.043 1.043s0.467 1.043 1.043 1.043z"></path>
    <path d="M18.435 10.435h-4.87c-0.576 0-1.043 0.467-1.043 1.043s0.467 1.043 1.043 1.043h4.87c0.576 0 1.044-0.467 1.044-1.043s-0.467-1.043-1.044-1.043z"></path>
    <path d="M9.391 16.696c0.576 0 1.043-0.467 1.043-1.043s-0.467-1.043-1.043-1.043c-0.576 0-1.043 0.467-1.043 1.043s0.467 1.043 1.043 1.043z"></path>
    <path d="M18.435 14.609h-4.87c-0.576 0-1.043 0.467-1.043 1.043s0.467 1.043 1.043 1.043h4.87c0.576 0 1.044-0.467 1.044-1.043s-0.467-1.043-1.044-1.043z"></path>
    <path d="M9.391 20.87c0.576 0 1.043-0.467 1.043-1.044s-0.467-1.044-1.043-1.044c-0.576 0-1.043 0.467-1.043 1.044s0.467 1.044 1.043 1.044z"></path>
    <path d="M18.435 18.783h-4.87c-0.576 0-1.043 0.467-1.043 1.044s0.467 1.044 1.043 1.044h4.87c0.576 0 1.044-0.467 1.044-1.044s-0.467-1.044-1.044-1.044z"></path>
    <path d="M31.89 13.099l-2.087-4.174c-0.384-0.768-1.483-0.768-1.867 0l-2.087 4.174c-0.073 0.145-0.11 0.305-0.11 0.467v15.304c0 1.726 1.404 3.13 3.13 3.13s3.13-1.404 3.13-3.13v-15.304c0-0.162-0.038-0.322-0.11-0.467zM29.913 28.87c0 0.575-0.468 1.044-1.044 1.044s-1.044-0.468-1.044-1.044v-1.044h2.087v1.044h0zM29.913 25.739h-2.087v-9.043h2.087v9.044zM29.913 14.609h-2.087v-0.797l1.044-2.087 1.044 2.087v0.797h-0z"></path>
  </symbol>
  <symbol id="icon-signature" viewBox="0 0 32 32">
    <title>Signature</title>
    <path d="M16.003 3.861l-6.881-2.85c-0.23-0.095-0.488-0.095-0.717 0s-0.412 0.278-0.507 0.507l-2.796 6.75-4.886 5.891c-0.197 0.238-0.265 0.557-0.18 0.855l2.652 9.341c0.078 0.276 0.278 0.5 0.543 0.61 0.115 0.048 0.237 0.071 0.359 0.071 0.158 0 0.315-0.040 0.457-0.119l8.481-4.73c0.27-0.15 0.448-0.424 0.477-0.732l0.711-7.62 2.796-6.75c0.198-0.478-0.029-1.027-0.507-1.225zM11.183 18.79l-5.695 3.176 2.427-5.859c0.198-0.478-0.029-1.027-0.507-1.225s-1.027 0.029-1.225 0.507l-2.427 5.859-1.781-6.273 4.22-5.088 5.603 2.321-0.614 6.581zM12.287 10.383l-5.149-2.132 2.133-5.148 5.149 2.133-2.133 5.148z"></path>
    <path d="M31.063 17.136h-10.042c-2.178 0-3.95 1.772-3.95 3.95s1.772 3.95 3.95 3.95c1.144 0 2.075 0.931 2.075 2.075s-0.931 2.075-2.075 2.075h-20.083c-0.518 0-0.938 0.42-0.938 0.938s0.42 0.938 0.938 0.938h20.083c2.178 0 3.95-1.772 3.95-3.95s-1.772-3.95-3.95-3.95c-1.144 0-2.075-0.931-2.075-2.075s0.931-2.075 2.075-2.075h10.042c0.518 0 0.938-0.42 0.938-0.938s-0.42-0.938-0.938-0.938z"></path>
  </symbol>
  <symbol id="icon-fireworks" viewBox="0 0 32 32">
    <title>Fireworks</title>
    <path d="M24.068 15.11c-0.357-0.497-0.508-1.121-0.4-1.75l0.215-1.253-0.91-0.887c-0.014-0.013-0.026-0.028-0.040-0.042-6.964 5.81-7.756 15.123-7.681 19.694 0.003 0.167 0.131 0.304 0.297 0.32s0.317-0.096 0.35-0.26c1.921-9.356 5.554-13.778 8.169-15.823z"></path>
    <path d="M10.41 8.863l-2.102 0.47-0.804 1.998c-0.015 0.036-0.031 0.071-0.047 0.107 3.28 4.64 4.988 14.114 5.671 18.887 0.016 0.112 0.116 0.192 0.229 0.185s0.201-0.101 0.202-0.214c0.083-10.294-1.492-17.162-3.081-21.45-0.023 0.006-0.045 0.012-0.068 0.018z"></path>
    <path d="M24.783 25.529l-0.298-0.41c-0.241-0.331-0.385-0.709-0.431-1.097-2.293 0.611-5.741 2.176-6.843 6.133-0.060 0.214 0.044 0.439 0.245 0.533s0.441 0.029 0.566-0.153c1.202-1.744 3.364-4.046 6.587-4.514 0.002-0.005 0.003-0.010 0.005-0.015l0.169-0.477z"></path>
    <path d="M8.389 21.533c-0.21 0.293-0.488 0.54-0.824 0.714l-0.449 0.234-0.062 0.502c-0.019 0.151-0.053 0.298-0.098 0.439 1.925 2.174 3.343 5.161 4.2 7.305 0.057 0.144 0.214 0.221 0.363 0.179s0.242-0.19 0.216-0.342c-0.759-4.482-2.087-7.288-3.347-9.031z"></path>
    <path d="M26.122 11.38l-0.4 2.333c-0.016 0.093 0.022 0.187 0.098 0.242 0.043 0.031 0.094 0.047 0.145 0.047 0.039 0 0.079-0.009 0.115-0.028l2.095-1.101 2.095 1.101c0.036 0.019 0.076 0.028 0.115 0.028 0.051 0 0.102-0.016 0.145-0.047 0.076-0.055 0.114-0.149 0.098-0.242l-0.4-2.333 1.695-1.652c0.067-0.066 0.092-0.164 0.063-0.254s-0.107-0.155-0.2-0.168l-2.343-0.34-1.048-2.123c-0.042-0.084-0.128-0.138-0.222-0.138s-0.18 0.053-0.222 0.138l-1.048 2.123-2.343 0.34c-0.093 0.014-0.171 0.079-0.2 0.168s-0.005 0.188 0.063 0.254l1.695 1.652z"></path>
    <path d="M9.955 6.828c0.092-0.021 0.164-0.092 0.186-0.183s-0.009-0.188-0.082-0.248l-2.492-2.085 0.305-3.235c0.009-0.094-0.036-0.184-0.116-0.234-0.040-0.024-0.085-0.037-0.13-0.037s-0.091 0.013-0.131 0.038l-2.754 1.726-2.983-1.29c-0.032-0.014-0.065-0.020-0.098-0.020-0.058 0-0.115 0.020-0.16 0.059-0.072 0.061-0.103 0.157-0.080 0.249l0.791 3.152-2.148 2.438c-0.062 0.071-0.079 0.171-0.043 0.258s0.118 0.146 0.212 0.153l3.242 0.222 1.655 2.797c0.045 0.076 0.126 0.121 0.213 0.121 0.006 0 0.013-0 0.019-0.001 0.094-0.007 0.176-0.067 0.211-0.154l1.213-3.015 3.171-0.71z"></path>
    <path d="M31.508 24.55c-0.014-0.093-0.079-0.171-0.169-0.2l-1.524-0.495-0.456-1.536c-0.027-0.090-0.103-0.157-0.195-0.173-0.014-0.002-0.028-0.004-0.042-0.004-0.078 0-0.153 0.037-0.2 0.102l-0.941 1.297-1.602-0.040c-0.002 0-0.004-0-0.006-0-0.092 0-0.176 0.051-0.219 0.132-0.044 0.083-0.037 0.184 0.019 0.261l0.942 1.296-0.534 1.511c-0.031 0.089-0.010 0.188 0.056 0.255 0.047 0.048 0.111 0.075 0.177 0.075 0.026 0 0.051-0.004 0.076-0.012l1.524-0.496 1.272 0.974c0.044 0.034 0.097 0.051 0.15 0.051 0.037 0 0.075-0.008 0.11-0.026 0.084-0.042 0.138-0.128 0.138-0.222l-0.001-1.602 1.32-0.909c0.077-0.053 0.118-0.146 0.104-0.24z"></path>
    <path d="M6.604 20.398c0.083-0.043 0.135-0.131 0.133-0.225s-0.057-0.179-0.143-0.219l-1.452-0.679-0.264-1.58c-0.016-0.093-0.082-0.169-0.173-0.196-0.024-0.007-0.048-0.011-0.071-0.011-0.067 0-0.133 0.028-0.181 0.078l-1.094 1.171-1.585-0.237c-0.012-0.002-0.024-0.003-0.037-0.003-0.080 0-0.156 0.039-0.203 0.106-0.054 0.077-0.059 0.178-0.013 0.261l0.775 1.402-0.716 1.434c-0.042 0.084-0.033 0.185 0.024 0.26 0.047 0.062 0.121 0.098 0.197 0.098 0.016 0 0.031-0.001 0.047-0.004l1.573-0.304 1.143 1.124c0.047 0.046 0.11 0.071 0.174 0.071 0.027 0 0.055-0.004 0.081-0.014 0.089-0.031 0.152-0.11 0.164-0.203l0.197-1.59 1.421-0.74z"></path>
    <path d="M17.119 6.987l-0.192-0.468-0.495-0.107c-0.37-0.080-0.703-0.244-0.983-0.472-0.798 2.121-1.356 5.403-0.769 10.338 0.032 0.266 0.419 0.262 0.444-0.004 0.217-2.289 0.777-5.991 2.205-8.889-0.082-0.124-0.153-0.257-0.211-0.398z"></path>
    <path d="M17.825 1.312l0.162 1.594-1.221 1.037c-0.072 0.061-0.103 0.157-0.080 0.249s0.096 0.162 0.188 0.182l1.566 0.339 0.609 1.482c0.036 0.087 0.118 0.146 0.212 0.153 0.006 0 0.011 0.001 0.017 0.001 0.088 0 0.169-0.046 0.214-0.123l0.806-1.385 1.598-0.121c0.094-0.007 0.176-0.067 0.211-0.154s0.018-0.187-0.045-0.257l-1.068-1.195 0.379-1.557c0.022-0.092-0.009-0.188-0.082-0.248-0.045-0.038-0.102-0.058-0.159-0.058-0.034 0-0.068 0.007-0.1 0.021l-1.466 0.646-1.364-0.841c-0.040-0.025-0.085-0.037-0.13-0.037s-0.091 0.013-0.131 0.038c-0.080 0.050-0.124 0.141-0.115 0.235z"></path>
  </symbol>
  <symbol id="icon-zoom" viewBox="0 0 32 32">
    <title>Zoom</title>
    <path d="M30.938 29.137l-7.362-7.362c1.825-2.225 2.925-5.075 2.925-8.181 0-7.125-5.781-12.906-12.906-12.906-7.131 0-12.906 5.781-12.906 12.906s5.775 12.906 12.906 12.906c3.106 0 5.95-1.094 8.175-2.919l7.362 7.356c0.5 0.5 1.306 0.5 1.806 0 0.5-0.494 0.5-1.306 0-1.8zM13.594 23.931c-5.706 0-10.344-4.637-10.344-10.338s4.638-10.344 10.344-10.344c5.7 0 10.344 4.644 10.344 10.344s-4.644 10.338-10.344 10.338z"></path>
  </symbol>
  <symbol id="icon-date" viewBox="0 0 32 32">
    <title>Date</title>
    <path d="M18.667 22h-5.333c-0.368 0-0.667 0.298-0.667 0.667s0.299 0.667 0.667 0.667h5.333c0.368 0 0.667-0.298 0.667-0.667s-0.299-0.667-0.667-0.667z"></path>
    <path d="M17.333 24h-2.667c-0.368 0-0.667 0.298-0.667 0.667s0.299 0.667 0.667 0.667h2.667c0.368 0 0.667-0.298 0.667-0.667s-0.299-0.667-0.667-0.667z"></path>
    <path d="M26.667 1.333h-2v-0.667c0-0.368-0.299-0.667-0.667-0.667s-0.667 0.298-0.667 0.667v0.667h-2.667v-0.667c0-0.368-0.299-0.667-0.667-0.667s-0.667 0.298-0.667 0.667v0.667h-2.667v-0.667c0-0.368-0.299-0.667-0.667-0.667s-0.667 0.298-0.667 0.667v0.667h-2.667v-0.667c0-0.368-0.299-0.667-0.667-0.667s-0.667 0.298-0.667 0.667v0.667h-2.667v-0.667c0-0.368-0.299-0.667-0.667-0.667s-0.667 0.298-0.667 0.667v0.667h-2c-1.103 0-2 0.897-2 2v23.333c0 0.869 0.557 1.611 1.333 1.886v1.448c0 1.103 0.897 2 2 2h18.667c1.103 0 2-0.897 2-2v-1.448c0.776-0.275 1.333-1.017 1.333-1.886v-23.333c0-1.103-0.897-2-2-2zM26 30c0 0.368-0.299 0.667-0.667 0.667h-18.667c-0.368 0-0.667-0.299-0.667-0.667v-1.333h20v1.333zM27.333 26.667c0 0.368-0.299 0.667-0.667 0.667h-21.333c-0.368 0-0.667-0.299-0.667-0.667v-23.333c0-0.368 0.299-0.667 0.667-0.667h2v1.333c0 0.368 0.298 0.667 0.667 0.667s0.667-0.298 0.667-0.667v-1.333h2.667v1.333c0 0.368 0.299 0.667 0.667 0.667s0.667-0.298 0.667-0.667v-1.333h2.667v1.333c0 0.368 0.299 0.667 0.667 0.667s0.667-0.298 0.667-0.667v-1.333h2.667v1.333c0 0.368 0.299 0.667 0.667 0.667s0.667-0.298 0.667-0.667v-1.333h2.667v1.333c0 0.368 0.299 0.667 0.667 0.667s0.667-0.298 0.667-0.667v-1.333h2c0.368 0 0.667 0.299 0.667 0.667v23.333z"></path>
    <path d="M20 8.996v-0.329c0-0.368-0.299-0.667-0.667-0.667s-0.667 0.298-0.667 0.667v0.28c-0.984 0.082-1.896 0.422-2.667 0.953-0.771-0.53-1.683-0.871-2.667-0.953v-0.28c0-0.368-0.299-0.667-0.667-0.667s-0.667 0.298-0.667 0.667v0.329c-2.641 0.419-4.667 2.711-4.667 5.468 0 3.053 2.484 5.536 5.536 5.536 1.161 0 2.239-0.359 3.13-0.972 0.891 0.613 1.97 0.972 3.13 0.972 3.053 0 5.536-2.484 5.536-5.536 0-2.757-2.026-5.050-4.667-5.468zM12.87 18.667c-2.318 0-4.203-1.886-4.203-4.203s1.885-4.203 4.203-4.203c0.762 0 1.478 0.204 2.095 0.56-0.853 0.974-1.37 2.249-1.37 3.643s0.518 2.668 1.37 3.643c-0.617 0.356-1.333 0.56-2.095 0.56zM14.928 14.464c0-1.075 0.406-2.057 1.072-2.802 0.667 0.744 1.072 1.726 1.072 2.802s-0.406 2.058-1.072 2.802c-0.667-0.744-1.072-1.726-1.072-2.802zM19.13 18.667c-0.762 0-1.478-0.204-2.095-0.56 0.853-0.974 1.37-2.249 1.37-3.643s-0.517-2.668-1.37-3.643c0.617-0.356 1.333-0.56 2.095-0.56 2.318 0 4.203 1.885 4.203 4.203s-1.885 4.203-4.203 4.203z"></path>
  </symbol>
  <symbol id="icon-dove" viewBox="0 0 32 32">
    <title>Dove</title>
    <path d="M31.921 17.685c-0.116-0.217-0.342-0.352-0.588-0.352h-4.667c-0.065 0-0.127 0.009-0.186 0.026-1.938 0.099-3.869 0.479-5.765 1.132l3.887-8.206c0.098-0.207 0.083-0.449-0.039-0.642s-0.335-0.31-0.563-0.31h-4.667c-3.22 0-6.035 1.765-7.529 4.378-0.55-1.762-2.197-3.044-4.138-3.044-2.296 0-4.18 1.794-4.324 4.054-1.894 0.315-3.342 1.964-3.342 3.946 0 0.368 0.298 0.667 0.667 0.667h2.736c0.664 6.352 5.997 11.252 12.438 11.332l2.528 1.264c0.096 0.048 0.197 0.070 0.298 0.070 0.245 0 0.48-0.135 0.597-0.369 0.165-0.329 0.031-0.73-0.298-0.894l-0.59-0.295c4.21-0.805 7.796-3.716 9.404-7.775h0.888c0.223 0 0.431-0.111 0.555-0.297l2.667-4c0.136-0.205 0.149-0.468 0.033-0.684zM3.333 18h-1.916c0.242-0.936 0.98-1.674 1.916-1.916v1.916zM12 18c0-4.044 3.29-7.333 7.333-7.333h3.613l-0.947 2h-1.017c-3.85 0-6.982 3.132-6.982 6.982 0 0.368 0.298 0.667 0.667 0.667s0.667-0.298 0.667-0.667c0-3.115 2.534-5.649 5.649-5.649h0.385l-2.164 4.568c-0.131 0.276-0.466 0.811-0.473 0.821-1.119 1.634-2.969 2.61-4.95 2.61h-1.781v-4zM28.31 21.333h-0.994c-0.283 0-0.534 0.178-0.629 0.444-1.596 4.515-5.884 7.55-10.674 7.555-0.009-0-0.018-0-0.027 0-6.011-0.007-10.974-4.706-11.303-10.703-0.002-0.041-0.008-0.082-0.018-0.121v-3.509c0-1.654 1.346-3 3-3s3 1.346 3 3v7.667c0 0.368 0.298 0.667 0.667 0.667h2.448c2.011 0 3.913-0.824 5.283-2.248 0.007-0.007 0.014-0.014 0.021-0.021 0.229-0.24 0.44-0.494 0.634-0.761 2.28-0.972 4.626-1.517 6.976-1.619 0.044-0.002 0.086-0.008 0.127-0.018h3.265l-1.778 2.667z"></path>
    <path d="M7.333 13.6c-0.368 0-0.667 0.298-0.667 0.667v0.133c0 0.368 0.298 0.667 0.667 0.667s0.667-0.298 0.667-0.667v-0.133c0-0.368-0.298-0.667-0.667-0.667z"></path>
    <path d="M1.063 5.781l3.25 2.88c0.302 0.268 0.688 0.416 1.086 0.416s0.783-0.148 1.086-0.416l1.304-1.156 1.393 1.234c0.245 0.218 0.559 0.337 0.883 0.337s0.637-0.12 0.883-0.337l2.223-1.971c0.507-0.45 0.798-1.107 0.798-1.802 0-1.39-1.081-2.521-2.41-2.521-0.292 0-0.578 0.056-0.846 0.162-0.333-1.492-1.61-2.607-3.13-2.607-0.816 0-1.596 0.332-2.184 0.901-0.588-0.569-1.368-0.901-2.184-0.901-1.773 0-3.215 1.515-3.215 3.377 0 0.929 0.388 1.805 1.063 2.404zM10.064 4.678c0.24 0 0.462-0.129 0.58-0.338 0.199-0.351 0.541-0.561 0.914-0.561 0.594 0 1.077 0.533 1.077 1.188 0 0.314-0.127 0.608-0.35 0.805l-2.222 1.969-2.221-1.969c-0.222-0.197-0.35-0.49-0.35-0.805 0-0.655 0.483-1.188 1.077-1.188 0.374 0 0.715 0.21 0.914 0.561 0.118 0.209 0.34 0.338 0.58 0.338zM3.215 1.333c0.658 0 1.258 0.365 1.604 0.976 0.118 0.209 0.34 0.338 0.58 0.338s0.462-0.129 0.58-0.338c0.346-0.611 0.946-0.976 1.604-0.976 0.773 0 1.439 0.509 1.728 1.235-0.237-0.080-0.486-0.123-0.741-0.123-1.329 0-2.41 1.131-2.41 2.521 0 0.616 0.228 1.202 0.633 1.64l-1.193 1.057c-0.116 0.103-0.286 0.103-0.403 0l-3.25-2.88c-0.39-0.346-0.614-0.859-0.614-1.406 0-1.127 0.844-2.044 1.881-2.044z"></path>
  </symbol>
  <symbol id="icon-groom" viewBox="0 0 32 32">
    <title>Groom</title>
    <path d="M12.406 10.666c0.331 0.158 0.727 0.019 0.887-0.31 0.021-0.026 0.123-0.093 0.291-0.093s0.27 0.066 0.291 0.093c0.115 0.237 0.353 0.375 0.6 0.375 0.096 0 0.194-0.021 0.287-0.065 0.332-0.159 0.473-0.556 0.315-0.889-0.246-0.515-0.831-0.848-1.492-0.848s-1.247 0.333-1.492 0.848c-0.159 0.332-0.018 0.73 0.315 0.889z"></path>
    <path d="M16.595 10.666c0.093 0.044 0.19 0.065 0.286 0.065 0.247 0 0.485-0.138 0.6-0.375 0.021-0.026 0.123-0.093 0.291-0.093s0.27 0.066 0.291 0.093c0.16 0.329 0.556 0.468 0.887 0.31 0.332-0.159 0.473-0.556 0.315-0.889-0.246-0.515-0.831-0.848-1.492-0.848s-1.247 0.333-1.492 0.848c-0.158 0.332-0.017 0.73 0.315 0.889z"></path>
    <path d="M16.667 24.667v-0.133c0-0.368-0.298-0.667-0.667-0.667s-0.667 0.299-0.667 0.667v0.133c0 0.368 0.298 0.667 0.667 0.667s0.667-0.299 0.667-0.667z"></path>
    <path d="M23.908 21.214c-0.633-0.771-1.567-1.214-2.562-1.214h-1.351c-0.010-0-0.020-0-0.030 0h-7.93c-0.010-0-0.020-0-0.030 0h-1.351c-0.995 0-1.929 0.442-2.562 1.214-0.637 0.776-0.89 1.787-0.693 2.773 0.003 0.015 0.006 0.029 0.010 0.044l2.019 7.477c0.079 0.291 0.342 0.493 0.644 0.493h11.859c0.301 0 0.565-0.202 0.644-0.493l2.018-7.477c0.004-0.014 0.007-0.029 0.010-0.044 0.196-0.986-0.057-1.997-0.693-2.773zM18.982 21.333l-2.764 6.667h-0.436l-2.764-6.667h5.964zM23.298 23.706l-1.879 6.961h-10.837l-1.879-6.961c-0.111-0.587 0.042-1.185 0.42-1.646s0.937-0.726 1.531-0.726h0.921l3.146 7.589c0.103 0.249 0.346 0.411 0.616 0.411h1.327c0.27 0 0.513-0.162 0.616-0.411l0.935-2.255h1.766c0.368 0 0.667-0.299 0.667-0.667s-0.299-0.667-0.667-0.667h-1.213l1.658-4h0.921c0.595 0 1.153 0.265 1.531 0.726s0.531 1.060 0.42 1.646z"></path>
    <path d="M16 23.2c0.368 0 0.667-0.299 0.667-0.667v-0.133c0-0.368-0.298-0.667-0.667-0.667s-0.667 0.299-0.667 0.667v0.133c0 0.368 0.298 0.667 0.667 0.667z"></path>
    <path d="M9.707 12.659c0.213 3.209 2.887 5.722 6.089 5.722s5.876-2.514 6.089-5.722l0.205-3.088c0.023-0.176 0.035-0.351 0.035-0.522 0-0.004-0-0.007-0-0.011 0-0.015 0-0.030-0.001-0.045-0.030-2.178-1.81-3.944-3.982-3.944h-0.151c-1.351 0-2.584 0.684-3.208 1.742-1.282-0.065-2.899-0.294-4.108-0.529 0.244-2.692 2.463-4.858 5.157-4.927 0.057-0.001 0.113-0.002 0.17-0.002 1.936 0 4.767 0.796 6.099 1.972l-0.646 1.398c-0.154 0.334-0.009 0.73 0.326 0.885s0.73 0.009 0.885-0.326l0.84-1.818c0.11-0.238 0.070-0.518-0.101-0.716-1.46-1.685-4.979-2.728-7.402-2.728-0.069 0-0.137 0.001-0.205 0.003-1.747 0.045-3.381 0.774-4.6 2.053-1.211 1.27-1.877 2.939-1.877 4.699 0 0.015 0.004 0.101 0.006 0.121l0.383 5.783zM15.053 8.137c0.025 0.001 0.049 0 0.074-0.002l0.12-0.010c0.252-0.020 0.471-0.181 0.565-0.416 0.319-0.793 1.194-1.326 2.178-1.326h0.151c1.452 0 2.64 1.189 2.649 2.65 0 0.006 0 0.011 0 0.017 0 0.003 0 0.006 0 0.009-0 0.115-0.009 0.235-0.026 0.357-0.002 0.015-0.004 0.031-0.005 0.046l-0.206 3.11c-0.166 2.511-2.257 4.477-4.758 4.477s-4.592-1.967-4.758-4.477l-0.328-4.945c1.336 0.246 3.047 0.472 4.343 0.511z"></path>
  </symbol>
  <symbol id="icon-bride" viewBox="0 0 32 32">
    <title>Bride</title>
    <path d="M25.326 12.746c-0.21-0.13-0.475-0.132-0.688-0.007-0.625 0.368-1.339 0.562-2.066 0.562-1.406 0-2.695-0.711-3.449-1.902-0.118-0.187-0.322-0.303-0.543-0.31-1.675-0.051-3.348-0.282-4.973-0.688-0.207-0.052-0.426-0.001-0.589 0.135s-0.252 0.343-0.238 0.556l0.39 5.852c0.214 3.209 2.901 5.722 6.116 5.722s5.902-2.513 6.116-5.722l0.239-3.587c0.016-0.247-0.105-0.482-0.315-0.612zM24.072 16.856c-0.167 2.511-2.27 4.477-4.786 4.477s-4.619-1.967-4.786-4.477l-0.331-4.957c1.325 0.28 2.675 0.451 4.028 0.511 1.019 1.4 2.628 2.226 4.374 2.226 0.568 0 1.13-0.089 1.666-0.263l-0.166 2.484z"></path>
    <path d="M19.284 0c-5.046 0-9.302 3.455-10.528 8.124-0.009 0.027-0.016 0.056-0.022 0.085-0.218 0.857-0.333 1.756-0.333 2.68v6.905c0 3.256-2.647 5.905-5.901 5.905-0.368 0-0.667 0.299-0.667 0.667 0 1.397 1.982 2.424 3.163 2.912 1.754 0.724 3.902 1.197 6.112 1.351-0.268 0.968-0.21 1.979 0.182 2.954 0.102 0.253 0.346 0.418 0.619 0.418h15.189c0.298 0 0.559-0.197 0.641-0.484l0.117-0.409c0.411-1.441 0.112-2.932-0.843-4.197-0.251-0.333-0.539-0.642-0.858-0.924 2.373-3.032 3.722-7.112 4.011-12.138 0.001-0.013 0.001-0.025 0.001-0.038v-2.921c0-6.004-4.882-10.889-10.883-10.889zM19.284 1.333c4.136 0 7.667 2.645 8.991 6.333h-3.644c0.024-0.135 0.036-0.275 0.036-0.417 0-1.333-1.084-2.417-2.417-2.417-0.234 0-0.464 0.033-0.684 0.099-0.553-0.785-1.456-1.265-2.448-1.265-0.953 0-1.828 0.444-2.389 1.187-0.103-0.014-0.208-0.021-0.312-0.021-1.333 0-2.417 1.084-2.417 2.417 0 0.142 0.012 0.281 0.036 0.417h-3.743c1.324-3.688 4.855-6.333 8.991-6.333zM23.333 7.25c0 0.597-0.486 1.083-1.083 1.083-0.35 0-0.681-0.172-0.885-0.46-0.116-0.164-0.299-0.267-0.499-0.28-0.015-0.001-0.030-0.002-0.046-0.002-0.184 0-0.36 0.076-0.487 0.211-0.32 0.342-0.752 0.531-1.216 0.531-0.383 0-0.744-0.127-1.043-0.368-0.265-0.214-0.65-0.193-0.89 0.049-0.205 0.206-0.478 0.319-0.768 0.319-0.597 0-1.083-0.486-1.083-1.083s0.486-1.083 1.083-1.083c0.129 0 0.258 0.024 0.384 0.072 0.318 0.121 0.677-0.018 0.831-0.322 0.286-0.565 0.856-0.916 1.486-0.916 0.682 0 1.289 0.41 1.545 1.043 0.075 0.186 0.23 0.328 0.421 0.387s0.4 0.029 0.566-0.082c0.178-0.119 0.385-0.181 0.6-0.181 0.597-0 1.083 0.486 1.083 1.083zM26.594 30.667h-14.206c-0.314-1.175 0.092-2.142 0.517-2.771 0.243-0.359 0.542-0.688 0.889-0.981 1.572 1.133 3.548 1.752 5.62 1.752 0.883 0 1.755-0.113 2.591-0.335 0.356-0.094 0.568-0.46 0.473-0.815s-0.46-0.568-0.815-0.473c-0.725 0.192-1.482 0.29-2.249 0.29-1.585 0-3.1-0.415-4.36-1.182 1.046-0.532 2.29-0.818 3.595-0.818h1.778c2.299 0 4.414 0.912 5.522 2.379 0.484 0.641 0.983 1.67 0.646 2.954zM28.833 13.79c-0.276 4.744-1.532 8.569-3.735 11.381-1.311-0.758-2.918-1.171-4.581-1.171h-1.962c-2.855 0-5.444 1.207-6.756 3.149-0.040 0.059-0.078 0.118-0.115 0.178-2.211-0.105-4.454-0.569-6.18-1.281-0.952-0.393-1.558-0.783-1.913-1.095 3.473-0.528 6.142-3.536 6.142-7.156v-6.905c0-0.646 0.064-1.278 0.187-1.889h4.745c0.027 0 0.054-0.002 0.080-0.005 0.434 0.416 1.023 0.671 1.67 0.671 0.458 0 0.895-0.126 1.274-0.362 0.436 0.236 0.928 0.362 1.427 0.362 0.592 0 1.17-0.179 1.658-0.503 0.418 0.322 0.935 0.503 1.474 0.503 0.647 0 1.236-0.256 1.67-0.671 0.026 0.003 0.053 0.005 0.080 0.005h4.646c0.123 0.611 0.187 1.242 0.187 1.889v2.901z"></path>
    <path d="M17.87 13.28c-0.33-0.158-0.727-0.020-0.887 0.308-0.021 0.027-0.125 0.094-0.296 0.094s-0.275-0.067-0.296-0.094c-0.161-0.329-0.557-0.467-0.887-0.308-0.332 0.159-0.472 0.557-0.313 0.889 0.246 0.514 0.834 0.846 1.496 0.846s1.25-0.332 1.496-0.846c0.159-0.332 0.019-0.73-0.313-0.889z"></path>
  </symbol>
  <symbol id="icon-budget" viewBox="0 0 32 32">
    <title>Budget</title>
    <path d="M16.248 6.333c0-2.022-1.645-3.667-3.667-3.667-0.701 0-1.357 0.198-1.915 0.541-0.558-0.343-1.213-0.541-1.915-0.541-2.022 0-3.667 1.645-3.667 3.667s1.645 3.667 3.667 3.667c0.701 0 1.357-0.198 1.915-0.541 0.558 0.343 1.213 0.541 1.915 0.541 2.022 0 3.667-1.645 3.667-3.667zM9.623 8.498c-0.269 0.109-0.563 0.169-0.871 0.169-1.287 0-2.333-1.047-2.333-2.333s1.047-2.333 2.333-2.333c0.308 0 0.602 0.060 0.871 0.169-0.446 0.607-0.709 1.356-0.709 2.165s0.263 1.558 0.709 2.165zM10.667 7.666c-0.264-0.378-0.419-0.838-0.419-1.332s0.155-0.954 0.419-1.332c0.264 0.378 0.419 0.838 0.419 1.332s-0.155 0.954-0.419 1.332zM11.71 8.498c0.446-0.607 0.709-1.356 0.709-2.165s-0.263-1.558-0.709-2.165c0.269-0.109 0.563-0.169 0.871-0.169 1.287 0 2.333 1.047 2.333 2.333s-1.047 2.333-2.333 2.333c-0.308 0-0.602-0.060-0.871-0.169z"></path>
    <path d="M10.667 12.667h-6c-0.368 0-0.667 0.299-0.667 0.667s0.299 0.667 0.667 0.667h6c0.368 0 0.667-0.299 0.667-0.667s-0.299-0.667-0.667-0.667z"></path>
    <path d="M20.667 27.333c-0.368 0-0.667 0.299-0.667 0.667v0.667c0 0.368 0.299 0.667 0.667 0.667s0.667-0.299 0.667-0.667v-0.667c0-0.368-0.299-0.667-0.667-0.667z"></path>
    <path d="M4.667 24.667c-0.368 0-0.667 0.299-0.667 0.667s0.299 0.667 0.667 0.667h2c0.368 0 0.667-0.299 0.667-0.667s-0.299-0.667-0.667-0.667h-2z"></path>
    <path d="M11.333 21.333c0-0.368-0.299-0.667-0.667-0.667h-6c-0.368 0-0.667 0.299-0.667 0.667s0.299 0.667 0.667 0.667h6c0.368 0 0.667-0.299 0.667-0.667z"></path>
    <path d="M4.667 18h2c0.368 0 0.667-0.299 0.667-0.667s-0.299-0.667-0.667-0.667h-2c-0.368 0-0.667 0.299-0.667 0.667s0.299 0.667 0.667 0.667z"></path>
    <path d="M24.333 24c-0.368 0-0.667 0.299-0.667 0.667v0.667c0 0.368 0.299 0.667 0.667 0.667s0.667-0.299 0.667-0.667v-0.667c0-0.368-0.299-0.667-0.667-0.667z"></path>
    <path d="M28 24c-0.368 0-0.667 0.299-0.667 0.667v0.667c0 0.368 0.299 0.667 0.667 0.667s0.667-0.299 0.667-0.667v-0.667c0-0.368-0.299-0.667-0.667-0.667z"></path>
    <path d="M27.333 14.667h-6c-1.103 0-2 0.897-2 2s0.897 2 2 2h6c1.103 0 2-0.897 2-2s-0.897-2-2-2zM27.333 17.333h-6c-0.368 0-0.667-0.299-0.667-0.667s0.299-0.667 0.667-0.667h6c0.368 0 0.667 0.299 0.667 0.667s-0.299 0.667-0.667 0.667z"></path>
    <path d="M28 20.667c-0.368 0-0.667 0.299-0.667 0.667v0.667c0 0.368 0.299 0.667 0.667 0.667s0.667-0.299 0.667-0.667v-0.667c0-0.368-0.299-0.667-0.667-0.667z"></path>
    <path d="M20.667 24c-0.368 0-0.667 0.299-0.667 0.667v0.667c0 0.368 0.299 0.667 0.667 0.667s0.667-0.299 0.667-0.667v-0.667c0-0.368-0.299-0.667-0.667-0.667z"></path>
    <path d="M30 12h-8.667v-10c0-1.103-0.897-2-2-2h-17.333c-1.103 0-2 0.897-2 2v26c0 1.103 0.897 2 2 2h12.667c0.368 0 0.667-0.299 0.667-0.667s-0.299-0.667-0.667-0.667h-12.667c-0.368 0-0.667-0.299-0.667-0.667v-26c0-0.368 0.299-0.667 0.667-0.667h17.333c0.368 0 0.667 0.299 0.667 0.667v10h-1.333c-1.103 0-2 0.897-2 2v16c0 1.103 0.897 2 2 2h11.333c1.103 0 2-0.897 2-2v-16c0-1.103-0.897-2-2-2zM30.667 30c0 0.368-0.299 0.667-0.667 0.667h-11.333c-0.368 0-0.667-0.299-0.667-0.667v-16c0-0.368 0.299-0.667 0.667-0.667h11.333c0.368 0 0.667 0.299 0.667 0.667v16z"></path>
    <path d="M20.667 20.667c-0.368 0-0.667 0.299-0.667 0.667v0.667c0 0.368 0.299 0.667 0.667 0.667s0.667-0.299 0.667-0.667v-0.667c0-0.368-0.299-0.667-0.667-0.667z"></path>
    <path d="M24.333 27.333c-0.368 0-0.667 0.299-0.667 0.667v0.667c0 0.368 0.299 0.667 0.667 0.667s0.667-0.299 0.667-0.667v-0.667c0-0.368-0.299-0.667-0.667-0.667z"></path>
    <path d="M24.333 20.667c-0.368 0-0.667 0.299-0.667 0.667v0.667c0 0.368 0.299 0.667 0.667 0.667s0.667-0.299 0.667-0.667v-0.667c0-0.368-0.299-0.667-0.667-0.667z"></path>
    <path d="M28 27.333c-0.368 0-0.667 0.299-0.667 0.667v0.667c0 0.368 0.299 0.667 0.667 0.667s0.667-0.299 0.667-0.667v-0.667c0-0.368-0.299-0.667-0.667-0.667z"></path>
  </symbol>
  <symbol id="icon-curtains" viewBox="0 0 32 32">
    <title>Curtains</title>
    <path d="M31.333 30.666h-0.667v-12.667h0.667c0.368 0 0.667-0.298 0.667-0.667s-0.299-0.667-0.667-0.667h-0.667v-1.321c0-0.008 0-0.016 0-0.024v-6.655c0-4.044-3.29-7.333-7.333-7.333h-2.84c-0.539-0.804-1.455-1.333-2.493-1.333-0.743 0-1.456 0.281-2 0.766-0.544-0.485-1.257-0.766-2-0.766-1.038 0-1.954 0.53-2.493 1.333h-2.84c-4.044 0-7.333 3.29-7.333 7.333v6.655c-0 0.008-0 0.016 0 0.024v1.321h-0.667c-0.368 0-0.667 0.298-0.667 0.667s0.299 0.667 0.667 0.667h0.667v12.667h-0.667c-0.368 0-0.667 0.298-0.667 0.667s0.299 0.667 0.667 0.667h9.985c0.010 0 0.020 0 0.031 0h2.651c0.368 0 0.667-0.298 0.667-0.667s-0.299-0.667-0.667-0.667h-2.212l-4.748-12.133c-0.152-0.387-0.371-0.739-0.644-1.041 1.864-0.516 3.616-1.414 5.127-2.65 2.199-1.799 3.805-4.236 4.591-6.942 0.351 0.13 0.753 0.13 1.105 0 0.786 2.705 2.392 5.143 4.591 6.942 1.511 1.236 3.263 2.134 5.127 2.65-0.274 0.302-0.493 0.654-0.644 1.041l-4.748 12.133h-2.212c-0.368 0-0.667 0.299-0.667 0.667s0.299 0.667 0.667 0.667h2.651c0.005 0 0.010 0 0.015 0s0.010 0 0.015-0h9.985c0.368 0 0.667-0.298 0.667-0.667s-0.299-0.667-0.667-0.667zM9.69 30.666h-7.023v-12.683c0.453-0.022 0.904-0.066 1.351-0.131 0.036 0.029 0.077 0.055 0.12 0.077 0.455 0.227 0.809 0.614 0.995 1.090l4.558 11.647zM2.667 16.649v-0.876c1.849-0.832 3.511-2.132 4.828-3.779 1.421-1.778 2.411-3.928 2.863-6.217 0.071-0.361-0.164-0.712-0.525-0.783s-0.712 0.164-0.783 0.525c-0.755 3.824-3.161 7.1-6.382 8.774v-5.625c0-3.308 2.692-6 6-6h2.352c-0.012 0.109-0.018 0.221-0.018 0.333 0 0.834 0.367 1.618 1.008 2.152l2.286 1.905c-1.334 5.376-6.106 9.297-11.628 9.591zM16.547 6.287c-0.007 0.005-0.013 0.011-0.019 0.016l-0.365 0.304c-0.091 0.076-0.234 0.076-0.325 0l-0.365-0.304c-0.006-0.006-0.013-0.011-0.019-0.016l-2.591-2.159c-0.336-0.28-0.528-0.691-0.528-1.128 0-0.919 0.748-1.667 1.667-1.667 0.59 0 1.124 0.302 1.429 0.808 0.121 0.2 0.337 0.323 0.571 0.323s0.45-0.122 0.571-0.323c0.305-0.506 0.839-0.808 1.429-0.808 0.919 0 1.667 0.748 1.667 1.667 0 0.437-0.193 0.848-0.528 1.128l-2.591 2.159zM29.333 30.666h-7.023l4.558-11.647c0.186-0.475 0.539-0.862 0.995-1.090 0.043-0.022 0.084-0.048 0.12-0.077 0.447 0.065 0.898 0.109 1.351 0.131v12.683zM29.333 14.292c-3.221-1.673-5.628-4.949-6.382-8.774-0.071-0.361-0.422-0.596-0.783-0.525s-0.596 0.422-0.525 0.783c0.452 2.289 1.441 4.439 2.863 6.217 1.317 1.648 2.979 2.947 4.828 3.779v0.876c-5.521-0.294-10.294-4.215-11.628-9.591l2.286-1.905c0.641-0.534 1.008-1.318 1.008-2.152 0-0.113-0.006-0.224-0.018-0.333h2.352c3.308 0 6 2.692 6 6v5.625z"></path>
  </symbol>
</svg>