<?xml version="1.0" encoding="utf-8"?>
<!DOCTYPE html>
<svg xmlns="http://www.w3.org/2000/svg" xmlns:xlink="http://www.w3.org/1999/xlink" version="1.1">
  <symbol id="icon-phone-call" viewBox="0 0 32 32">
    <title>Мобільний</title>
    <path d="M25.29 19.823c-0.655-0.682-1.445-1.047-2.283-1.047-0.831 0-1.628 0.358-2.31 1.040l-2.134 2.127c-0.176-0.095-0.351-0.182-0.52-0.27-0.243-0.122-0.473-0.236-0.669-0.358-1.999-1.27-3.816-2.924-5.558-5.065-0.844-1.067-1.412-1.965-1.824-2.877 0.554-0.507 1.067-1.033 1.567-1.54 0.189-0.189 0.378-0.385 0.567-0.574 1.418-1.418 1.418-3.255 0-4.674l-1.844-1.844c-0.209-0.209-0.425-0.425-0.628-0.642-0.405-0.419-0.831-0.851-1.27-1.256-0.655-0.648-1.439-0.993-2.263-0.993s-1.621 0.344-2.296 0.993c-0.007 0.007-0.007 0.007-0.014 0.014l-2.296 2.317c-0.865 0.865-1.358 1.918-1.466 3.141-0.162 1.972 0.419 3.809 0.865 5.011 1.094 2.951 2.729 5.687 5.167 8.618 2.958 3.532 6.517 6.322 10.583 8.287 1.553 0.736 3.627 1.607 5.943 1.756 0.142 0.007 0.29 0.014 0.425 0.014 1.56 0 2.87-0.561 3.897-1.675 0.007-0.014 0.020-0.020 0.027-0.034 0.351-0.425 0.756-0.81 1.182-1.222 0.29-0.277 0.588-0.567 0.878-0.871 0.669-0.696 1.020-1.506 1.020-2.337 0-0.837-0.358-1.641-1.040-2.317l-3.708-3.721zM27.708 26.935c-0.007 0-0.007 0.007 0 0-0.263 0.284-0.534 0.54-0.824 0.824-0.439 0.419-0.885 0.858-1.303 1.351-0.682 0.729-1.486 1.074-2.539 1.074-0.101 0-0.209 0-0.311-0.007-2.006-0.128-3.87-0.912-5.268-1.58-3.823-1.851-7.179-4.478-9.969-7.807-2.303-2.776-3.843-5.342-4.863-8.098-0.628-1.682-0.858-2.992-0.756-4.228 0.068-0.79 0.371-1.445 0.932-2.006l2.303-2.303c0.331-0.311 0.682-0.48 1.027-0.48 0.425 0 0.77 0.257 0.986 0.473 0.007 0.007 0.013 0.013 0.020 0.020 0.412 0.385 0.804 0.783 1.216 1.209 0.209 0.216 0.425 0.432 0.642 0.655l1.844 1.844c0.716 0.716 0.716 1.378 0 2.094-0.196 0.196-0.385 0.392-0.581 0.581-0.567 0.581-1.108 1.121-1.695 1.648-0.014 0.014-0.027 0.020-0.034 0.034-0.581 0.581-0.473 1.148-0.351 1.533 0.007 0.020 0.014 0.041 0.020 0.061 0.48 1.162 1.155 2.256 2.181 3.559l0.007 0.007c1.864 2.296 3.829 4.086 5.997 5.457 0.277 0.176 0.561 0.317 0.831 0.453 0.243 0.122 0.473 0.236 0.669 0.358 0.027 0.014 0.054 0.034 0.081 0.047 0.23 0.115 0.446 0.169 0.669 0.169 0.561 0 0.912-0.351 1.027-0.466l2.31-2.31c0.23-0.23 0.594-0.507 1.020-0.507 0.419 0 0.763 0.263 0.973 0.493 0.007 0.007 0.007 0.007 0.014 0.014l3.721 3.721c0.696 0.689 0.696 1.398 0.007 2.114z"></path>
    <path d="M17.294 7.612c1.77 0.297 3.377 1.135 4.66 2.418s2.114 2.891 2.418 4.66c0.074 0.446 0.459 0.756 0.898 0.756 0.054 0 0.101-0.007 0.155-0.014 0.5-0.081 0.831-0.554 0.75-1.054-0.365-2.141-1.378-4.093-2.924-5.639s-3.498-2.56-5.639-2.924c-0.5-0.081-0.966 0.25-1.054 0.743s0.236 0.973 0.736 1.054z"></path>
    <path d="M31.963 14.116c-0.601-3.525-2.263-6.734-4.815-9.287s-5.761-4.214-9.287-4.815c-0.493-0.088-0.959 0.25-1.047 0.743-0.081 0.5 0.25 0.966 0.75 1.054 3.147 0.534 6.018 2.026 8.3 4.302 2.283 2.283 3.769 5.153 4.302 8.3 0.074 0.446 0.459 0.756 0.898 0.756 0.054 0 0.101-0.007 0.155-0.014 0.493-0.074 0.831-0.547 0.743-1.040z"></path>
  </symbol>
  <symbol id="icon-email" viewBox="0 0 32 32">
    <title>E-mail</title>
    <path d="M29.188 3.813h-26.375c-1.549 0-2.813 1.262-2.813 2.813v18.75c0 1.545 1.258 2.813 2.813 2.813h26.375c1.545 0 2.813-1.258 2.813-2.813v-18.75c0-1.545-1.258-2.813-2.813-2.813zM28.799 5.688l-12.739 12.74-12.85-12.74h25.589zM1.875 24.987v-17.982l9.030 8.953-9.030 9.030zM3.201 26.313l9.036-9.036 3.166 3.139c0.367 0.363 0.958 0.362 1.323-0.003l3.087-3.087 8.987 8.987h-25.598zM30.125 24.987l-8.987-8.987 8.987-8.987v17.973z"></path>
  </symbol>
  <symbol id="icon-facebook" viewBox="0 0 32 32">
    <title>Facebook</title>
    <path d="M23.999 0.007l-4.15-0.007c-4.662 0-7.675 3.091-7.675 7.875v3.631h-4.172c-0.361 0-0.652 0.292-0.652 0.653v5.261c0 0.361 0.292 0.652 0.652 0.652h4.172v13.275c0 0.361 0.292 0.653 0.652 0.653h5.444c0.361 0 0.652-0.292 0.652-0.652v-13.275h4.878c0.361 0 0.652-0.292 0.652-0.652l0.002-5.261c0-0.173-0.069-0.339-0.191-0.461s-0.289-0.191-0.462-0.191h-4.88v-3.078c0-1.479 0.353-2.23 2.28-2.23l2.795-0.001c0.36 0 0.652-0.292 0.652-0.652v-4.885c0-0.36-0.292-0.652-0.651-0.652z"></path>
  </symbol>
  <symbol id="icon-instagram" viewBox="0 0 32 32">
    <title>Instagram</title>
    <path d="M23.169 0h-14.338c-4.869 0-8.831 3.962-8.831 8.831v14.338c0 4.869 3.961 8.831 8.831 8.831h14.338c4.87 0 8.831-3.962 8.831-8.831v-14.338c0-4.869-3.961-8.831-8.831-8.831zM29.161 23.169c0 3.304-2.688 5.992-5.992 5.992h-14.338c-3.304 0-5.991-2.688-5.991-5.992v-14.338c0-3.304 2.688-5.992 5.991-5.992h14.338c3.304 0 5.992 2.688 5.992 5.992v14.338z"></path>
    <path d="M16 7.755c-4.547 0-8.246 3.699-8.246 8.246s3.699 8.245 8.246 8.245 8.246-3.699 8.246-8.245c0-4.547-3.699-8.246-8.246-8.246zM16 21.406c-2.981 0-5.406-2.425-5.406-5.406s2.425-5.406 5.406-5.406 5.406 2.425 5.406 5.406c0 2.981-2.425 5.406-5.406 5.406z"></path>
    <path d="M24.591 5.347c-0.547 0-1.084 0.221-1.471 0.609-0.388 0.386-0.611 0.924-0.611 1.473 0 0.547 0.223 1.085 0.611 1.473 0.386 0.386 0.924 0.609 1.471 0.609 0.549 0 1.085-0.223 1.473-0.609 0.388-0.388 0.609-0.926 0.609-1.473 0-0.549-0.221-1.086-0.609-1.473-0.386-0.388-0.924-0.609-1.473-0.609z"></path>
  </symbol>
  <symbol id="icon-diamond" viewBox="0 0 32 32">
    <title>Diamond</title>
    <path d="M27.090 6.113h-20.395l-4.91 8.528 15.107 17.156 15.107-17.156-4.91-8.528zM29.224 13.586h-5.778l3.055-4.73 2.723 4.73zM24.821 7.992l-3.101 4.801-3.101-4.801h6.202zM19.994 13.586h-6.202l3.101-4.801 3.101 4.801zM15.167 7.992l-3.101 4.801-3.101-4.801h6.202zM7.285 8.856l3.055 4.73h-5.778l2.723-4.73zM5.017 15.466h6.353l3.359 11.030-9.712-11.030zM13.335 15.466h7.116l-3.558 11.683-3.558-11.683zM19.057 26.495l3.359-11.030h6.353l-9.712 11.030z"></path>
    <path d="M26.746 27.981v-1.305h-1.88v1.305h-1.305v1.88h1.305v1.305h1.88v-1.305h1.305v-1.88h-1.305z"></path>
    <path d="M3.876 1.508v-1.305h-1.88v1.305h-1.305v1.88h1.305v1.305h1.88v-1.305h1.305v-1.88h-1.305z"></path>
    <path d="M0.94 10.516c0.519 0 0.94-0.421 0.94-0.94s-0.421-0.94-0.94-0.94-0.94 0.421-0.94 0.94c0 0.519 0.421 0.94 0.94 0.94z"></path>
    <path d="M29.437 25.352c0.519 0 0.94-0.421 0.94-0.94s-0.421-0.94-0.94-0.94c-0.519 0-0.94 0.421-0.94 0.94s0.421 0.94 0.94 0.94z"></path>
    <path d="M10.080 3.388c0.519 0 0.94-0.421 0.94-0.94s-0.421-0.94-0.94-0.94c-0.519 0-0.94 0.421-0.94 0.94s0.421 0.94 0.94 0.94z"></path>
  </symbol>
  <symbol id="icon-mask" viewBox="0 0 32 32">
    <title>Mask</title>
    <path d="M12.723 7.31c-0.157-0.18-1.59-1.758-3.508-1.758s-3.351 1.578-3.508 1.758l-0.538 0.616 0.538 0.616c0.157 0.18 1.59 1.758 3.508 1.758s3.351-1.578 3.508-1.758l0.538-0.616-0.538-0.616zM9.215 8.426c-0.489 0-0.98-0.235-1.372-0.5 0.392-0.265 0.884-0.5 1.372-0.5s0.98 0.235 1.372 0.5c-0.391 0.264-0.884 0.5-1.372 0.5z"></path>
    <path d="M26.296 7.31c-0.157-0.18-1.59-1.758-3.508-1.758s-3.351 1.578-3.508 1.758l-0.538 0.616 0.538 0.616c0.157 0.18 1.59 1.758 3.508 1.758s3.351-1.578 3.508-1.758l0.538-0.616-0.538-0.616zM22.788 8.426c-0.489 0-0.98-0.235-1.372-0.5 0.391-0.264 0.884-0.5 1.372-0.5s0.981 0.235 1.373 0.5c-0.391 0.264-0.884 0.5-1.373 0.5z"></path>
    <path d="M32 0.091l-1.252 0.446c-0.028 0.010-2.829 0.998-5.906 1.168-0.845 0.047-1.617 0.050-2.363 0.054-2.474 0.011-4.654 0.021-6.478 1.905-1.825-1.885-4.004-1.894-6.478-1.905-0.747-0.003-1.519-0.007-2.363-0.054-3.077-0.171-5.878-1.158-5.905-1.168l-1.253-0.448v31.823h1.875v-19.024c1.198 1.228 2.869 1.992 4.716 1.992h4.38c1.166 0 2.32-0.301 3.337-0.869 0.632-0.353 1.203-0.805 1.691-1.334 0.488 0.529 1.060 0.981 1.691 1.334 1.018 0.569 2.172 0.869 3.337 0.869h4.38c3.634 0 6.591-2.957 6.591-6.591l-0-8.198zM30.125 8.288c0 2.601-2.116 4.716-4.716 4.716h-4.38c-1.712 0-3.333-0.906-4.23-2.363l-0.798-1.297-0.798 1.297c-0.897 1.458-2.518 2.363-4.23 2.363h-4.38c-2.601 0-4.716-2.116-4.716-4.716v-5.598c1.194 0.332 3.11 0.773 5.18 0.888 0.892 0.050 1.724 0.053 2.459 0.057 2.776 0.012 4.305 0.019 5.718 2.044l0.769 1.101 0.769-1.101c1.413-2.024 2.942-2.031 5.718-2.044 0.734-0.003 1.566-0.007 2.459-0.057 2.070-0.115 3.986-0.556 5.18-0.887v5.598z"></path>
  </symbol>
  <symbol id="icon-book" viewBox="0 0 32 32">
    <title>Book</title>
    <path d="M28.917 4.319c-0.951-0.951-2.499-0.951-3.451 0l-3.223 3.223v-7.542h-19.875v27.406h2.408v4.594l2.669-0.946 2.669 0.946v-4.594h12.129v-12.962l6.674-6.674c0.951-0.951 0.951-2.5-0-3.451zM8.236 29.34l-0.79-0.28-0.79 0.28v-1.934h1.58v1.934zM20.365 25.527h-16.116v-23.648h16.117v7.542l-3.949 3.949-1.082 4.532 4.532-1.082 0.498-0.498v9.204h-0zM18.913 15.116l-1.042 0.249 0.249-1.042 6.795-6.795 0.793 0.793-6.795 6.795zM27.589 6.441l-0.552 0.552-0.793-0.793 0.552-0.552c0.219-0.219 0.574-0.219 0.793-0s0.219 0.575 0 0.793z"></path>
    <path d="M16.603 4.819h-8.593v1.879h8.593v-1.879z"></path>
    <path d="M16.603 8.77h-8.593v1.879h8.593v-1.879z"></path>
  </symbol>
  <symbol id="icon-ribbon" viewBox="0 0 32 32">
    <title>Ribbon</title>
    <path d="M30.742 21.944l1.258-3.35h-10.902l-1.49-2.012 0.753-1.017c1.015 0.165 2.055 0.080 3.041-0.254 1.224-0.414 2.279-1.183 3.050-2.225 2.074-2.8 1.483-6.766-1.318-8.84s-6.766-1.483-8.84 1.318c-0.105 0.142-0.203 0.287-0.295 0.436-0.092-0.148-0.19-0.294-0.295-0.436-2.074-2.8-6.039-3.391-8.84-1.318s-3.391 6.039-1.317 8.84c0.771 1.042 1.826 1.811 3.050 2.224 0.986 0.333 2.026 0.419 3.041 0.254l0.753 1.017-1.49 2.012h-10.902l1.258 3.35-1.258 3.35h7.759c0.194 1.212 0.842 2.353 1.904 3.139l0.755 0.559 2.739-3.698h18.844l-1.258-3.35zM11.279 13.708c-1.17 0.175-2.339-0.117-3.29-0.822-1.963-1.454-2.378-4.234-0.924-6.197 0.868-1.172 2.209-1.792 3.566-1.792 0.916 0 1.84 0.283 2.631 0.868 1.157 0.857 1.775 2.173 1.791 3.512-0 0.029-0 0.058-0 0.087-0.007 0.906-0.288 1.817-0.867 2.599-0.704 0.951-1.737 1.571-2.907 1.745zM13.67 14.855l-0.11 0.149-0.048-0.065c0.053-0.027 0.106-0.055 0.158-0.084zM8.65 21.634c-0.406 0.549-0.679 1.156-0.825 1.782h-5.113l0.553-1.472-0.553-1.472h6.799l-0.861 1.163zM10.116 26.243c-0.718-1.023-0.741-2.433 0.043-3.491l7.792-10.522-0.34-0.543c-0.398-0.634-0.621-1.336-0.673-2.044 0.008-0.17 0.011-0.341 0.006-0.512-0.001-0.040-0.004-0.079-0.006-0.119 0.059-0.822 0.349-1.63 0.867-2.33 0.87-1.175 2.214-1.796 3.575-1.796 0.918 0 1.845 0.283 2.638 0.87 1.968 1.457 2.384 4.245 0.926 6.213-1.096 1.48-2.953 2.126-4.731 1.645l-0.619-0.167-9.477 12.797zM18.761 18.593h-0.643l0.321-0.434 0.321 0.434zM29.289 23.416h-14.741l2.18-2.944h12.561l-0.553 1.472 0.553 1.472z"></path>
    <path d="M13.15 8.949c-0.101-0.675-0.457-1.27-1.005-1.675-0.56-0.415-1.133-0.502-1.515-0.502-0.82 0-1.569 0.377-2.055 1.034-0.838 1.131-0.599 2.733 0.532 3.57 0.56 0.414 1.133 0.501 1.515 0.502h0c0.819 0 1.568-0.377 2.055-1.034 0.405-0.547 0.573-1.22 0.473-1.895zM11.168 9.727c-0.131 0.176-0.324 0.273-0.546 0.273-0.145-0-0.279-0.045-0.398-0.133-0.299-0.221-0.362-0.645-0.141-0.943 0.13-0.176 0.324-0.273 0.546-0.273 0.145 0 0.278 0.045 0.397 0.133 0.144 0.107 0.238 0.264 0.265 0.443s-0.017 0.356-0.124 0.501z"></path>
    <path d="M23.898 8.949c-0.101-0.675-0.457-1.27-1.005-1.675-0.56-0.415-1.133-0.502-1.515-0.502-0.82 0-1.569 0.377-2.055 1.034-0.838 1.131-0.599 2.733 0.532 3.57 0.56 0.414 1.133 0.501 1.515 0.502h0c0.819 0 1.568-0.377 2.055-1.034 0.405-0.547 0.573-1.22 0.473-1.895zM21.916 9.727c-0.13 0.176-0.324 0.273-0.546 0.273-0.145-0-0.279-0.045-0.398-0.133-0.299-0.221-0.362-0.644-0.141-0.943 0.131-0.176 0.325-0.273 0.546-0.273 0.145 0 0.278 0.045 0.397 0.133 0.144 0.107 0.238 0.264 0.265 0.443s-0.018 0.356-0.124 0.501z"></path>
  </symbol>
  <symbol id="icon-bell" viewBox="0 0 32 32">
    <title>Bell</title>
    <path d="M25.892 11.162v-1.271c0-5.454-4.437-9.892-9.891-9.892s-9.891 4.437-9.891 9.892v1.271c0 3.715-0.847 7.428-2.452 10.778h-2.809v6.486h11.762v0.183c0 1.869 1.521 3.39 3.39 3.39s3.389-1.52 3.389-3.39v-0.183h11.762v-6.486h-2.809c-1.605-3.35-2.452-7.064-2.452-10.778zM7.984 11.162v-1.271c0-4.42 3.596-8.017 8.016-8.017s8.016 3.596 8.016 8.017v1.271c0 3.697 0.78 7.392 2.264 10.778h-20.561c1.484-3.386 2.264-7.082 2.264-10.778zM17.515 28.61v0c0 0.835-0.679 1.514-1.515 1.514s-1.514-0.679-1.514-1.514v-0.183h3.029v0.183zM29.277 26.552h-26.553v-2.736h26.553v2.736z"></path>
  </symbol>
  <symbol id="icon-notepad" viewBox="0 0 32 32">
  <title>Notepad</title>
    <path d="M17.488 9.658h-12.413v1.875h12.413v-1.875z"></path>
    <path d="M17.488 14.775h-12.413v1.875h12.413v-1.875z"></path>
    <path d="M17.488 19.891h-12.413v1.875h12.413v-1.875z"></path>
    <path d="M17.488 25.008h-12.413v1.875h12.413v-1.875z"></path>
    <path d="M18.425 1.343v-1.343h-1.875v1.343h-2.262v-1.343h-1.875v1.343h-2.262v-1.343h-1.875v1.343h-2.262v-1.343h-1.875v1.343h-4.137v30.657h22.562v-30.657h-4.137zM20.687 30.125h-18.812v-26.907h2.262v2.26h1.875v-2.26h2.262v2.26h1.875v-2.26h2.262v2.26h1.875v-2.26h2.262v2.26h1.875v-2.26h2.262v26.907z"></path>
    <path d="M28.749 0c-1.793 0-3.251 1.458-3.251 3.251v19.404l1.221 7.411h1.093v1.933h1.875v-1.934h1.093l1.221-7.411v-19.404c0-1.793-1.458-3.251-3.251-3.251zM29.188 28.192h-0.878l-0.77-4.675h2.418l-0.77 4.675zM30.125 21.641h-2.752v-16.429h2.752v16.429zM30.125 3.337h-2.752v-0.086c0-0.759 0.617-1.376 1.376-1.376s1.376 0.617 1.376 1.376v0.086z"></path>
  </symbol>
  <symbol id="icon-meeting" viewBox="0 0 32 32">
    <title>Meeting</title>
    <path d="M14.916 28.503l-1.875-7.5c-0.114-0.456-0.336-0.862-0.633-1.194 0.445-0.498 0.717-1.154 0.717-1.873 0-1.551-1.262-2.812-2.812-2.812h-2.011l-1.098-2.195c-0.004-0.008-0.009-0.016-0.013-0.024 1.288-0.594 2.184-1.897 2.184-3.406 0-2.068-1.682-3.75-3.75-3.75s-3.75 1.682-3.75 3.75c0 0.98 0.379 1.874 0.997 2.542-0.435 0.367-0.764 0.869-0.913 1.462l-1.875 7.499c-0.211 0.846-0.025 1.725 0.512 2.413 0.29 0.372 0.66 0.657 1.076 0.841l-1.644 6.576c-0.126 0.502 0.18 1.011 0.682 1.137s1.011-0.18 1.137-0.682l0.76-3.040h6.447l0.405 1.62c0.38 1.518 1.912 2.422 3.411 2.046 1.504-0.376 2.422-1.905 2.046-3.411zM5.626 7.625c1.034 0 1.875 0.841 1.875 1.875s-0.841 1.875-1.875 1.875c-1.034 0-1.875-0.841-1.875-1.875s0.841-1.875 1.875-1.875zM3.076 26.373l0.469-1.875h4.572l0.469 1.875h-5.509zM12.414 30.096c-0.492 0.124-1.008-0.17-1.136-0.682l-1.52-6.079c-0.104-0.417-0.479-0.71-0.909-0.71h-6.036c-0.29 0-0.56-0.131-0.739-0.361s-0.241-0.523-0.171-0.804l1.875-7.498c0.212-0.843 1.362-0.966 1.749-0.193 0 0.001 0.001 0.001 0.001 0.002l1.356 2.711c0.159 0.318 0.483 0.518 0.838 0.518h2.591c0.517 0 0.937 0.421 0.937 0.937s-0.421 0.937-0.937 0.937c-0.464 0-3.343 0-3.75 0-0.358 0-0.679-0.199-0.839-0.518-0.232-0.463-0.795-0.651-1.258-0.419s-0.651 0.795-0.419 1.258c0.479 0.959 1.443 1.555 2.516 1.555 0.407 0 3.287 0 3.75 0 0.431 0 0.805 0.292 0.91 0.71l1.875 7.499c0.125 0.502-0.181 1.012-0.683 1.138z"></path>
    <path d="M30.327 24.258c1.209-0.536 1.93-1.884 1.588-3.254l-1.875-7.501c-0.149-0.593-0.478-1.094-0.912-1.461 0.618-0.669 0.997-1.562 0.997-2.542 0-2.068-1.682-3.75-3.75-3.75s-3.75 1.682-3.75 3.75c0 1.509 0.896 2.812 2.184 3.406-0.004 0.008-0.009 0.015-0.012 0.023l-1.098 2.195h-2.011c-1.551 0-2.812 1.262-2.812 2.812 0 0.719 0.271 1.375 0.717 1.873-0.297 0.332-0.519 0.738-0.633 1.194l-1.875 7.5c-0.375 1.505 0.542 3.035 2.045 3.41 1.488 0.374 3.029-0.517 3.412-2.046l0.405-1.62h6.447l0.76 3.040c0.126 0.502 0.635 0.808 1.137 0.682s0.808-0.634 0.682-1.137l-1.644-6.575zM24.499 9.5c0-1.034 0.841-1.875 1.875-1.875s1.875 0.841 1.875 1.875-0.841 1.875-1.875 1.875c-1.034 0-1.875-0.841-1.875-1.875zM23.414 26.373l0.469-1.875h4.572l0.469 1.875h-5.509zM29.186 22.624h-6.036c-0.43 0-0.805 0.293-0.909 0.71l-1.52 6.079c-0.129 0.514-0.645 0.806-1.138 0.682-0.501-0.125-0.807-0.635-0.682-1.137l1.875-7.499c0.105-0.418 0.479-0.71 0.91-0.71 0.464 0 3.343 0 3.75 0 1.072 0 2.036-0.596 2.516-1.555 0.232-0.463 0.044-1.026-0.419-1.258s-1.026-0.044-1.258 0.419c-0.16 0.32-0.481 0.518-0.839 0.518-0.407 0-3.287 0-3.75 0-0.517 0-0.937-0.421-0.937-0.937s0.421-0.937 0.937-0.937h2.591c0.355 0 0.68-0.201 0.838-0.518 0.040-0.079 1.333-2.666 1.357-2.713 0.393-0.785 1.539-0.64 1.748 0.191l1.875 7.499c0.148 0.591-0.3 1.165-0.91 1.165z"></path>
    <path d="M19.812 0.001h-7.624c-1.551 0-2.812 1.262-2.812 2.812v2c0 1.551 1.262 2.812 2.812 2.812h3.428l3.539 3.481c0.269 0.265 0.671 0.342 1.020 0.196s0.575-0.487 0.575-0.865v-2.973c1.091-0.387 1.875-1.429 1.875-2.652v-2c0-1.551-1.262-2.812-2.812-2.812zM20.75 4.813c0 0.517-0.421 0.937-0.937 0.937s-0.937 0.42-0.937 0.937v1.513l-2.217-2.181c-0.175-0.173-0.411-0.269-0.657-0.269h-3.812c-0.517 0-0.937-0.42-0.937-0.937v-2c0-0.517 0.421-0.937 0.937-0.937h7.624c0.517 0 0.937 0.421 0.937 0.937v2z"></path>
  </symbol>
  <symbol id="icon-wishlist" viewBox="0 0 32 32">
    <title>Wishlist</title>
    <path d="M26.783 0h-17.391c-2.877 0-5.217 2.341-5.217 5.217v20.522h-3.13c-0.576 0-1.044 0.467-1.044 1.044 0 2.877 2.34 5.217 5.217 5.217h13.217c2.877 0 5.217-2.34 5.217-5.217v-20.522h7.304c0.576 0 1.044-0.467 1.044-1.044 0-2.877-2.34-5.217-5.217-5.217zM5.217 29.913c-1.36 0-2.521-0.872-2.952-2.087h11.057c0.157 0.771 0.485 1.48 0.941 2.087h-9.046zM21.565 5.217v21.565c0 1.726-1.404 3.13-3.13 3.13s-3.13-1.404-3.13-3.13c0-0.576-0.467-1.044-1.043-1.044h-8v-20.522c0-1.726 1.404-3.13 3.13-3.13h13.22c-0.657 0.873-1.046 1.957-1.046 3.13zM23.831 4.174c0.431-1.215 1.591-2.087 2.952-2.087s2.521 0.872 2.952 2.087h-5.903z"></path>
    <path d="M9.391 8.348c0.576 0 1.043-0.467 1.043-1.043s-0.467-1.043-1.043-1.043c-0.576 0-1.043 0.467-1.043 1.043s0.467 1.043 1.043 1.043z"></path>
    <path d="M18.435 6.261h-4.87c-0.576 0-1.043 0.467-1.043 1.043s0.467 1.044 1.043 1.044h4.87c0.576 0 1.044-0.467 1.044-1.043s-0.467-1.043-1.044-1.043z"></path>
    <path d="M9.391 12.522c0.576 0 1.043-0.467 1.043-1.043s-0.467-1.043-1.043-1.043c-0.576 0-1.043 0.467-1.043 1.043s0.467 1.043 1.043 1.043z"></path>
    <path d="M18.435 10.435h-4.87c-0.576 0-1.043 0.467-1.043 1.043s0.467 1.043 1.043 1.043h4.87c0.576 0 1.044-0.467 1.044-1.043s-0.467-1.043-1.044-1.043z"></path>
    <path d="M9.391 16.696c0.576 0 1.043-0.467 1.043-1.043s-0.467-1.043-1.043-1.043c-0.576 0-1.043 0.467-1.043 1.043s0.467 1.043 1.043 1.043z"></path>
    <path d="M18.435 14.609h-4.87c-0.576 0-1.043 0.467-1.043 1.043s0.467 1.043 1.043 1.043h4.87c0.576 0 1.044-0.467 1.044-1.043s-0.467-1.043-1.044-1.043z"></path>
    <path d="M9.391 20.87c0.576 0 1.043-0.467 1.043-1.044s-0.467-1.044-1.043-1.044c-0.576 0-1.043 0.467-1.043 1.044s0.467 1.044 1.043 1.044z"></path>
    <path d="M18.435 18.783h-4.87c-0.576 0-1.043 0.467-1.043 1.044s0.467 1.044 1.043 1.044h4.87c0.576 0 1.044-0.467 1.044-1.044s-0.467-1.044-1.044-1.044z"></path>
    <path d="M31.89 13.099l-2.087-4.174c-0.384-0.768-1.483-0.768-1.867 0l-2.087 4.174c-0.073 0.145-0.11 0.305-0.11 0.467v15.304c0 1.726 1.404 3.13 3.13 3.13s3.13-1.404 3.13-3.13v-15.304c0-0.162-0.038-0.322-0.11-0.467zM29.913 28.87c0 0.575-0.468 1.044-1.044 1.044s-1.044-0.468-1.044-1.044v-1.044h2.087v1.044h0zM29.913 25.739h-2.087v-9.043h2.087v9.044zM29.913 14.609h-2.087v-0.797l1.044-2.087 1.044 2.087v0.797h-0z"></path>
  </symbol>
  <symbol id="icon-signature" viewBox="0 0 32 32">
    <title>Signature</title>
    <path d="M16.003 3.861l-6.881-2.85c-0.23-0.095-0.488-0.095-0.717 0s-0.412 0.278-0.507 0.507l-2.796 6.75-4.886 5.891c-0.197 0.238-0.265 0.557-0.18 0.855l2.652 9.341c0.078 0.276 0.278 0.5 0.543 0.61 0.115 0.048 0.237 0.071 0.359 0.071 0.158 0 0.315-0.040 0.457-0.119l8.481-4.73c0.27-0.15 0.448-0.424 0.477-0.732l0.711-7.62 2.796-6.75c0.198-0.478-0.029-1.027-0.507-1.225zM11.183 18.79l-5.695 3.176 2.427-5.859c0.198-0.478-0.029-1.027-0.507-1.225s-1.027 0.029-1.225 0.507l-2.427 5.859-1.781-6.273 4.22-5.088 5.603 2.321-0.614 6.581zM12.287 10.383l-5.149-2.132 2.133-5.148 5.149 2.133-2.133 5.148z"></path>
    <path d="M31.063 17.136h-10.042c-2.178 0-3.95 1.772-3.95 3.95s1.772 3.95 3.95 3.95c1.144 0 2.075 0.931 2.075 2.075s-0.931 2.075-2.075 2.075h-20.083c-0.518 0-0.938 0.42-0.938 0.938s0.42 0.938 0.938 0.938h20.083c2.178 0 3.95-1.772 3.95-3.95s-1.772-3.95-3.95-3.95c-1.144 0-2.075-0.931-2.075-2.075s0.931-2.075 2.075-2.075h10.042c0.518 0 0.938-0.42 0.938-0.938s-0.42-0.938-0.938-0.938z"></path>
  </symbol>
  <symbol id="icon-fireworks" viewBox="0 0 32 32">
    <title>Fireworks</title>
    <path d="M24.068 15.11c-0.357-0.497-0.508-1.121-0.4-1.75l0.215-1.253-0.91-0.887c-0.014-0.013-0.026-0.028-0.040-0.042-6.964 5.81-7.756 15.123-7.681 19.694 0.003 0.167 0.131 0.304 0.297 0.32s0.317-0.096 0.35-0.26c1.921-9.356 5.554-13.778 8.169-15.823z"></path>
    <path d="M10.41 8.863l-2.102 0.47-0.804 1.998c-0.015 0.036-0.031 0.071-0.047 0.107 3.28 4.64 4.988 14.114 5.671 18.887 0.016 0.112 0.116 0.192 0.229 0.185s0.201-0.101 0.202-0.214c0.083-10.294-1.492-17.162-3.081-21.45-0.023 0.006-0.045 0.012-0.068 0.018z"></path>
    <path d="M24.783 25.529l-0.298-0.41c-0.241-0.331-0.385-0.709-0.431-1.097-2.293 0.611-5.741 2.176-6.843 6.133-0.060 0.214 0.044 0.439 0.245 0.533s0.441 0.029 0.566-0.153c1.202-1.744 3.364-4.046 6.587-4.514 0.002-0.005 0.003-0.010 0.005-0.015l0.169-0.477z"></path>
    <path d="M8.389 21.533c-0.21 0.293-0.488 0.54-0.824 0.714l-0.449 0.234-0.062 0.502c-0.019 0.151-0.053 0.298-0.098 0.439 1.925 2.174 3.343 5.161 4.2 7.305 0.057 0.144 0.214 0.221 0.363 0.179s0.242-0.19 0.216-0.342c-0.759-4.482-2.087-7.288-3.347-9.031z"></path>
    <path d="M26.122 11.38l-0.4 2.333c-0.016 0.093 0.022 0.187 0.098 0.242 0.043 0.031 0.094 0.047 0.145 0.047 0.039 0 0.079-0.009 0.115-0.028l2.095-1.101 2.095 1.101c0.036 0.019 0.076 0.028 0.115 0.028 0.051 0 0.102-0.016 0.145-0.047 0.076-0.055 0.114-0.149 0.098-0.242l-0.4-2.333 1.695-1.652c0.067-0.066 0.092-0.164 0.063-0.254s-0.107-0.155-0.2-0.168l-2.343-0.34-1.048-2.123c-0.042-0.084-0.128-0.138-0.222-0.138s-0.18 0.053-0.222 0.138l-1.048 2.123-2.343 0.34c-0.093 0.014-0.171 0.079-0.2 0.168s-0.005 0.188 0.063 0.254l1.695 1.652z"></path>
    <path d="M9.955 6.828c0.092-0.021 0.164-0.092 0.186-0.183s-0.009-0.188-0.082-0.248l-2.492-2.085 0.305-3.235c0.009-0.094-0.036-0.184-0.116-0.234-0.040-0.024-0.085-0.037-0.13-0.037s-0.091 0.013-0.131 0.038l-2.754 1.726-2.983-1.29c-0.032-0.014-0.065-0.020-0.098-0.020-0.058 0-0.115 0.020-0.16 0.059-0.072 0.061-0.103 0.157-0.080 0.249l0.791 3.152-2.148 2.438c-0.062 0.071-0.079 0.171-0.043 0.258s0.118 0.146 0.212 0.153l3.242 0.222 1.655 2.797c0.045 0.076 0.126 0.121 0.213 0.121 0.006 0 0.013-0 0.019-0.001 0.094-0.007 0.176-0.067 0.211-0.154l1.213-3.015 3.171-0.71z"></path>
    <path d="M31.508 24.55c-0.014-0.093-0.079-0.171-0.169-0.2l-1.524-0.495-0.456-1.536c-0.027-0.090-0.103-0.157-0.195-0.173-0.014-0.002-0.028-0.004-0.042-0.004-0.078 0-0.153 0.037-0.2 0.102l-0.941 1.297-1.602-0.040c-0.002 0-0.004-0-0.006-0-0.092 0-0.176 0.051-0.219 0.132-0.044 0.083-0.037 0.184 0.019 0.261l0.942 1.296-0.534 1.511c-0.031 0.089-0.010 0.188 0.056 0.255 0.047 0.048 0.111 0.075 0.177 0.075 0.026 0 0.051-0.004 0.076-0.012l1.524-0.496 1.272 0.974c0.044 0.034 0.097 0.051 0.15 0.051 0.037 0 0.075-0.008 0.11-0.026 0.084-0.042 0.138-0.128 0.138-0.222l-0.001-1.602 1.32-0.909c0.077-0.053 0.118-0.146 0.104-0.24z"></path>
    <path d="M6.604 20.398c0.083-0.043 0.135-0.131 0.133-0.225s-0.057-0.179-0.143-0.219l-1.452-0.679-0.264-1.58c-0.016-0.093-0.082-0.169-0.173-0.196-0.024-0.007-0.048-0.011-0.071-0.011-0.067 0-0.133 0.028-0.181 0.078l-1.094 1.171-1.585-0.237c-0.012-0.002-0.024-0.003-0.037-0.003-0.080 0-0.156 0.039-0.203 0.106-0.054 0.077-0.059 0.178-0.013 0.261l0.775 1.402-0.716 1.434c-0.042 0.084-0.033 0.185 0.024 0.26 0.047 0.062 0.121 0.098 0.197 0.098 0.016 0 0.031-0.001 0.047-0.004l1.573-0.304 1.143 1.124c0.047 0.046 0.11 0.071 0.174 0.071 0.027 0 0.055-0.004 0.081-0.014 0.089-0.031 0.152-0.11 0.164-0.203l0.197-1.59 1.421-0.74z"></path>
    <path d="M17.119 6.987l-0.192-0.468-0.495-0.107c-0.37-0.080-0.703-0.244-0.983-0.472-0.798 2.121-1.356 5.403-0.769 10.338 0.032 0.266 0.419 0.262 0.444-0.004 0.217-2.289 0.777-5.991 2.205-8.889-0.082-0.124-0.153-0.257-0.211-0.398z"></path>
    <path d="M17.825 1.312l0.162 1.594-1.221 1.037c-0.072 0.061-0.103 0.157-0.080 0.249s0.096 0.162 0.188 0.182l1.566 0.339 0.609 1.482c0.036 0.087 0.118 0.146 0.212 0.153 0.006 0 0.011 0.001 0.017 0.001 0.088 0 0.169-0.046 0.214-0.123l0.806-1.385 1.598-0.121c0.094-0.007 0.176-0.067 0.211-0.154s0.018-0.187-0.045-0.257l-1.068-1.195 0.379-1.557c0.022-0.092-0.009-0.188-0.082-0.248-0.045-0.038-0.102-0.058-0.159-0.058-0.034 0-0.068 0.007-0.1 0.021l-1.466 0.646-1.364-0.841c-0.040-0.025-0.085-0.037-0.13-0.037s-0.091 0.013-0.131 0.038c-0.080 0.050-0.124 0.141-0.115 0.235z"></path>
  </symbol>
  <symbol id="icon-zoom" viewBox="0 0 32 32">
    <title>Zoom</title>
    <path d="M30.938 29.137l-7.362-7.362c1.825-2.225 2.925-5.075 2.925-8.181 0-7.125-5.781-12.906-12.906-12.906-7.131 0-12.906 5.781-12.906 12.906s5.775 12.906 12.906 12.906c3.106 0 5.95-1.094 8.175-2.919l7.362 7.356c0.5 0.5 1.306 0.5 1.806 0 0.5-0.494 0.5-1.306 0-1.8zM13.594 23.931c-5.706 0-10.344-4.637-10.344-10.338s4.638-10.344 10.344-10.344c5.7 0 10.344 4.644 10.344 10.344s-4.644 10.338-10.344 10.338z"></path>
  </symbol>
</svg>