<?xml version="1.0" encoding="utf-8"?>
<!DOCTYPE html>
<svg xmlns="http://www.w3.org/2000/svg" xmlns:xlink="http://www.w3.org/1999/xlink" version="1.1">
  <symbol id="icon-phone-call" viewBox="0 0 32 32">
    <title>Мобільний</title>
    <path d="M25.29 19.823c-0.655-0.682-1.445-1.047-2.283-1.047-0.831 0-1.628 0.358-2.31 1.040l-2.134 2.127c-0.176-0.095-0.351-0.182-0.52-0.27-0.243-0.122-0.473-0.236-0.669-0.358-1.999-1.27-3.816-2.924-5.558-5.065-0.844-1.067-1.412-1.965-1.824-2.877 0.554-0.507 1.067-1.033 1.567-1.54 0.189-0.189 0.378-0.385 0.567-0.574 1.418-1.418 1.418-3.255 0-4.674l-1.844-1.844c-0.209-0.209-0.425-0.425-0.628-0.642-0.405-0.419-0.831-0.851-1.27-1.256-0.655-0.648-1.439-0.993-2.263-0.993s-1.621 0.344-2.296 0.993c-0.007 0.007-0.007 0.007-0.014 0.014l-2.296 2.317c-0.865 0.865-1.358 1.918-1.466 3.141-0.162 1.972 0.419 3.809 0.865 5.011 1.094 2.951 2.729 5.687 5.167 8.618 2.958 3.532 6.517 6.322 10.583 8.287 1.553 0.736 3.627 1.607 5.943 1.756 0.142 0.007 0.29 0.014 0.425 0.014 1.56 0 2.87-0.561 3.897-1.675 0.007-0.014 0.020-0.020 0.027-0.034 0.351-0.425 0.756-0.81 1.182-1.222 0.29-0.277 0.588-0.567 0.878-0.871 0.669-0.696 1.020-1.506 1.020-2.337 0-0.837-0.358-1.641-1.040-2.317l-3.708-3.721zM27.708 26.935c-0.007 0-0.007 0.007 0 0-0.263 0.284-0.534 0.54-0.824 0.824-0.439 0.419-0.885 0.858-1.303 1.351-0.682 0.729-1.486 1.074-2.539 1.074-0.101 0-0.209 0-0.311-0.007-2.006-0.128-3.87-0.912-5.268-1.58-3.823-1.851-7.179-4.478-9.969-7.807-2.303-2.776-3.843-5.342-4.863-8.098-0.628-1.682-0.858-2.992-0.756-4.228 0.068-0.79 0.371-1.445 0.932-2.006l2.303-2.303c0.331-0.311 0.682-0.48 1.027-0.48 0.425 0 0.77 0.257 0.986 0.473 0.007 0.007 0.013 0.013 0.020 0.020 0.412 0.385 0.804 0.783 1.216 1.209 0.209 0.216 0.425 0.432 0.642 0.655l1.844 1.844c0.716 0.716 0.716 1.378 0 2.094-0.196 0.196-0.385 0.392-0.581 0.581-0.567 0.581-1.108 1.121-1.695 1.648-0.014 0.014-0.027 0.020-0.034 0.034-0.581 0.581-0.473 1.148-0.351 1.533 0.007 0.020 0.014 0.041 0.020 0.061 0.48 1.162 1.155 2.256 2.181 3.559l0.007 0.007c1.864 2.296 3.829 4.086 5.997 5.457 0.277 0.176 0.561 0.317 0.831 0.453 0.243 0.122 0.473 0.236 0.669 0.358 0.027 0.014 0.054 0.034 0.081 0.047 0.23 0.115 0.446 0.169 0.669 0.169 0.561 0 0.912-0.351 1.027-0.466l2.31-2.31c0.23-0.23 0.594-0.507 1.020-0.507 0.419 0 0.763 0.263 0.973 0.493 0.007 0.007 0.007 0.007 0.014 0.014l3.721 3.721c0.696 0.689 0.696 1.398 0.007 2.114z"></path>
    <path d="M17.294 7.612c1.77 0.297 3.377 1.135 4.66 2.418s2.114 2.891 2.418 4.66c0.074 0.446 0.459 0.756 0.898 0.756 0.054 0 0.101-0.007 0.155-0.014 0.5-0.081 0.831-0.554 0.75-1.054-0.365-2.141-1.378-4.093-2.924-5.639s-3.498-2.56-5.639-2.924c-0.5-0.081-0.966 0.25-1.054 0.743s0.236 0.973 0.736 1.054z"></path>
    <path d="M31.963 14.116c-0.601-3.525-2.263-6.734-4.815-9.287s-5.761-4.214-9.287-4.815c-0.493-0.088-0.959 0.25-1.047 0.743-0.081 0.5 0.25 0.966 0.75 1.054 3.147 0.534 6.018 2.026 8.3 4.302 2.283 2.283 3.769 5.153 4.302 8.3 0.074 0.446 0.459 0.756 0.898 0.756 0.054 0 0.101-0.007 0.155-0.014 0.493-0.074 0.831-0.547 0.743-1.040z"></path>
  </symbol>
  <symbol id="icon-email" viewBox="0 0 32 32">
    <title>E-mail</title>
    <path d="M29.188 3.813h-26.375c-1.549 0-2.813 1.262-2.813 2.813v18.75c0 1.545 1.258 2.813 2.813 2.813h26.375c1.545 0 2.813-1.258 2.813-2.813v-18.75c0-1.545-1.258-2.813-2.813-2.813zM28.799 5.688l-12.739 12.74-12.85-12.74h25.589zM1.875 24.987v-17.982l9.030 8.953-9.030 9.030zM3.201 26.313l9.036-9.036 3.166 3.139c0.367 0.363 0.958 0.362 1.323-0.003l3.087-3.087 8.987 8.987h-25.598zM30.125 24.987l-8.987-8.987 8.987-8.987v17.973z"></path>
  </symbol>
  <symbol id="icon-facebook" viewBox="0 0 32 32">
    <title>Facebook</title>
    <path d="M23.999 0.007l-4.15-0.007c-4.662 0-7.675 3.091-7.675 7.875v3.631h-4.172c-0.361 0-0.652 0.292-0.652 0.653v5.261c0 0.361 0.292 0.652 0.652 0.652h4.172v13.275c0 0.361 0.292 0.653 0.652 0.653h5.444c0.361 0 0.652-0.292 0.652-0.652v-13.275h4.878c0.361 0 0.652-0.292 0.652-0.652l0.002-5.261c0-0.173-0.069-0.339-0.191-0.461s-0.289-0.191-0.462-0.191h-4.88v-3.078c0-1.479 0.353-2.23 2.28-2.23l2.795-0.001c0.36 0 0.652-0.292 0.652-0.652v-4.885c0-0.36-0.292-0.652-0.651-0.652z"></path>
  </symbol>
  <symbol id="icon-instagram" viewBox="0 0 32 32">
    <title>Instagram</title>
    <path d="M23.169 0h-14.338c-4.869 0-8.831 3.962-8.831 8.831v14.338c0 4.869 3.961 8.831 8.831 8.831h14.338c4.87 0 8.831-3.962 8.831-8.831v-14.338c0-4.869-3.961-8.831-8.831-8.831zM29.161 23.169c0 3.304-2.688 5.992-5.992 5.992h-14.338c-3.304 0-5.991-2.688-5.991-5.992v-14.338c0-3.304 2.688-5.992 5.991-5.992h14.338c3.304 0 5.992 2.688 5.992 5.992v14.338z"></path>
    <path d="M16 7.755c-4.547 0-8.246 3.699-8.246 8.246s3.699 8.245 8.246 8.245 8.246-3.699 8.246-8.245c0-4.547-3.699-8.246-8.246-8.246zM16 21.406c-2.981 0-5.406-2.425-5.406-5.406s2.425-5.406 5.406-5.406 5.406 2.425 5.406 5.406c0 2.981-2.425 5.406-5.406 5.406z"></path>
    <path d="M24.591 5.347c-0.547 0-1.084 0.221-1.471 0.609-0.388 0.386-0.611 0.924-0.611 1.473 0 0.547 0.223 1.085 0.611 1.473 0.386 0.386 0.924 0.609 1.471 0.609 0.549 0 1.085-0.223 1.473-0.609 0.388-0.388 0.609-0.926 0.609-1.473 0-0.549-0.221-1.086-0.609-1.473-0.386-0.388-0.924-0.609-1.473-0.609z"></path>
  </symbol>
  <symbol id="icon-diamond" viewBox="0 0 32 32">
    <title>Diamond</title>
    <path d="M27.090 6.113h-20.395l-4.91 8.528 15.107 17.156 15.107-17.156-4.91-8.528zM29.224 13.586h-5.778l3.055-4.73 2.723 4.73zM24.821 7.992l-3.101 4.801-3.101-4.801h6.202zM19.994 13.586h-6.202l3.101-4.801 3.101 4.801zM15.167 7.992l-3.101 4.801-3.101-4.801h6.202zM7.285 8.856l3.055 4.73h-5.778l2.723-4.73zM5.017 15.466h6.353l3.359 11.030-9.712-11.030zM13.335 15.466h7.116l-3.558 11.683-3.558-11.683zM19.057 26.495l3.359-11.030h6.353l-9.712 11.030z"></path>
    <path d="M26.746 27.981v-1.305h-1.88v1.305h-1.305v1.88h1.305v1.305h1.88v-1.305h1.305v-1.88h-1.305z"></path>
    <path d="M3.876 1.508v-1.305h-1.88v1.305h-1.305v1.88h1.305v1.305h1.88v-1.305h1.305v-1.88h-1.305z"></path>
    <path d="M0.94 10.516c0.519 0 0.94-0.421 0.94-0.94s-0.421-0.94-0.94-0.94-0.94 0.421-0.94 0.94c0 0.519 0.421 0.94 0.94 0.94z"></path>
    <path d="M29.437 25.352c0.519 0 0.94-0.421 0.94-0.94s-0.421-0.94-0.94-0.94c-0.519 0-0.94 0.421-0.94 0.94s0.421 0.94 0.94 0.94z"></path>
    <path d="M10.080 3.388c0.519 0 0.94-0.421 0.94-0.94s-0.421-0.94-0.94-0.94c-0.519 0-0.94 0.421-0.94 0.94s0.421 0.94 0.94 0.94z"></path>
  </symbol>
  <symbol id="icon-mask" viewBox="0 0 32 32">
    <title>Mask</title>
    <path d="M12.723 7.31c-0.157-0.18-1.59-1.758-3.508-1.758s-3.351 1.578-3.508 1.758l-0.538 0.616 0.538 0.616c0.157 0.18 1.59 1.758 3.508 1.758s3.351-1.578 3.508-1.758l0.538-0.616-0.538-0.616zM9.215 8.426c-0.489 0-0.98-0.235-1.372-0.5 0.392-0.265 0.884-0.5 1.372-0.5s0.98 0.235 1.372 0.5c-0.391 0.264-0.884 0.5-1.372 0.5z"></path>
    <path d="M26.296 7.31c-0.157-0.18-1.59-1.758-3.508-1.758s-3.351 1.578-3.508 1.758l-0.538 0.616 0.538 0.616c0.157 0.18 1.59 1.758 3.508 1.758s3.351-1.578 3.508-1.758l0.538-0.616-0.538-0.616zM22.788 8.426c-0.489 0-0.98-0.235-1.372-0.5 0.391-0.264 0.884-0.5 1.372-0.5s0.981 0.235 1.373 0.5c-0.391 0.264-0.884 0.5-1.373 0.5z"></path>
    <path d="M32 0.091l-1.252 0.446c-0.028 0.010-2.829 0.998-5.906 1.168-0.845 0.047-1.617 0.050-2.363 0.054-2.474 0.011-4.654 0.021-6.478 1.905-1.825-1.885-4.004-1.894-6.478-1.905-0.747-0.003-1.519-0.007-2.363-0.054-3.077-0.171-5.878-1.158-5.905-1.168l-1.253-0.448v31.823h1.875v-19.024c1.198 1.228 2.869 1.992 4.716 1.992h4.38c1.166 0 2.32-0.301 3.337-0.869 0.632-0.353 1.203-0.805 1.691-1.334 0.488 0.529 1.060 0.981 1.691 1.334 1.018 0.569 2.172 0.869 3.337 0.869h4.38c3.634 0 6.591-2.957 6.591-6.591l-0-8.198zM30.125 8.288c0 2.601-2.116 4.716-4.716 4.716h-4.38c-1.712 0-3.333-0.906-4.23-2.363l-0.798-1.297-0.798 1.297c-0.897 1.458-2.518 2.363-4.23 2.363h-4.38c-2.601 0-4.716-2.116-4.716-4.716v-5.598c1.194 0.332 3.11 0.773 5.18 0.888 0.892 0.050 1.724 0.053 2.459 0.057 2.776 0.012 4.305 0.019 5.718 2.044l0.769 1.101 0.769-1.101c1.413-2.024 2.942-2.031 5.718-2.044 0.734-0.003 1.566-0.007 2.459-0.057 2.070-0.115 3.986-0.556 5.18-0.887v5.598z"></path>
  </symbol>
  <symbol id="icon-book" viewBox="0 0 32 32">
    <title>Book</title>
    <path d="M28.917 4.319c-0.951-0.951-2.499-0.951-3.451 0l-3.223 3.223v-7.542h-19.875v27.406h2.408v4.594l2.669-0.946 2.669 0.946v-4.594h12.129v-12.962l6.674-6.674c0.951-0.951 0.951-2.5-0-3.451zM8.236 29.34l-0.79-0.28-0.79 0.28v-1.934h1.58v1.934zM20.365 25.527h-16.116v-23.648h16.117v7.542l-3.949 3.949-1.082 4.532 4.532-1.082 0.498-0.498v9.204h-0zM18.913 15.116l-1.042 0.249 0.249-1.042 6.795-6.795 0.793 0.793-6.795 6.795zM27.589 6.441l-0.552 0.552-0.793-0.793 0.552-0.552c0.219-0.219 0.574-0.219 0.793-0s0.219 0.575 0 0.793z"></path>
    <path d="M16.603 4.819h-8.593v1.879h8.593v-1.879z"></path>
    <path d="M16.603 8.77h-8.593v1.879h8.593v-1.879z"></path>
  </symbol>
  <symbol id="icon-ribbon" viewBox="0 0 32 32">
    <title>Ribbon</title>
    <path d="M30.742 21.944l1.258-3.35h-10.902l-1.49-2.012 0.753-1.017c1.015 0.165 2.055 0.080 3.041-0.254 1.224-0.414 2.279-1.183 3.050-2.225 2.074-2.8 1.483-6.766-1.318-8.84s-6.766-1.483-8.84 1.318c-0.105 0.142-0.203 0.287-0.295 0.436-0.092-0.148-0.19-0.294-0.295-0.436-2.074-2.8-6.039-3.391-8.84-1.318s-3.391 6.039-1.317 8.84c0.771 1.042 1.826 1.811 3.050 2.224 0.986 0.333 2.026 0.419 3.041 0.254l0.753 1.017-1.49 2.012h-10.902l1.258 3.35-1.258 3.35h7.759c0.194 1.212 0.842 2.353 1.904 3.139l0.755 0.559 2.739-3.698h18.844l-1.258-3.35zM11.279 13.708c-1.17 0.175-2.339-0.117-3.29-0.822-1.963-1.454-2.378-4.234-0.924-6.197 0.868-1.172 2.209-1.792 3.566-1.792 0.916 0 1.84 0.283 2.631 0.868 1.157 0.857 1.775 2.173 1.791 3.512-0 0.029-0 0.058-0 0.087-0.007 0.906-0.288 1.817-0.867 2.599-0.704 0.951-1.737 1.571-2.907 1.745zM13.67 14.855l-0.11 0.149-0.048-0.065c0.053-0.027 0.106-0.055 0.158-0.084zM8.65 21.634c-0.406 0.549-0.679 1.156-0.825 1.782h-5.113l0.553-1.472-0.553-1.472h6.799l-0.861 1.163zM10.116 26.243c-0.718-1.023-0.741-2.433 0.043-3.491l7.792-10.522-0.34-0.543c-0.398-0.634-0.621-1.336-0.673-2.044 0.008-0.17 0.011-0.341 0.006-0.512-0.001-0.040-0.004-0.079-0.006-0.119 0.059-0.822 0.349-1.63 0.867-2.33 0.87-1.175 2.214-1.796 3.575-1.796 0.918 0 1.845 0.283 2.638 0.87 1.968 1.457 2.384 4.245 0.926 6.213-1.096 1.48-2.953 2.126-4.731 1.645l-0.619-0.167-9.477 12.797zM18.761 18.593h-0.643l0.321-0.434 0.321 0.434zM29.289 23.416h-14.741l2.18-2.944h12.561l-0.553 1.472 0.553 1.472z"></path>
    <path d="M13.15 8.949c-0.101-0.675-0.457-1.27-1.005-1.675-0.56-0.415-1.133-0.502-1.515-0.502-0.82 0-1.569 0.377-2.055 1.034-0.838 1.131-0.599 2.733 0.532 3.57 0.56 0.414 1.133 0.501 1.515 0.502h0c0.819 0 1.568-0.377 2.055-1.034 0.405-0.547 0.573-1.22 0.473-1.895zM11.168 9.727c-0.131 0.176-0.324 0.273-0.546 0.273-0.145-0-0.279-0.045-0.398-0.133-0.299-0.221-0.362-0.645-0.141-0.943 0.13-0.176 0.324-0.273 0.546-0.273 0.145 0 0.278 0.045 0.397 0.133 0.144 0.107 0.238 0.264 0.265 0.443s-0.017 0.356-0.124 0.501z"></path>
    <path d="M23.898 8.949c-0.101-0.675-0.457-1.27-1.005-1.675-0.56-0.415-1.133-0.502-1.515-0.502-0.82 0-1.569 0.377-2.055 1.034-0.838 1.131-0.599 2.733 0.532 3.57 0.56 0.414 1.133 0.501 1.515 0.502h0c0.819 0 1.568-0.377 2.055-1.034 0.405-0.547 0.573-1.22 0.473-1.895zM21.916 9.727c-0.13 0.176-0.324 0.273-0.546 0.273-0.145-0-0.279-0.045-0.398-0.133-0.299-0.221-0.362-0.644-0.141-0.943 0.131-0.176 0.325-0.273 0.546-0.273 0.145 0 0.278 0.045 0.397 0.133 0.144 0.107 0.238 0.264 0.265 0.443s-0.018 0.356-0.124 0.501z"></path>
  </symbol>
  <symbol id="icon-bell" viewBox="0 0 32 32">
    <title>Bell</title>
    <path d="M25.892 11.162v-1.271c0-5.454-4.437-9.892-9.891-9.892s-9.891 4.437-9.891 9.892v1.271c0 3.715-0.847 7.428-2.452 10.778h-2.809v6.486h11.762v0.183c0 1.869 1.521 3.39 3.39 3.39s3.389-1.52 3.389-3.39v-0.183h11.762v-6.486h-2.809c-1.605-3.35-2.452-7.064-2.452-10.778zM7.984 11.162v-1.271c0-4.42 3.596-8.017 8.016-8.017s8.016 3.596 8.016 8.017v1.271c0 3.697 0.78 7.392 2.264 10.778h-20.561c1.484-3.386 2.264-7.082 2.264-10.778zM17.515 28.61v0c0 0.835-0.679 1.514-1.515 1.514s-1.514-0.679-1.514-1.514v-0.183h3.029v0.183zM29.277 26.552h-26.553v-2.736h26.553v2.736z"></path>
  </symbol>
  <symbol id="icon-notepad" viewBox="0 0 32 32">
  <title>Notepad</title>
    <path d="M17.488 9.658h-12.413v1.875h12.413v-1.875z"></path>
    <path d="M17.488 14.775h-12.413v1.875h12.413v-1.875z"></path>
    <path d="M17.488 19.891h-12.413v1.875h12.413v-1.875z"></path>
    <path d="M17.488 25.008h-12.413v1.875h12.413v-1.875z"></path>
    <path d="M18.425 1.343v-1.343h-1.875v1.343h-2.262v-1.343h-1.875v1.343h-2.262v-1.343h-1.875v1.343h-2.262v-1.343h-1.875v1.343h-4.137v30.657h22.562v-30.657h-4.137zM20.687 30.125h-18.812v-26.907h2.262v2.26h1.875v-2.26h2.262v2.26h1.875v-2.26h2.262v2.26h1.875v-2.26h2.262v2.26h1.875v-2.26h2.262v26.907z"></path>
    <path d="M28.749 0c-1.793 0-3.251 1.458-3.251 3.251v19.404l1.221 7.411h1.093v1.933h1.875v-1.934h1.093l1.221-7.411v-19.404c0-1.793-1.458-3.251-3.251-3.251zM29.188 28.192h-0.878l-0.77-4.675h2.418l-0.77 4.675zM30.125 21.641h-2.752v-16.429h2.752v16.429zM30.125 3.337h-2.752v-0.086c0-0.759 0.617-1.376 1.376-1.376s1.376 0.617 1.376 1.376v0.086z"></path>
  </symbol>
</svg>