<svg width="64" height="64" viewBox="0 0 64 64" fill="none" xmlns="http://www.w3.org/2000/svg">
<path d="M53.5653 0H18.7826C13.0289 0 8.34787 4.681 8.34787 10.4347V51.4782H2.087C0.934375 51.4782 0 52.4126 0 53.5653C0 59.319 4.681 64 10.4347 64H36.8695C42.6232 64 47.3042 59.319 47.3042 53.5653V12.5218H61.913C63.0655 12.5218 64 11.5874 64 10.4347C64 4.681 59.319 0 53.5653 0ZM10.4347 59.8261C7.71387 59.8261 5.39275 58.0816 4.5315 55.6522H26.6448C26.9589 57.1935 27.6141 58.6123 28.5275 59.8261H10.4347ZM43.1304 10.4347V53.5651C43.1304 57.0174 40.3218 59.826 36.8695 59.826C33.4172 59.826 30.6086 57.0174 30.6086 53.5651C30.6086 52.4126 29.6742 51.4781 28.5216 51.4781H12.5216V10.4347C12.5216 6.9825 15.3302 4.17387 18.7825 4.17387H45.223C43.91 5.91912 43.1304 8.0875 43.1304 10.4347ZM47.6619 8.34787C48.5233 5.9185 50.8444 4.174 53.5651 4.174C56.2859 4.174 58.6071 5.9185 59.4684 8.34787H47.6619Z" fill="#B28357"/>
<path d="M18.7828 16.6957C19.9354 16.6957 20.8698 15.7613 20.8698 14.6087C20.8698 13.4561 19.9354 12.5217 18.7828 12.5217C17.6302 12.5217 16.6958 13.4561 16.6958 14.6087C16.6958 15.7613 17.6302 16.6957 18.7828 16.6957Z" fill="#B28357"/>
<path d="M36.8696 12.5217H27.1305C25.978 12.5217 25.0435 13.4561 25.0435 14.6087C25.0435 15.7613 25.9778 16.6957 27.1305 16.6957H36.8696C38.0221 16.6957 38.9566 15.7613 38.9566 14.6087C38.9566 13.4561 38.0221 12.5217 36.8696 12.5217Z" fill="#B28357"/>
<path d="M18.7828 25.0434C19.9354 25.0434 20.8698 24.109 20.8698 22.9564C20.8698 21.8038 19.9354 20.8694 18.7828 20.8694C17.6302 20.8694 16.6958 21.8038 16.6958 22.9564C16.6958 24.109 17.6302 25.0434 18.7828 25.0434Z" fill="#B28357"/>
<path d="M36.8696 20.8696H27.1305C25.978 20.8696 25.0435 21.804 25.0435 22.9566C25.0435 24.1091 25.9778 25.0436 27.1305 25.0436H36.8696C38.0221 25.0436 38.9566 24.1093 38.9566 22.9566C38.9565 21.804 38.0221 20.8696 36.8696 20.8696Z" fill="#B28357"/>
<path d="M18.7828 33.3913C19.9354 33.3913 20.8698 32.4569 20.8698 31.3043C20.8698 30.1517 19.9354 29.2173 18.7828 29.2173C17.6302 29.2173 16.6958 30.1517 16.6958 31.3043C16.6958 32.4569 17.6302 33.3913 18.7828 33.3913Z" fill="#B28357"/>
<path d="M36.8696 29.2173H27.1305C25.978 29.2173 25.0435 30.1517 25.0435 31.3043C25.0435 32.4568 25.9778 33.3913 27.1305 33.3913H36.8696C38.0221 33.3913 38.9566 32.4569 38.9566 31.3043C38.9565 30.1517 38.0221 29.2173 36.8696 29.2173Z" fill="#B28357"/>
<path d="M18.7828 41.7392C19.9354 41.7392 20.8698 40.8048 20.8698 39.6522C20.8698 38.4996 19.9354 37.5652 18.7828 37.5652C17.6302 37.5652 16.6958 38.4996 16.6958 39.6522C16.6958 40.8048 17.6302 41.7392 18.7828 41.7392Z" fill="#B28357"/>
<path d="M36.8696 37.5652H27.1305C25.978 37.5652 25.0435 38.4996 25.0435 39.6522C25.0435 40.8048 25.9778 41.7392 27.1305 41.7392H36.8696C38.0221 41.7392 38.9566 40.8048 38.9566 39.6522C38.9566 38.4996 38.0221 37.5652 36.8696 37.5652Z" fill="#B28357"/>
<path d="M63.7794 26.1971L59.6055 17.8492C58.838 16.3142 56.6404 16.313 55.8723 17.8492L51.6984 26.1971C51.5534 26.4869 51.478 26.8064 51.478 27.1304V57.7391C51.478 61.1914 54.2867 64 57.7389 64C61.1912 64 63.9997 61.1914 63.9997 57.7391V27.1304C63.9997 26.8064 63.9243 26.487 63.7794 26.1971ZM59.8258 57.7391C59.8258 58.8899 58.8895 59.8261 57.7388 59.8261C56.588 59.8261 55.6518 58.8899 55.6518 57.7391V55.6521H59.8257V57.7391H59.8258ZM59.8258 51.4782H55.6519V33.3912H59.8258V51.4782ZM59.8258 29.2174H55.6519V27.6231L57.7389 23.4492L59.8259 27.6231V29.2174H59.8258Z" fill="#B28357"/>
</svg>
